<?xml version='1.0' encoding='utf-8'?>
<svg version="1.1" xmlns="http://www.w3.org/2000/svg" width="720" height="400" viewBox="0 0 720 400" style="font-family:&quot;Lucida Grande&quot;, &quot;Lucida Sans Unicode&quot;, Arial, Helvetica, sans-serif;font-size:12px;">
  <desc>Created with render-graph4.py</desc>
  <rect fill="#ffffff" x="0" y="0" width="720" height="400" />
  <g class="states">
    <g class="state state-AK" data-state="AK" transform="translate(125.88,346.43)">
      <path d="M 4.53 -36.85 L 5.21 -37.07 L 6.01 -38.16 L 6.27 -38.22 L 6.83 -37.71 L 6.51 -36.56 L 6.92 -36.07 L 8.64 -36.12 L 10.19 -35.46 L 10.19 -35.18 L 9.62 -34.62 L 9.71 -34.05 L 10.77 -33.63 L 10.15 -33.18 L 14.51 -32.41 L 16.44 -31.17 L 17.34 -30.25 L 19.81 -29.64 L 21.39 -28.32 L 23.49 -28.94 L 24.70 -28.61 L 27.71 -25.79 L 22.49 23.64 L 23.33 24.78 L 24.26 25.27 L 24.96 25.10 L 26.51 23.93 L 26.97 24.00 L 28.25 26.49 L 29.24 27.59 L 30.48 29.90 L 31.18 30.49 L 32.68 30.87 L 33.16 30.75 L 33.87 27.99 L 34.72 27.12 L 36.36 27.06 L 37.70 27.82 L 40.16 31.49 L 42.27 34.00 L 44.09 37.34 L 45.52 39.25 L 46.97 42.07 L 47.73 42.70 L 50.27 44.07 L 52.51 46.34 L 52.94 47.54 L 53.37 50.18 L 52.01 53.19 L 51.63 53.10 L 50.58 51.98 L 48.86 51.38 L 48.30 50.90 L 47.84 49.37 L 46.91 48.37 L 45.27 45.63 L 45.34 45.23 L 46.09 44.73 L 46.20 44.42 L 45.72 43.20 L 44.99 42.49 L 44.86 42.64 L 45.21 43.63 L 45.08 43.83 L 44.00 44.24 L 43.31 44.27 L 42.59 44.70 L 42.08 43.95 L 41.74 43.94 L 41.63 44.27 L 41.89 45.77 L 41.31 46.66 L 40.87 46.44 L 40.87 44.59 L 40.10 42.96 L 40.33 41.84 L 40.64 41.92 L 41.40 42.97 L 41.76 42.27 L 41.43 41.16 L 43.11 41.39 L 44.00 42.16 L 44.42 41.41 L 42.64 40.62 L 42.54 40.34 L 42.77 39.70 L 41.82 37.46 L 41.16 36.57 L 40.42 36.05 L 41.25 37.66 L 41.38 39.25 L 40.11 41.68 L 39.89 41.66 L 38.18 34.28 L 38.84 34.57 L 38.94 34.34 L 38.00 32.66 L 37.53 30.81 L 36.87 29.65 L 36.73 29.70 L 37.35 33.09 L 37.94 34.45 L 37.94 35.59 L 36.74 34.53 L 35.88 34.81 L 35.57 32.50 L 35.19 31.79 L 34.39 32.20 L 33.13 31.55 L 34.67 33.09 L 35.29 34.17 L 35.30 34.54 L 34.54 34.89 L 33.09 34.56 L 32.59 34.81 L 30.84 33.29 L 29.13 30.79 L 25.42 28.49 L 26.29 27.23 L 26.05 26.42 L 24.61 27.24 L 23.49 27.44 L 21.02 25.89 L 18.86 25.03 L 17.79 24.94 L 15.20 25.35 L 14.02 24.18 L 12.09 23.21 L 10.58 22.10 L 8.47 23.18 L 8.46 21.89 L 9.59 21.84 L 10.58 21.38 L 9.58 21.06 L 9.05 20.63 L 8.83 19.25 L 7.45 19.56 L 5.87 19.42 L 5.04 20.22 L 5.02 20.83 L 5.67 21.23 L 5.76 21.49 L 5.18 22.71 L 5.43 23.26 L 5.01 24.49 L 4.11 23.78 L 2.88 24.15 L 2.11 23.62 L 0.06 24.59 L -1.18 25.94 L -2.48 26.38 L -3.07 26.83 L -4.51 26.87 L -6.01 26.35 L -6.02 26.02 L -5.20 25.16 L -3.58 24.69 L -2.77 23.79 L -3.72 24.30 L -4.81 24.29 L -5.05 24.03 L -4.50 22.35 L -2.91 20.64 L -2.76 18.31 L -1.15 18.03 L -0.05 17.27 L 0.52 18.15 L 1.44 17.98 L 2.50 18.87 L 2.98 18.81 L 2.86 18.40 L 1.34 17.32 L 1.22 16.92 L 1.61 16.28 L 1.49 15.89 L 1.01 16.32 L -0.47 15.91 L -2.13 16.97 L -3.46 17.39 L -3.60 17.63 L -3.38 18.51 L -4.20 18.51 L -4.94 19.31 L -6.68 21.97 L -7.66 22.75 L -9.69 23.51 L -11.24 24.91 L -11.36 25.17 L -11.19 25.46 L -9.72 26.50 L -9.79 27.44 L -10.15 28.17 L -11.57 28.93 L -12.81 30.47 L -17.87 32.69 L -19.15 33.96 L -20.22 34.54 L -20.45 35.25 L -22.56 35.72 L -24.31 36.47 L -26.13 36.75 L -26.35 37.08 L -25.90 37.73 L -27.15 39.08 L -29.20 38.92 L -30.90 40.20 L -30.81 39.18 L -31.01 38.94 L -32.81 39.72 L -34.14 39.67 L -35.70 39.92 L -35.84 39.44 L -35.27 38.72 L -35.84 38.38 L -36.25 38.61 L -37.32 40.07 L -38.55 40.63 L -40.02 40.39 L -42.00 41.29 L -43.57 40.80 L -45.48 41.14 L -46.12 41.05 L -46.47 40.76 L -46.44 40.09 L -44.85 38.55 L -44.13 38.92 L -40.37 38.91 L -37.05 36.70 L -34.94 36.33 L -34.11 36.44 L -33.29 37.34 L -32.78 37.45 L -31.70 36.17 L -29.85 34.94 L -27.07 34.09 L -26.54 34.57 L -25.71 33.25 L -24.39 31.97 L -23.23 31.21 L -22.18 31.00 L -21.39 28.44 L -21.32 27.38 L -20.23 26.10 L -19.10 25.50 L -18.58 24.95 L -19.10 24.81 L -21.98 25.48 L -22.55 24.79 L -22.80 23.77 L -23.05 23.60 L -23.38 24.01 L -23.64 25.52 L -24.32 26.05 L -25.15 23.32 L -25.97 23.10 L -27.11 21.40 L -27.59 21.53 L -28.17 22.67 L -28.94 23.37 L -29.84 22.35 L -30.88 22.62 L -31.36 22.47 L -31.45 21.74 L -30.27 20.81 L -30.51 18.83 L -29.33 17.55 L -29.13 13.97 L -29.34 13.80 L -30.25 14.26 L -32.08 14.48 L -33.61 13.88 L -33.87 13.37 L -33.95 11.88 L -35.51 8.84 L -35.37 8.44 L -34.14 8.09 L -33.54 7.23 L -33.75 5.95 L -34.13 5.86 L -34.35 5.55 L -34.33 4.46 L -34.64 3.90 L -34.40 3.51 L -34.34 2.16 L -33.97 1.59 L -32.40 0.45 L -30.59 -1.34 L -29.42 -1.49 L -28.22 -3.51 L -27.38 -4.29 L -25.88 -3.89 L -25.63 -3.44 L -25.60 -2.62 L -24.37 -1.95 L -22.62 -3.28 L -22.45 -3.69 L -22.59 -4.22 L -22.19 -4.61 L -21.78 -3.14 L -20.52 -2.71 L -19.48 -2.76 L -18.24 -4.52 L -18.01 -7.01 L -18.54 -7.59 L -18.50 -8.13 L -18.19 -8.22 L -17.55 -7.80 L -16.53 -8.71 L -16.80 -9.57 L -17.15 -9.85 L -18.12 -9.42 L -19.91 -9.43 L -21.21 -8.43 L -21.32 -9.13 L -21.84 -9.05 L -22.38 -10.08 L -24.09 -10.93 L -25.63 -11.10 L -27.15 -12.41 L -27.42 -12.99 L -27.21 -16.33 L -27.11 -16.43 L -27.02 -16.15 L -26.38 -15.94 L -26.00 -16.19 L -26.23 -16.81 L -27.92 -18.81 L -28.15 -19.40 L -28.07 -19.86 L -27.48 -20.19 L -22.43 -21.08 L -18.82 -21.18 L -17.79 -20.50 L -18.81 -19.30 L -19.18 -18.38 L -19.10 -18.12 L -17.32 -17.25 L -16.02 -16.14 L -14.91 -17.15 L -14.20 -16.77 L -13.81 -17.18 L -13.94 -17.53 L -14.68 -17.93 L -15.48 -17.83 L -14.73 -19.13 L -15.37 -20.40 L -15.39 -21.07 L -15.22 -21.35 L -14.66 -21.23 L -14.54 -20.38 L -14.28 -20.21 L -13.35 -20.84 L -13.72 -21.33 L -15.54 -22.07 L -16.74 -23.00 L -16.25 -24.89 L -16.24 -26.14 L -17.31 -29.46 L -17.92 -30.43 L -18.14 -31.27 L -18.12 -31.96 L -17.12 -32.87 L -16.26 -34.13 L -13.74 -32.99 L -11.70 -33.13 L -10.67 -33.65 L -8.89 -35.85 L -6.65 -37.58 L -5.86 -37.88 L -5.26 -37.36 L -4.22 -37.45 L -1.17 -39.09 L -0.79 -39.04 L -0.26 -38.50 L 1.53 -38.20 L 2.93 -38.78 L 4.14 -40.02 L 5.26 -39.03 L 5.51 -38.34 L 5.36 -37.98 L 4.40 -37.68 L 4.53 -36.85 Z" fill="#ffffff" stroke="#333333" stroke-width="1.0" />
      <path d="M 45.07 46.91 L 45.83 47.88 L 46.19 48.86 L 46.72 49.41 L 46.93 50.16 L 47.65 51.27 L 48.05 53.19 L 47.88 53.56 L 46.87 53.48 L 45.49 51.96 L 45.39 52.26 L 45.79 53.26 L 45.45 53.57 L 45.10 53.57 L 43.82 51.79 L 43.62 50.89 L 43.15 50.85 L 43.33 50.31 L 44.32 49.36 L 42.96 48.86 L 42.96 48.39 L 43.47 47.40 L 43.22 47.07 L 42.69 47.56 L 42.42 47.42 L 42.49 46.19 L 42.18 45.05 L 43.49 45.12 L 44.36 46.43 L 45.07 46.91 Z" fill="#ffffff" stroke="#333333" stroke-width="1.0" />
      <path d="M 38.67 40.29 L 39.14 42.65 L 39.36 46.18 L 39.01 45.86 L 38.22 44.12 L 37.37 42.82 L 37.39 41.22 L 37.01 40.46 L 36.73 41.46 L 36.02 41.98 L 36.14 41.01 L 35.88 39.18 L 34.13 36.65 L 34.08 35.99 L 34.86 35.39 L 35.92 35.00 L 38.29 36.49 L 38.51 38.80 L 38.44 39.40 L 38.18 39.61 L 38.67 40.29 Z" fill="#ffffff" stroke="#333333" stroke-width="1.0" />
      <path d="M -8.79 32.86 L -8.36 33.08 L -8.69 34.14 L -8.59 35.08 L -8.86 35.63 L -11.51 37.27 L -12.48 37.06 L -13.88 38.19 L -14.38 38.32 L -13.93 37.32 L -14.84 37.15 L -15.19 36.87 L -15.17 34.22 L -12.57 32.36 L -11.31 32.01 L -9.44 30.27 L -7.51 29.27 L -7.79 30.17 L -6.97 31.12 L -6.78 31.83 L -7.08 31.98 L -8.81 31.89 L -9.26 32.49 L -8.79 32.86 Z" fill="#ffffff" stroke="#333333" stroke-width="1.0" />
      <path d="M -38.97 -12.81 L -37.42 -12.85 L -37.10 -11.99 L -37.26 -11.17 L -36.33 -9.76 L -35.41 -9.09 L -35.47 -8.62 L -36.04 -8.52 L -37.10 -8.97 L -37.55 -8.72 L -37.83 -8.09 L -38.12 -8.22 L -38.20 -9.57 L -38.90 -11.83 L -39.41 -12.27 L -40.35 -12.00 L -40.81 -12.72 L -40.63 -13.65 L -39.81 -14.80 L -39.44 -13.46 L -38.97 -12.81 Z" fill="#ffffff" stroke="#333333" stroke-width="1.0" />
      <path d="M -37.00 8.89 L -36.66 9.04 L -36.49 9.42 L -37.02 11.45 L -38.82 11.32 L -39.84 10.16 L -40.47 8.81 L -40.52 8.23 L -40.32 7.85 L -39.31 8.65 L -38.20 8.26 L -37.22 8.37 L -37.00 8.89 Z" fill="#ffffff" stroke="#333333" stroke-width="1.0" />
      <path d="M -52.22 41.60 L -51.45 41.31 L -51.25 41.52 L -51.03 42.43 L -51.83 43.05 L -53.18 43.37 L -55.85 43.59 L -56.80 42.98 L -56.42 42.63 L -54.98 42.75 L -54.33 42.21 L -53.52 42.02 L -53.76 40.97 L -53.62 40.66 L -52.14 40.79 L -52.22 41.60 Z" fill="#ffffff" stroke="#333333" stroke-width="1.0" />
      <path d="M -61.12 43.59 L -60.14 43.28 L -59.14 42.07 L -58.18 42.23 L -57.76 41.30 L -56.76 41.29 L -56.31 41.81 L -56.83 42.56 L -58.04 42.84 L -59.21 43.59 L -61.12 43.59 Z" fill="#ffffff" stroke="#333333" stroke-width="1.0" />
      <path d="M -74.78 39.69 L -73.63 40.44 L -72.53 41.69 L -74.33 40.96 L -75.76 39.45 L -76.93 39.09 L -78.97 37.93 L -77.02 38.44 L -75.99 38.92 L -75.47 37.79 L -74.88 37.90 L -74.59 38.13 L -74.64 38.52 L -75.37 39.12 L -74.78 39.69 Z" fill="#ffffff" stroke="#333333" stroke-width="1.0" />
      <path d="M -82.00 36.17 L -82.24 36.56 L -81.59 37.37 L -81.58 37.65 L -83.73 37.42 L -83.79 36.92 L -83.59 36.55 L -82.76 36.26 L -82.55 35.81 L -81.90 36.03 L -82.00 36.17 Z" fill="#ffffff" stroke="#333333" stroke-width="1.0" />
    </g>
    <g class="state state-AL" data-state="AL" transform="translate(506.07,273.07)">
      <path d="M 23.51 10.12 L 24.14 14.27 L 24.25 16.91 L 25.31 19.96 L 25.83 23.41 L -4.80 28.44 L -5.19 28.83 L -5.29 30.26 L -3.98 35.48 L -8.23 37.12 L -8.88 37.16 L -9.38 36.54 L -9.35 34.30 L -9.73 33.32 L -10.56 32.53 L -11.66 32.45 L -12.13 32.77 L -12.39 33.50 L -12.36 37.39 L -12.65 38.28 L -13.73 38.98 L -16.23 39.30 L -17.64 28.60 L -19.39 18.01 L -19.48 -1.60 L -19.95 -30.48 L 10.34 -35.21 L 23.76 2.15 L 24.05 4.40 L 23.51 10.12 Z" fill="#ffffff" stroke="#333333" stroke-width="1.0" />
    </g>
    <g class="state state-AR" data-state="AR" transform="translate(432.94,250.08)">
      <path d="M 24.72 -27.27 L 25.88 -27.28 L 26.10 -26.26 L 25.79 -24.86 L 24.30 -21.33 L 24.18 -20.27 L 24.38 -19.43 L 24.79 -19.28 L 31.35 -20.10 L 30.10 -14.38 L 28.23 -12.15 L 27.68 -10.96 L 27.37 -9.01 L 27.25 -5.54 L 26.38 -2.74 L 25.27 -0.45 L 23.30 1.77 L 22.60 2.91 L 18.20 15.01 L 17.79 16.89 L 17.76 18.36 L 18.65 21.69 L 18.80 23.29 L 18.65 24.90 L 18.08 26.98 L -0.51 28.83 L -19.14 30.36 L -19.68 22.78 L -20.12 22.37 L -23.04 21.38 L -25.31 -13.74 L -25.70 -15.11 L -27.61 -19.54 L -28.61 -22.64 L -2.33 -24.57 L 24.72 -27.27 Z" fill="#ffffff" stroke="#333333" stroke-width="1.0" />
    </g>
    <g class="state state-AZ" data-state="AZ" transform="translate(195.52,252.27)">
      <path d="M 36.23 -37.92 L 27.41 50.50 L 1.34 47.32 L -20.22 33.02 L -42.54 17.55 L -43.16 17.29 L -42.84 17.33 L -40.97 13.06 L -40.64 11.59 L -40.55 9.26 L -40.09 7.80 L -39.19 6.43 L -36.02 2.93 L -35.17 1.31 L -34.64 -0.47 L -34.38 -2.51 L -34.39 -5.17 L -35.28 -11.99 L -35.37 -14.31 L -34.03 -22.43 L -33.49 -31.20 L -33.17 -32.96 L -32.27 -34.46 L -31.62 -34.97 L -31.05 -35.09 L -29.84 -34.46 L -28.47 -32.33 L -28.03 -31.97 L -26.94 -31.87 L -26.02 -32.53 L -25.09 -34.42 L -23.40 -40.30 L -22.45 -46.38 L 6.81 -41.72 L 36.23 -37.92 Z" fill="#ffffff" stroke="#333333" stroke-width="1.0" />
    </g>
    <g class="state state-CA" data-state="CA" transform="translate(109.41,190.91)">
      <path d="M 10.11 -12.48 L 29.45 16.07 L 40.00 30.92 L 50.89 45.77 L 50.78 48.79 L 51.74 56.68 L 51.72 59.11 L 51.42 61.15 L 50.89 62.81 L 50.09 64.30 L 46.93 67.80 L 45.98 69.26 L 45.55 70.66 L 45.48 72.92 L 45.23 74.14 L 43.28 78.70 L 13.97 75.40 L 12.13 69.66 L 9.92 65.03 L 1.21 52.66 L -0.72 50.22 L -2.90 48.16 L -6.79 45.58 L -11.32 42.05 L -18.91 38.43 L -20.10 37.38 L -21.01 35.98 L -21.56 34.06 L -21.84 28.87 L -22.90 23.85 L -27.36 13.83 L -29.20 8.27 L -32.14 2.51 L -32.55 1.24 L -32.52 0.17 L -32.20 -0.36 L -31.59 -0.46 L -30.21 0.18 L -29.57 0.22 L -29.05 -0.22 L -28.76 -1.39 L -28.72 -3.16 L -29.12 -4.68 L -29.79 -5.78 L -31.51 -7.18 L -32.67 -8.70 L -33.36 -10.44 L -33.65 -12.60 L -33.57 -15.16 L -33.15 -15.63 L -32.64 -15.62 L -32.19 -15.32 L -30.60 -13.02 L -30.00 -12.93 L -29.50 -13.50 L -29.08 -15.61 L -29.43 -20.94 L -29.97 -21.71 L -31.07 -22.15 L -31.64 -21.94 L -33.57 -20.26 L -34.27 -20.24 L -34.78 -20.73 L -36.16 -24.69 L -36.49 -27.52 L -36.93 -29.28 L -39.80 -35.27 L -40.49 -37.89 L -40.47 -40.26 L -39.38 -47.08 L -39.16 -50.88 L -39.47 -55.27 L -40.62 -62.17 L -40.66 -64.77 L -39.15 -69.28 L -36.54 -75.23 L -35.50 -78.11 L -35.14 -79.69 L -34.94 -82.69 L -34.48 -85.60 L -11.74 -78.80 L 11.22 -72.61 L 0.43 -27.78 L 0.55 -27.29 L 10.11 -12.48 Z" fill="#ffffff" stroke="#333333" stroke-width="1.0" />
    </g>
    <g class="state state-CO" data-state="CO" transform="translate(274.46,188.50)">
      <path d="M 19.82 -28.49 L 40.15 -27.64 L 40.45 -27.43 L 38.86 31.78 L 18.33 30.91 L -2.80 29.58 L -22.78 27.92 L -42.71 25.85 L -36.41 -33.15 L -8.34 -30.39 L 19.82 -28.49 Z" fill="#ffffff" stroke="#333333" stroke-width="1.0" />
    </g>
    <g class="state state-CT" data-state="CT" transform="translate(639.83,100.83)">
      <path d="M 6.82 -9.70 L 8.26 -4.51 L 10.40 1.69 L 6.69 2.86 L 4.02 4.29 L -6.70 12.51 L -7.46 11.63 L -7.65 10.83 L -6.29 8.24 L -6.20 6.04 L -6.78 3.85 L -8.30 -0.21 L -9.23 -4.21 L 6.82 -9.70 Z" fill="#ffffff" stroke="#333333" stroke-width="1.0" />
    </g>
    <g class="state state-DC" data-state="DC" transform="translate(603.08,155.31)">
      <path d="M 1.07 0.11 L 0.06 1.41 L -0.38 0.56 L -1.16 -0.24 L -0.65 -0.97 L -0.34 -1.07 L 1.03 -0.30 L 1.07 0.11 Z" fill="#ffffff" stroke="#333333" stroke-width="1.0" />
    </g>
    <g class="state state-DE" data-state="DE" transform="translate(622.06,149.53)">
      <path d="M -3.65 -11.66 L -3.41 -9.78 L -2.72 -8.27 L -1.69 -6.95 L -1.73 -5.81 L -1.44 -4.45 L -0.18 -2.02 L 0.60 -1.24 L 1.64 -0.64 L 5.36 0.24 L 6.67 1.43 L 7.14 3.20 L 6.92 6.14 L 0.04 8.10 L -0.36 8.13 L -0.53 7.94 L -4.97 -4.46 L -6.94 -9.07 L -6.40 -10.01 L -5.63 -10.80 L -4.69 -11.37 L -3.65 -11.66 Z" fill="#ffffff" stroke="#333333" stroke-width="1.0" />
    </g>
    <g class="state state-FL" data-state="FL" transform="translate(572.43,325.03)">
      <path d="M -40.53 -28.55 L -39.37 -27.73 L -36.75 -24.63 L -36.09 -24.40 L -6.63 -30.20 L -5.66 -30.18 L -3.75 -29.18 L -2.70 -29.13 L -2.02 -29.46 L -1.50 -30.15 L -0.50 -33.47 L 0.40 -33.97 L 1.82 -33.86 L 5.30 -32.19 L 7.01 -31.92 L 7.84 -25.51 L 8.51 -23.37 L 9.42 -21.63 L 15.16 -14.82 L 20.52 -9.94 L 22.76 -7.31 L 25.08 -3.82 L 28.66 3.46 L 34.41 11.15 L 34.50 12.10 L 34.06 12.76 L 33.42 12.91 L 32.66 12.39 L 29.99 9.21 L 28.03 6.45 L 23.28 -1.95 L 21.95 -3.00 L 21.09 -3.18 L 20.57 -3.05 L 20.56 -1.56 L 21.43 0.28 L 28.24 10.96 L 30.40 13.45 L 33.81 16.65 L 35.10 20.36 L 36.26 24.44 L 37.03 28.06 L 37.67 35.25 L 38.53 40.24 L 38.33 40.97 L 37.63 41.23 L 36.92 40.92 L 36.45 40.03 L 35.87 40.12 L 35.72 41.09 L 36.04 43.67 L 35.51 44.84 L 34.67 45.34 L 32.15 45.97 L 28.65 48.20 L 27.52 48.45 L 26.59 48.25 L 26.39 47.80 L 26.67 47.27 L 28.98 45.41 L 29.55 44.36 L 29.24 43.68 L 27.60 42.88 L 27.00 41.27 L 25.69 40.81 L 21.39 40.30 L 19.78 39.65 L 18.37 38.29 L 16.02 37.10 L 14.84 36.06 L 13.87 34.26 L 12.82 30.80 L 12.15 29.88 L 10.30 28.89 L 5.29 27.19 L 3.40 25.89 L 2.63 24.80 L -0.51 18.39 L -0.66 16.47 L -0.22 12.01 L -0.57 10.43 L -1.21 9.86 L -1.95 10.13 L -3.71 13.62 L -4.29 13.50 L -4.91 12.55 L -5.18 11.25 L -5.35 6.70 L -5.91 2.01 L -6.70 -1.25 L -7.76 -3.64 L -11.02 -8.29 L -13.79 -11.34 L -15.97 -13.06 L -19.23 -14.87 L -23.57 -18.35 L -25.49 -19.09 L -27.11 -18.45 L -28.72 -16.77 L -29.22 -15.63 L -29.51 -14.13 L -30.27 -13.08 L -31.20 -12.35 L -32.85 -12.11 L -41.90 -13.03 L -43.91 -13.42 L -45.76 -14.32 L -49.00 -16.89 L -52.99 -18.21 L -54.99 -18.23 L -55.75 -17.91 L -55.57 -17.40 L -53.62 -15.61 L -53.78 -15.04 L -54.59 -14.79 L -55.90 -14.97 L -59.19 -16.42 L -63.76 -16.38 L -66.91 -17.34 L -68.17 -17.24 L -70.35 -16.49 L -71.66 -21.71 L -71.59 -23.04 L -71.17 -23.53 L -40.53 -28.55 Z" fill="#ffffff" stroke="#333333" stroke-width="1.0" />
    </g>
    <g class="state state-GA" data-state="GA" transform="translate(549.10,267.69)">
      <path d="M -15.20 -32.98 L -4.07 -35.16 L -3.81 -32.34 L -3.50 -31.15 L -2.74 -29.73 L -1.68 -28.60 L 0.35 -27.30 L 6.64 -24.40 L 8.68 -22.09 L 10.52 -20.50 L 19.12 -14.97 L 23.39 -11.36 L 25.58 -10.00 L 26.38 -9.26 L 28.63 -5.50 L 31.53 1.85 L 30.83 3.43 L 30.39 5.11 L 30.17 8.56 L 29.72 10.34 L 29.55 12.20 L 29.63 17.27 L 30.34 25.43 L 28.63 25.15 L 25.15 23.49 L 23.74 23.37 L 22.83 23.88 L 21.84 27.20 L 21.31 27.89 L 20.63 28.21 L 19.58 28.16 L 17.67 27.16 L 16.71 27.15 L -12.75 32.94 L -13.42 32.71 L -16.04 29.61 L -17.20 28.79 L -17.73 25.34 L -18.78 22.28 L -18.90 19.56 L -19.49 15.94 L -18.99 9.88 L -19.17 7.90 L -32.70 -29.83 L -15.20 -32.98 Z" fill="#ffffff" stroke="#333333" stroke-width="1.0" />
    </g>
    <g class="state state-HI" data-state="HI" transform="translate(272.08,381.19)">
      <path d="M -2.80 -7.97 L -1.79 -7.84 L 0.13 -7.11 L 4.63 -4.74 L 5.44 -3.72 L 5.66 -2.29 L 6.30 -2.45 L 6.76 -2.31 L 7.37 -1.46 L 9.60 0.45 L 10.09 1.31 L 9.79 2.12 L 7.82 4.09 L 6.67 4.51 L 4.30 4.84 L 3.11 5.56 L 1.68 7.35 L 0.81 9.72 L -0.14 10.31 L -0.83 10.21 L -1.70 9.70 L -3.71 7.60 L -4.53 3.41 L -8.05 -2.28 L -7.82 -3.19 L -6.38 -4.83 L -6.08 -5.58 L -6.27 -6.56 L -7.38 -8.19 L -7.17 -9.87 L -5.97 -9.67 L -4.17 -8.31 L -2.80 -7.97 Z" fill="#ffffff" stroke="#333333" stroke-width="1.0" />
      <path d="M -17.76 -19.19 L -15.97 -19.96 L -15.21 -19.90 L -13.05 -18.50 L -11.03 -17.74 L -10.62 -16.99 L -10.75 -16.06 L -11.44 -15.39 L -13.69 -15.08 L -14.83 -14.36 L -15.63 -14.42 L -16.60 -15.35 L -17.44 -17.22 L -19.40 -17.38 L -20.06 -17.75 L -20.95 -19.41 L -21.00 -20.42 L -20.68 -20.86 L -20.10 -21.16 L -17.76 -19.19 Z" fill="#ffffff" stroke="#333333" stroke-width="1.0" />
      <path d="M -17.69 -13.28 L -19.10 -13.16 L -19.88 -13.75 L -18.73 -14.60 L -17.51 -13.51 L -17.45 -13.34 L -17.69 -13.28 Z" fill="#ffffff" stroke="#333333" stroke-width="1.0" />
      <path d="M -23.36 -16.66 L -24.22 -17.00 L -26.31 -19.19 L -24.40 -19.59 L -22.62 -18.56 L -22.15 -17.79 L -22.74 -16.96 L -23.36 -16.66 Z" fill="#ffffff" stroke="#333333" stroke-width="1.0" />
      <path d="M -24.02 -23.29 L -22.49 -23.24 L -22.28 -22.73 L -22.44 -22.17 L -22.90 -21.83 L -24.37 -21.48 L -27.43 -22.13 L -29.63 -21.72 L -30.03 -21.97 L -30.27 -22.77 L -30.19 -23.48 L -29.84 -23.90 L -27.21 -23.38 L -24.02 -23.29 Z" fill="#ffffff" stroke="#333333" stroke-width="1.0" />
      <path d="M -39.80 -29.38 L -38.36 -27.52 L -36.55 -26.04 L -36.13 -25.30 L -36.29 -24.87 L -37.42 -24.47 L -39.72 -25.26 L -42.23 -25.35 L -43.49 -26.70 L -44.88 -29.25 L -44.51 -29.57 L -43.04 -29.52 L -42.25 -30.99 L -41.42 -31.58 L -40.81 -31.19 L -40.47 -30.28 L -39.80 -29.38 Z" fill="#ffffff" stroke="#333333" stroke-width="1.0" />
      <path d="M -62.48 -34.22 L -65.17 -35.03 L -67.51 -37.08 L -67.36 -37.93 L -65.87 -39.49 L -64.69 -39.86 L -62.87 -39.93 L -61.89 -39.44 L -60.95 -38.57 L -61.12 -37.16 L -61.03 -35.30 L -61.54 -34.66 L -62.48 -34.22 Z" fill="#ffffff" stroke="#333333" stroke-width="1.0" />
      <path d="M -72.82 -33.21 L -73.13 -33.52 L -73.44 -34.62 L -72.48 -35.45 L -71.88 -36.83 L -71.44 -36.87 L -70.92 -36.25 L -70.98 -35.50 L -72.82 -33.21 Z" fill="#ffffff" stroke="#333333" stroke-width="1.0" />
    </g>
    <g class="state state-IA" data-state="IA" transform="translate(411.95,142.19)">
      <path d="M 34.08 2.41 L 33.29 2.83 L 30.83 3.47 L 29.91 4.67 L 29.66 5.91 L 29.82 9.01 L 29.57 10.83 L 28.76 13.50 L 26.85 18.13 L 25.93 23.08 L 24.42 22.87 L 22.02 21.22 L 20.68 20.80 L -2.93 22.76 L -24.88 24.13 L -25.56 21.83 L -26.05 14.68 L -26.58 11.77 L -29.21 3.45 L -32.94 -3.91 L -33.72 -6.32 L -33.93 -9.83 L -33.13 -16.23 L -33.08 -19.35 L -4.35 -21.03 L 24.29 -23.65 L 24.62 -17.99 L 24.98 -16.49 L 25.65 -15.08 L 26.64 -13.87 L 29.20 -11.86 L 30.41 -10.52 L 33.96 -8.34 L 35.15 -0.73 L 34.89 1.23 L 34.08 2.41 Z" fill="#ffffff" stroke="#333333" stroke-width="1.0" />
    </g>
    <g class="state state-ID" data-state="ID" transform="translate(184.92,95.73)">
      <path d="M 6.04 -22.26 L 5.68 -21.05 L 5.91 -20.25 L 7.09 -19.36 L 10.10 -18.02 L 11.04 -17.01 L 11.75 -15.71 L 12.34 -13.85 L 12.73 -11.67 L 13.25 -4.34 L 13.51 -3.67 L 14.07 -3.12 L 16.82 -1.97 L 18.98 0.03 L 20.24 0.68 L 28.56 1.90 L 29.90 1.93 L 30.91 1.67 L 33.72 -0.11 L 34.78 -0.51 L 36.17 -0.60 L 38.60 -0.30 L 33.04 41.61 L 16.08 39.09 L -0.32 36.35 L -17.09 33.21 L -33.26 29.87 L -26.11 -4.62 L -26.51 -6.27 L -26.38 -7.39 L -25.59 -8.92 L -23.35 -11.70 L -22.07 -13.64 L -20.15 -17.25 L -17.32 -21.74 L -16.23 -24.61 L -16.16 -25.55 L -16.39 -26.37 L -18.61 -27.37 L -19.86 -29.48 L -20.08 -30.71 L -10.75 -74.22 L -1.76 -72.26 L -4.04 -59.13 L -4.09 -57.75 L -2.85 -55.32 L -2.44 -51.31 L -1.05 -47.58 L 3.48 -39.32 L 7.07 -34.01 L 7.77 -28.43 L 7.55 -27.62 L 6.40 -25.82 L 6.36 -25.18 L 6.72 -24.03 L 6.04 -22.26 Z" fill="#ffffff" stroke="#333333" stroke-width="1.0" />
    </g>
    <g class="state state-IL" data-state="IL" transform="translate(463.84,167.73)">
      <path d="M 20.89 3.35 L 21.17 6.28 L 20.03 9.11 L 19.74 11.09 L 20.51 17.07 L 20.51 19.26 L 20.08 21.06 L 18.03 25.83 L 17.64 28.40 L 17.78 30.36 L 16.01 33.82 L 14.88 38.18 L 14.30 38.43 L 12.44 38.20 L 11.84 38.72 L 11.61 39.59 L 11.74 41.93 L 11.51 42.86 L 10.65 43.13 L 8.47 42.49 L 7.54 42.49 L 6.99 42.90 L 6.07 44.63 L 3.21 43.16 L 0.99 41.40 L -0.60 39.46 L -4.35 33.30 L -7.16 31.52 L -8.73 30.00 L -9.60 28.05 L -10.98 20.32 L -12.32 17.12 L -14.49 14.45 L -20.48 9.30 L -22.72 7.10 L -24.45 4.75 L -25.46 2.41 L -25.96 -0.53 L -25.78 -3.94 L -24.93 -7.75 L -23.17 -11.93 L -22.32 -14.71 L -22.07 -16.44 L -22.23 -19.37 L -22.03 -20.71 L -21.59 -21.58 L -21.10 -22.04 L -18.59 -22.71 L -17.80 -23.13 L -17.18 -23.90 L -16.84 -24.91 L -16.83 -27.58 L -17.93 -33.88 L 9.96 -37.75 L 10.94 -35.57 L 11.57 -31.48 L 12.13 -29.92 L 14.80 -27.54 L 15.67 -27.14 L 16.59 -27.02 L 20.89 3.35 Z" fill="#ffffff" stroke="#333333" stroke-width="1.0" />
    </g>
    <g class="state state-IN" data-state="IN" transform="translate(497.58,164.05)">
      <path d="M 11.38 -30.94 L 18.42 8.68 L 17.12 9.98 L 16.71 11.18 L 16.95 12.25 L 17.88 12.80 L 18.23 13.27 L 18.30 13.93 L 18.06 14.81 L 17.05 16.42 L 16.28 16.99 L 15.60 16.93 L 13.97 15.86 L 13.39 15.85 L 12.90 16.13 L 12.22 17.53 L 11.42 20.76 L 10.71 22.12 L 9.77 23.37 L 7.99 24.83 L 5.82 27.51 L 4.67 28.44 L 2.87 28.97 L 0.59 28.47 L -0.33 28.65 L -0.79 29.16 L -1.32 31.33 L -2.12 31.99 L -3.08 31.89 L -5.00 30.48 L -6.50 30.89 L -9.17 32.69 L -9.88 32.62 L -11.16 31.63 L -12.10 31.45 L -12.87 31.84 L -14.39 33.47 L -15.97 34.03 L -16.10 32.08 L -15.71 29.51 L -13.70 24.81 L -13.25 23.05 L -13.22 20.98 L -13.92 16.40 L -14.00 14.50 L -13.74 12.86 L -12.75 10.66 L -12.53 9.29 L -17.15 -23.34 L -15.09 -23.73 L -12.81 -24.83 L -11.67 -25.69 L -10.37 -27.46 L 11.00 -31.20 L 11.38 -30.94 Z" fill="#ffffff" stroke="#333333" stroke-width="1.0" />
    </g>
    <g class="state state-KS" data-state="KS" transform="translate(357.89,198.50)">
      <path d="M 44.00 -14.33 L 45.96 20.59 L 23.48 21.64 L 0.98 22.20 L -22.23 22.24 L -44.57 21.78 L -43.38 -22.43 L -24.06 -22.09 L -4.73 -22.15 L 14.59 -22.59 L 33.89 -23.43 L 36.01 -22.13 L 38.19 -19.83 L 40.02 -18.50 L 41.25 -16.65 L 43.45 -15.25 L 44.00 -14.33 Z" fill="#ffffff" stroke="#333333" stroke-width="1.0" />
    </g>
    <g class="state state-KY" data-state="KY" transform="translate(512.71,199.36)">
      <path d="M 29.66 -19.56 L 31.14 -17.44 L 34.78 -13.45 L 35.55 -11.27 L 36.77 -9.46 L 37.45 -7.59 L 35.20 -3.88 L 32.28 -1.24 L 30.82 2.38 L 28.65 4.27 L 27.14 6.18 L 26.00 8.64 L 25.67 10.93 L 7.85 14.31 L -10.03 17.36 L -27.98 20.10 L -45.98 22.51 L -45.80 20.02 L -43.07 15.52 L -42.69 14.18 L -42.80 13.00 L -41.97 11.41 L -41.54 10.95 L -40.96 10.81 L -38.28 11.50 L -37.38 11.25 L -37.15 10.50 L -37.27 8.09 L -37.04 7.09 L -36.43 6.57 L -34.57 6.80 L -33.98 6.53 L -32.94 2.38 L -31.25 -1.16 L -29.52 -1.84 L -28.00 -3.46 L -27.23 -3.85 L -26.29 -3.67 L -25.01 -2.68 L -24.30 -2.61 L -21.64 -4.41 L -20.13 -4.82 L -18.21 -3.42 L -17.25 -3.31 L -16.45 -3.97 L -15.92 -6.14 L -15.46 -6.65 L -14.59 -6.83 L -12.97 -6.37 L -12.10 -6.35 L -10.95 -6.62 L -10.01 -7.16 L -6.96 -10.68 L -5.34 -11.95 L -4.38 -13.24 L -3.71 -14.54 L -2.91 -17.77 L -2.21 -19.19 L -1.70 -19.46 L -1.12 -19.43 L 0.93 -18.27 L 1.64 -18.58 L 2.36 -19.47 L 3.04 -20.79 L 3.17 -21.78 L 2.81 -22.46 L 1.81 -23.07 L 1.59 -24.24 L 2.01 -25.34 L 3.20 -26.58 L 3.93 -26.71 L 7.82 -26.01 L 9.70 -25.13 L 13.60 -24.53 L 14.90 -23.91 L 16.87 -22.34 L 17.93 -21.91 L 22.86 -22.04 L 27.13 -21.43 L 28.46 -20.78 L 29.66 -19.56 Z" fill="#ffffff" stroke="#333333" stroke-width="1.0" />
    </g>
    <g class="state state-LA" data-state="LA" transform="translate(442.28,307.02)">
      <path d="M 6.40 0.90 L 28.55 -1.60 L 29.81 0.11 L 30.84 1.98 L 32.37 6.32 L 29.28 7.05 L 27.94 8.38 L 26.87 8.90 L 24.94 9.13 L 23.01 8.97 L 22.41 9.14 L 21.85 9.60 L 21.57 10.30 L 21.59 11.17 L 21.91 12.13 L 22.80 13.17 L 24.12 13.48 L 25.43 13.13 L 29.10 11.44 L 31.19 11.88 L 34.14 11.01 L 34.70 11.11 L 35.26 11.88 L 35.32 12.81 L 33.64 16.81 L 34.18 18.34 L 34.58 20.85 L 35.19 21.52 L 36.67 22.22 L 39.74 22.80 L 40.92 23.23 L 41.76 24.09 L 41.86 24.52 L 41.68 25.00 L 40.98 25.35 L 35.99 25.94 L 34.46 24.61 L 31.78 24.52 L 30.91 24.25 L 30.44 23.77 L 29.43 21.54 L 28.67 21.02 L 27.81 20.88 L 27.18 21.13 L 26.78 21.74 L 26.51 24.79 L 25.89 25.68 L 24.56 25.95 L 23.09 24.91 L 22.38 24.82 L 21.54 25.14 L 19.44 26.53 L 17.47 26.75 L 14.08 26.08 L 11.47 25.86 L 10.97 25.16 L 10.94 23.17 L 10.57 22.45 L 9.59 22.08 L 7.40 22.38 L 6.48 22.24 L 6.08 21.80 L 5.32 19.35 L 4.15 18.76 L 2.61 19.05 L -0.68 21.69 L -1.67 22.17 L -2.57 22.31 L -4.90 22.02 L -10.57 20.47 L -18.86 21.25 L -20.38 21.06 L -22.96 20.14 L -22.16 11.70 L -21.02 5.60 L -21.38 -0.10 L -22.11 -2.92 L -24.75 -6.82 L -25.98 -11.68 L -27.67 -14.33 L -28.48 -26.57 L -9.85 -28.10 L 8.74 -29.96 L 8.92 -27.40 L 10.44 -21.86 L 10.58 -19.34 L 9.53 -14.08 L 8.00 -10.24 L 7.36 -7.99 L 7.44 -4.16 L 5.90 -0.23 L 5.97 0.65 L 6.40 0.90 Z" fill="#ffffff" stroke="#333333" stroke-width="1.0" />
    </g>
    <g class="state state-MA" data-state="MA" transform="translate(646.87,87.80)">
      <path d="M 6.29 -10.78 L 7.64 -9.99 L 8.26 -8.90 L 8.20 -7.65 L 7.32 -4.63 L 7.35 -3.91 L 7.58 -3.51 L 7.94 -3.47 L 9.56 -4.08 L 10.44 -3.83 L 11.62 -2.90 L 14.20 0.04 L 15.71 0.85 L 16.65 0.57 L 17.27 0.14 L 17.32 -3.12 L 17.84 -3.83 L 18.14 -3.87 L 18.42 -3.60 L 19.23 -0.74 L 19.08 1.66 L 18.62 2.63 L 15.78 5.13 L 15.16 5.55 L 13.61 5.75 L 10.40 8.31 L 8.16 6.22 L 5.80 2.53 L 5.00 1.99 L 4.00 1.88 L -16.27 8.82 L -17.06 3.47 L -17.28 -1.21 L 0.59 -7.41 L 3.40 -9.59 L 6.29 -10.78 Z" fill="#ffffff" stroke="#333333" stroke-width="1.0" />
    </g>
    <g class="state state-MD" data-state="MD" transform="translate(606.39,153.45)">
      <path d="M 8.73 -12.99 L 10.60 -8.64 L 14.01 1.19 L 15.24 4.16 L 15.71 4.18 L 22.58 2.22 L 22.32 3.92 L 22.66 9.01 L 22.40 10.70 L 22.05 11.20 L 21.50 11.23 L 21.21 10.89 L 20.83 7.18 L 20.55 6.43 L 20.00 5.94 L 19.44 6.27 L 19.16 7.29 L 19.61 11.70 L 17.21 12.99 L 16.57 12.09 L 15.02 11.09 L 14.22 9.45 L 13.71 9.28 L 12.16 9.48 L 11.64 9.13 L 9.92 5.64 L 9.81 2.75 L 9.30 2.28 L 7.84 1.93 L 7.40 1.18 L 7.36 -0.41 L 8.14 -4.67 L 7.93 -5.60 L 6.99 -5.63 L 6.69 -6.03 L 7.71 -9.34 L 7.68 -10.26 L 7.28 -10.61 L 6.68 -10.42 L 5.59 -9.18 L 3.86 -8.09 L 3.60 -0.03 L 3.86 3.44 L 4.31 4.52 L 6.12 7.48 L 6.28 8.47 L 6.09 9.91 L 7.28 11.46 L 7.23 11.93 L 6.88 12.28 L 5.62 12.38 L 2.60 11.51 L -0.66 11.42 L -1.78 11.08 L -2.65 10.54 L -3.39 9.91 L -3.02 4.69 L -3.25 3.27 L -2.22 1.95 L -2.21 1.62 L -3.69 0.78 L -4.46 1.61 L -8.40 -0.95 L -10.37 -1.77 L -12.99 -1.86 L -16.03 -2.43 L -18.80 -1.99 L -21.83 -0.56 L -25.33 1.79 L -27.90 4.02 L -28.97 4.30 L -30.45 -2.15 L -10.18 -7.52 L 8.73 -12.99 Z" fill="#ffffff" stroke="#333333" stroke-width="1.0" />
    </g>
    <g class="state state-ME" data-state="ME" transform="translate(654.89,33.10)">
      <path d="M -11.64 -30.86 L -10.35 -30.73 L -8.16 -29.31 L -7.14 -28.99 L -6.58 -29.34 L -5.63 -31.38 L -4.04 -31.60 L -2.80 -33.10 L -2.07 -33.10 L -0.26 -32.44 L 1.95 -32.24 L 3.09 -31.75 L 12.21 -9.84 L 12.87 -9.25 L 14.86 -8.48 L 17.30 -5.92 L 20.41 -5.20 L 21.45 -4.65 L 22.45 -3.25 L 23.01 -1.11 L 23.03 1.19 L 21.74 3.04 L 19.16 8.48 L 17.88 10.22 L 17.12 10.74 L 16.38 10.85 L 15.72 10.55 L 14.57 9.45 L 13.55 9.47 L 13.01 10.27 L 12.87 12.66 L 12.14 13.31 L 11.33 13.17 L 9.49 12.04 L 8.96 12.02 L 8.57 12.32 L 8.24 13.17 L 8.16 14.20 L 8.40 15.35 L 9.07 16.80 L 9.36 19.39 L 9.14 20.79 L 8.61 21.72 L 7.74 22.63 L 4.43 24.68 L 3.26 25.64 L 1.25 28.88 L 0.09 29.97 L -0.25 33.01 L -1.83 37.36 L -1.96 40.04 L -3.67 39.79 L -4.65 39.18 L -15.73 8.93 L -15.08 8.36 L -14.67 7.31 L -13.90 3.28 L -13.32 -1.81 L -13.36 -5.14 L -14.52 -7.55 L -14.73 -8.48 L -14.16 -12.72 L -14.49 -15.60 L -13.60 -19.77 L -12.25 -29.66 L -12.01 -30.61 L -11.64 -30.86 Z" fill="#ffffff" stroke="#333333" stroke-width="1.0" />
    </g>
    <g class="state state-MI" data-state="MI" transform="translate(506.12,107.81)">
      <path d="M 10.45 -21.34 L 11.46 -16.99 L 11.51 -14.70 L 10.77 -11.19 L 8.73 -5.04 L 8.76 -3.80 L 9.15 -3.41 L 9.66 -3.41 L 10.78 -3.96 L 11.76 -4.77 L 13.22 -7.03 L 14.64 -11.09 L 15.16 -11.40 L 16.01 -11.26 L 17.89 -10.11 L 19.04 -8.75 L 19.75 -7.23 L 21.19 -2.91 L 24.20 1.79 L 24.79 3.02 L 24.43 6.70 L 24.10 7.13 L 22.51 8.20 L 21.56 9.43 L 20.96 11.18 L 20.57 14.56 L 20.09 15.41 L 18.86 16.68 L 18.27 17.94 L 17.65 20.56 L 17.61 23.10 L 2.99 26.10 L 2.82 25.23 L 2.49 25.04 L -18.90 28.78 L -17.48 26.23 L -16.20 23.11 L -15.66 20.76 L -15.56 18.50 L -15.99 15.47 L -17.80 7.72 L -20.40 1.38 L -20.68 -0.44 L -20.68 -2.35 L -18.82 -14.43 L -18.18 -16.26 L -16.30 -19.47 L -15.46 -21.68 L -14.80 -22.32 L -14.30 -22.17 L -14.88 -19.02 L -14.49 -16.83 L -14.20 -16.96 L -13.53 -18.31 L -13.09 -18.57 L -12.52 -18.27 L -12.11 -16.92 L -11.55 -17.16 L -11.10 -17.95 L -10.95 -19.27 L -11.64 -23.97 L -11.31 -24.50 L -10.29 -25.26 L -9.81 -26.07 L -9.28 -31.70 L -8.75 -32.72 L -8.04 -32.96 L -5.78 -32.38 L -1.01 -32.28 L 1.63 -31.87 L 3.00 -31.35 L 8.43 -28.47 L 9.67 -27.46 L 10.27 -26.38 L 10.21 -23.16 L 10.45 -21.34 Z" fill="#ffffff" stroke="#333333" stroke-width="1.0" />
      <path d="M -48.08 -46.46 L -45.93 -46.91 L -43.80 -46.63 L -42.01 -45.85 L -39.08 -44.01 L -34.33 -41.81 L -32.93 -41.79 L -31.92 -41.37 L -31.36 -41.57 L -30.46 -42.64 L -28.94 -42.21 L -28.23 -42.36 L -26.54 -44.31 L -25.65 -44.79 L -21.12 -45.38 L -17.97 -46.81 L -16.41 -46.83 L -14.15 -47.59 L -13.06 -47.68 L -12.16 -47.14 L -11.49 -45.36 L -10.73 -44.75 L -9.49 -44.68 L -6.10 -45.29 L -5.17 -45.15 L -4.28 -44.70 L -3.67 -44.10 L -3.21 -43.23 L -2.74 -40.79 L -0.75 -39.30 L -0.60 -38.85 L -1.08 -38.02 L -1.95 -37.61 L -5.66 -37.95 L -6.15 -37.39 L -6.68 -36.14 L -7.46 -35.78 L -8.33 -35.85 L -10.55 -36.70 L -13.80 -36.87 L -15.70 -36.67 L -18.78 -35.81 L -21.08 -35.41 L -22.56 -34.36 L -24.75 -31.35 L -26.55 -29.49 L -27.08 -29.77 L -27.15 -31.38 L -27.68 -31.86 L -28.39 -31.12 L -28.70 -29.80 L -29.01 -29.43 L -29.47 -29.51 L -30.61 -30.38 L -31.35 -30.40 L -32.07 -28.79 L -32.67 -24.42 L -35.04 -19.01 L -36.21 -19.75 L -37.61 -21.92 L -39.36 -27.29 L -39.90 -28.26 L -40.64 -28.98 L -44.95 -30.87 L -47.34 -31.17 L -59.06 -34.38 L -60.76 -35.66 L -64.08 -39.54 L -61.76 -42.02 L -58.18 -43.06 L -56.20 -44.35 L -49.81 -50.28 L -48.36 -51.96 L -46.98 -54.00 L -45.91 -54.57 L -45.43 -53.72 L -45.43 -51.83 L -45.97 -50.96 L -48.57 -47.99 L -48.84 -46.85 L -48.60 -46.56 L -48.08 -46.46 Z" fill="#ffffff" stroke="#333333" stroke-width="1.0" />
      <path d="M -57.15 -59.54 L -57.28 -59.86 L -56.79 -60.93 L -56.42 -62.66 L -55.50 -64.26 L -54.18 -65.16 L -52.07 -65.68 L -51.70 -65.61 L -51.57 -64.77 L -52.26 -63.71 L -54.97 -61.47 L -56.20 -59.88 L -57.15 -59.54 Z" fill="#ffffff" stroke="#333333" stroke-width="1.0" />
    </g>
    <g class="state state-MN" data-state="MN" transform="translate(399.55,77.63)">
      <path d="M -11.79 -45.60 L -10.13 -45.31 L -8.85 -44.48 L -8.02 -43.36 L -6.26 -40.04 L -5.47 -39.10 L -4.86 -38.71 L -1.26 -38.87 L 1.18 -38.67 L 5.57 -37.76 L 10.61 -36.41 L 13.72 -35.99 L 17.83 -35.97 L 22.55 -36.64 L 23.84 -36.61 L 24.82 -36.26 L 26.02 -35.43 L 28.83 -34.42 L 31.53 -33.01 L 36.52 -32.30 L 44.51 -29.95 L 42.84 -27.92 L 38.30 -25.79 L 35.11 -23.35 L 27.98 -16.10 L 21.13 -8.55 L 20.27 -7.07 L 19.84 -5.60 L 19.93 -1.03 L 19.72 0.31 L 18.95 1.80 L 16.96 4.36 L 16.35 6.50 L 16.35 11.80 L 16.05 18.15 L 16.41 20.40 L 17.18 22.26 L 18.66 24.06 L 24.08 28.19 L 28.30 32.22 L 29.40 32.84 L 32.23 33.87 L 33.99 35.17 L 35.05 36.38 L 35.85 37.73 L 36.35 39.10 L 36.68 40.92 L 8.04 43.53 L -20.68 45.21 L -21.62 36.88 L -21.83 26.21 L -22.16 21.89 L -23.12 17.63 L -25.06 13.81 L -25.47 12.51 L -25.52 10.73 L -24.95 6.94 L -25.17 3.57 L -27.56 -14.00 L -30.87 -27.71 L -31.88 -37.79 L -13.01 -38.62 L -12.71 -38.90 L -12.55 -39.73 L -12.86 -45.12 L -12.51 -45.53 L -11.79 -45.60 Z" fill="#ffffff" stroke="#333333" stroke-width="1.0" />
    </g>
    <g class="state state-MO" data-state="MO" transform="translate(428.25,197.08)">
      <path d="M -19.24 -32.13 L 4.43 -34.09 L 5.82 -33.61 L 8.09 -32.03 L 9.62 -31.81 L 9.65 -29.47 L 9.95 -27.54 L 10.65 -25.54 L 11.67 -23.74 L 14.42 -20.67 L 21.39 -14.61 L 23.53 -11.78 L 24.65 -8.86 L 25.96 -1.41 L 26.73 0.47 L 28.42 2.17 L 31.23 3.94 L 34.98 10.11 L 36.57 12.05 L 38.79 13.80 L 41.66 15.27 L 41.77 16.45 L 41.41 17.74 L 38.63 22.38 L 38.52 24.61 L 37.66 26.96 L 36.05 32.90 L 29.48 33.72 L 29.05 33.54 L 28.87 32.61 L 29.02 31.56 L 30.76 27.09 L 30.72 25.92 L 30.32 25.63 L 2.36 28.43 L -23.92 30.36 L -26.41 -13.12 L -27.20 -14.09 L -29.12 -15.24 L -30.35 -17.09 L -32.17 -18.41 L -34.39 -20.75 L -36.87 -22.39 L -39.88 -27.81 L -41.19 -30.77 L -19.24 -32.13 Z" fill="#ffffff" stroke="#333333" stroke-width="1.0" />
    </g>
    <g class="state state-MS" data-state="MS" transform="translate(470.17,278.57)">
      <path d="M 16.54 9.23 L 16.57 13.29 L 18.19 22.66 L 19.67 33.79 L 16.27 33.68 L 13.88 33.95 L 8.04 36.44 L 6.82 36.70 L 5.89 36.58 L 5.22 36.14 L 4.76 35.49 L 2.95 30.42 L 1.92 28.55 L 0.66 26.84 L -21.10 29.30 L -21.88 29.17 L -21.89 27.70 L -20.43 24.14 L -20.52 20.39 L -19.89 18.20 L -18.34 14.28 L -17.29 8.83 L -17.52 6.23 L -19.16 -0.16 L -19.18 -1.34 L -18.57 -3.66 L -18.44 -5.40 L -18.60 -6.91 L -19.43 -9.76 L -19.37 -12.05 L -18.57 -14.92 L -16.07 -21.28 L -14.69 -25.47 L -13.93 -26.72 L -11.78 -29.24 L -10.37 -32.62 L 15.95 -35.99 L 16.54 9.23 Z" fill="#ffffff" stroke="#333333" stroke-width="1.0" />
    </g>
    <g class="state state-MT" data-state="MT" transform="translate(242.62,63.45)">
      <path d="M -54.65 -38.97 L -26.78 -33.79 L 0.68 -29.72 L 28.31 -26.64 L 43.10 -25.40 L 57.92 -24.44 L 54.67 36.83 L 36.31 35.66 L 17.99 34.09 L -0.28 32.13 L -18.52 29.77 L -18.84 30.02 L -19.11 31.98 L -21.62 31.68 L -23.02 31.80 L -24.06 32.22 L -26.70 33.91 L -27.65 34.19 L -28.79 34.21 L -37.46 32.96 L -38.73 32.31 L -40.89 30.31 L -43.69 29.12 L -44.24 28.55 L -44.46 27.94 L -45.00 20.43 L -45.46 18.08 L -46.10 16.26 L -46.75 15.14 L -47.60 14.26 L -50.89 12.77 L -51.73 12.11 L -52.01 11.60 L -51.90 10.61 L -50.99 8.28 L -51.34 7.10 L -51.31 6.46 L -50.15 4.66 L -49.94 3.90 L -50.66 -1.80 L -54.22 -7.04 L -58.76 -15.30 L -60.14 -19.03 L -60.56 -23.04 L -61.79 -25.47 L -61.75 -26.85 L -59.46 -39.98 L -54.65 -38.97 Z" fill="#ffffff" stroke="#333333" stroke-width="1.0" />
    </g>
    <g class="state state-NC" data-state="NC" transform="translate(589.86,213.42)">
      <path d="M 44.49 -15.37 L 45.45 -15.38 L 46.38 -14.50 L 46.79 -13.53 L 47.04 -11.45 L 46.88 -10.52 L 46.03 -8.34 L 45.61 -7.70 L 45.12 -7.44 L 44.64 -7.62 L 44.52 -8.18 L 45.45 -10.80 L 45.48 -11.44 L 44.29 -14.81 L 44.49 -15.37 Z" fill="#ffffff" stroke="#333333" stroke-width="1.0" />
      <path d="M 42.35 -19.01 L 42.12 -18.20 L 41.74 -17.98 L 41.27 -18.03 L 40.15 -19.54 L 39.13 -20.00 L 38.23 -21.40 L 37.53 -21.78 L 36.80 -21.82 L 36.24 -21.53 L 35.00 -20.14 L 34.17 -18.75 L 33.50 -18.06 L 30.32 -16.09 L 30.23 -15.09 L 31.05 -14.67 L 32.30 -14.81 L 35.85 -15.77 L 37.43 -15.66 L 38.15 -15.08 L 38.83 -13.10 L 39.52 -12.62 L 40.30 -12.77 L 41.28 -13.90 L 41.83 -13.90 L 42.21 -13.38 L 42.58 -11.09 L 42.02 -10.45 L 40.19 -9.46 L 39.33 -7.69 L 38.80 -7.28 L 38.12 -7.36 L 37.28 -8.34 L 36.70 -8.52 L 36.24 -8.40 L 35.31 -7.55 L 34.28 -7.22 L 31.37 -6.77 L 29.48 -7.36 L 28.13 -7.49 L 27.35 -7.32 L 26.75 -6.88 L 26.41 -6.09 L 26.53 -5.53 L 27.26 -4.85 L 28.23 -4.40 L 30.00 -4.25 L 33.53 -5.06 L 34.22 -4.86 L 34.57 -4.17 L 34.50 -3.58 L 32.15 -0.26 L 31.72 0.80 L 31.70 1.56 L 32.13 1.98 L 32.83 1.92 L 35.10 0.52 L 35.74 0.33 L 36.18 1.18 L 36.01 2.34 L 35.06 3.95 L 33.80 5.12 L 27.31 8.84 L 25.37 10.27 L 24.23 11.70 L 22.54 14.99 L 21.56 16.44 L 15.27 22.28 L 0.97 12.04 L 0.04 11.97 L -13.37 15.18 L -13.98 15.03 L -14.47 14.59 L -16.30 11.52 L -16.83 10.93 L -17.35 10.71 L -17.68 11.02 L -18.07 12.82 L -18.35 13.26 L -18.78 12.93 L -19.48 11.30 L -20.54 10.98 L -34.16 14.01 L -34.93 14.45 L -36.62 16.06 L -38.96 16.29 L -41.17 18.08 L -42.40 18.61 L -55.96 21.29 L -55.95 19.78 L -55.58 18.39 L -54.91 17.12 L -53.90 15.88 L -52.17 14.46 L -48.07 12.11 L -45.65 10.37 L -43.58 8.26 L -40.08 3.29 L -36.29 1.03 L -34.06 -0.92 L -32.04 -4.94 L -31.77 -7.28 L -14.18 -11.33 L 3.32 -15.71 L 20.72 -20.40 L 38.01 -25.41 L 39.97 -22.88 L 40.82 -21.22 L 42.35 -19.01 Z" fill="#ffffff" stroke="#333333" stroke-width="1.0" />
      <path d="M 40.13 -0.66 L 40.54 -0.22 L 40.38 0.74 L 39.07 2.96 L 38.42 4.71 L 37.68 5.34 L 37.47 3.88 L 38.00 1.86 L 39.14 -0.14 L 39.64 -0.56 L 40.13 -0.66 Z" fill="#ffffff" stroke="#333333" stroke-width="1.0" />
    </g>
    <g class="state state-ND" data-state="ND" transform="translate(335.38,63.50)">
      <path d="M 39.10 22.33 L 19.99 22.81 L 0.89 22.85 L -18.22 22.45 L -37.30 21.62 L -34.84 -24.49 L -18.07 -23.74 L -1.29 -23.35 L 15.50 -23.33 L 32.29 -23.66 L 33.36 -13.24 L 36.12 -2.22 L 36.91 1.95 L 39.08 18.38 L 39.23 20.62 L 39.10 22.33 Z" fill="#ffffff" stroke="#333333" stroke-width="1.0" />
    </g>
    <g class="state state-NE" data-state="NE" transform="translate(341.93,152.83)">
      <path d="M 36.25 -17.26 L 37.08 -14.55 L 40.86 -7.06 L 43.44 1.13 L 43.97 4.04 L 44.45 11.09 L 44.88 12.80 L 46.63 16.80 L 49.20 21.50 L 49.85 22.24 L 30.55 23.08 L 11.23 23.52 L -8.09 23.57 L -27.41 23.24 L -27.00 8.37 L -27.13 8.09 L -47.65 7.19 L -46.11 -23.61 L -15.86 -22.40 L 14.72 -22.21 L 16.20 -21.78 L 18.88 -20.10 L 20.55 -19.73 L 22.17 -20.00 L 25.87 -21.76 L 27.28 -21.99 L 28.38 -21.77 L 29.47 -21.22 L 32.74 -18.49 L 34.19 -17.55 L 34.94 -17.29 L 36.25 -17.26 Z" fill="#ffffff" stroke="#333333" stroke-width="1.0" />
    </g>
    <g class="state state-NH" data-state="NH" transform="translate(640.93,66.15)">
      <path d="M -2.62 -24.39 L -1.78 -24.12 L 9.30 6.13 L 10.29 6.74 L 12.00 6.98 L 12.23 10.87 L 9.34 12.06 L 6.53 14.24 L -5.58 18.49 L -6.31 13.68 L -6.13 10.68 L -6.88 7.20 L -7.13 4.72 L -6.57 -1.19 L -7.12 -7.24 L -6.93 -8.05 L -5.93 -9.90 L -5.67 -11.23 L -5.78 -15.82 L -6.47 -18.70 L -6.53 -20.02 L -6.31 -21.65 L -5.99 -22.31 L -4.55 -22.95 L -3.72 -24.60 L -3.26 -24.67 L -2.62 -24.39 Z" fill="#ffffff" stroke="#333333" stroke-width="1.0" />
    </g>
    <g class="state state-NJ" data-state="NJ" transform="translate(624.90,129.58)">
      <path d="M 6.72 -5.92 L 7.02 3.90 L 6.78 9.41 L 6.37 12.32 L 5.66 15.20 L 4.97 17.06 L 4.29 17.38 L 3.16 16.98 L 0.83 15.26 L -3.59 13.88 L -5.37 11.97 L -6.37 9.79 L -6.52 8.35 L -4.43 4.82 L -3.79 2.27 L -3.93 0.80 L -4.44 -0.59 L -5.59 -2.30 L -7.67 -4.43 L -8.11 -6.14 L -7.90 -8.84 L -6.09 -14.58 L -5.57 -17.82 L -3.30 -16.58 L 1.22 -14.64 L 2.44 -13.80 L 4.20 -10.90 L 4.34 -8.04 L 4.71 -6.61 L 5.02 -6.31 L 5.34 -6.31 L 6.01 -7.23 L 6.36 -7.30 L 6.66 -6.90 L 6.72 -5.92 Z" fill="#ffffff" stroke="#333333" stroke-width="1.0" />
    </g>
    <g class="state state-NM" data-state="NM" transform="translate(262.81,256.99)">
      <path d="M 40.00 -37.10 L 39.71 -28.41 L 38.58 -28.46 L 38.29 -28.14 L 35.52 37.99 L 17.13 37.20 L -7.70 35.47 L -8.04 35.79 L -8.37 40.15 L -29.31 38.34 L -29.60 38.65 L -30.36 46.66 L -39.87 45.79 L -31.06 -42.63 L -13.35 -40.78 L 4.41 -39.24 L 22.19 -38.01 L 40.00 -37.10 Z" fill="#ffffff" stroke="#333333" stroke-width="1.0" />
    </g>
    <g class="state state-NV" data-state="NV" transform="translate(148.91,167.08)">
      <path d="M 23.78 41.28 L 23.23 44.82 L 21.70 50.20 L 21.11 51.82 L 20.45 52.83 L 19.58 53.35 L 18.58 53.23 L 18.15 52.86 L 16.78 50.74 L 15.58 50.11 L 14.49 50.59 L 13.58 51.87 L 13.14 53.80 L 12.54 63.12 L 11.39 69.60 L -1.96 51.32 L -14.80 33.04 L -27.13 14.78 L -38.96 -3.48 L -39.06 -4.09 L -28.28 -48.79 L -12.32 -44.88 L 3.79 -41.25 L 19.97 -37.93 L 36.22 -34.91 L 23.78 41.28 Z" fill="#ffffff" stroke="#333333" stroke-width="1.0" />
    </g>
    <g class="state state-NY" data-state="NY" transform="translate(604.04,90.62)">
      <path d="M 28.57 29.75 L 27.99 29.80 L 27.56 29.47 L 27.37 28.78 L 27.45 27.86 L 28.23 26.25 L 29.76 24.67 L 31.12 23.86 L 34.48 22.41 L 44.23 16.69 L 44.99 16.46 L 45.40 16.63 L 45.49 17.09 L 45.22 17.62 L 44.33 18.44 L 43.14 20.00 L 41.03 21.71 L 38.19 23.38 L 34.00 26.76 L 28.57 29.75 Z" fill="#ffffff" stroke="#333333" stroke-width="1.0" />
      <path d="M 2.57 -32.54 L 13.14 -36.18 L 13.80 -34.80 L 14.64 -31.79 L 15.00 -26.96 L 16.55 -23.01 L 17.16 -20.38 L 19.19 -16.78 L 20.23 -13.63 L 22.90 -10.43 L 23.67 -9.19 L 24.85 -5.47 L 25.61 -3.82 L 25.78 0.59 L 26.63 6.50 L 27.62 10.42 L 29.29 14.94 L 29.67 17.06 L 29.40 18.74 L 28.15 21.04 L 28.33 21.84 L 29.10 22.72 L 26.63 26.18 L 25.06 28.06 L 24.47 27.33 L 23.74 25.70 L 22.90 24.82 L 17.37 22.29 L 13.98 20.37 L 11.84 18.58 L 8.18 14.66 L 6.97 13.85 L 5.74 13.43 L -20.91 21.16 L -35.91 25.16 L -40.50 26.19 L -41.54 22.32 L -39.61 20.96 L -38.56 19.84 L -35.21 13.35 L -36.02 10.34 L -37.04 9.05 L -36.74 8.29 L -34.82 6.24 L -32.51 4.78 L -22.70 1.79 L -15.39 -1.20 L -13.85 -2.07 L -12.54 -3.18 L -11.49 -4.73 L -11.09 -6.39 L -11.36 -8.72 L -12.64 -12.62 L -11.96 -15.54 L -12.01 -17.85 L -11.58 -19.09 L -9.66 -21.78 L -4.45 -27.86 L 0.65 -32.33 L 1.28 -32.58 L 2.57 -32.54 Z" fill="#ffffff" stroke="#333333" stroke-width="1.0" />
    </g>
    <g class="state state-OH" data-state="OH" transform="translate(535.66,150.87)">
      <path d="M 19.85 -32.22 L 24.51 -12.41 L 23.72 -11.83 L 23.08 -10.83 L 22.15 -7.59 L 22.15 -5.37 L 22.96 1.21 L 22.77 3.17 L 22.23 5.50 L 20.34 10.69 L 19.66 11.33 L 17.36 12.57 L 16.49 13.56 L 15.93 15.07 L 14.95 19.73 L 14.58 20.01 L 13.81 20.13 L 12.91 19.99 L 11.77 19.46 L 11.15 19.76 L 10.54 20.90 L 9.69 24.50 L 6.71 28.92 L 5.52 27.71 L 4.18 27.05 L -0.09 26.44 L -5.02 26.57 L -6.08 26.14 L -8.05 24.57 L -9.35 23.95 L -13.25 23.35 L -15.12 22.48 L -18.98 21.78 L -19.66 21.86 L -26.56 -16.97 L -11.93 -19.97 L -11.66 -19.38 L -10.89 -18.79 L -9.62 -18.04 L -8.61 -17.72 L -2.82 -18.14 L -1.34 -18.07 L 0.19 -17.66 L 1.94 -17.93 L 6.04 -20.16 L 8.27 -21.71 L 10.28 -23.54 L 12.22 -25.84 L 16.80 -30.12 L 19.85 -32.22 Z" fill="#ffffff" stroke="#333333" stroke-width="1.0" />
    </g>
    <g class="state state-OK" data-state="OK" transform="translate(369.44,242.15)">
      <path d="M 38.22 -5.52 L 40.46 29.31 L 38.32 27.67 L 35.49 26.97 L 30.34 24.92 L 28.12 24.53 L 26.20 24.59 L 24.07 25.00 L 18.18 27.46 L 16.15 27.93 L 14.77 27.80 L 12.12 26.87 L 10.67 26.59 L 5.97 27.25 L 4.96 27.16 L 3.32 26.65 L -2.30 26.84 L -3.81 26.26 L -6.54 23.54 L -8.31 22.57 L -10.75 22.10 L -17.82 21.69 L -18.83 21.33 L -20.77 20.13 L -24.05 20.07 L -24.98 19.85 L -28.65 17.73 L -30.95 17.10 L -31.07 -12.09 L -31.21 -12.37 L -66.92 -13.58 L -66.64 -22.27 L -40.84 -21.51 L -15.69 -21.40 L 8.86 -21.91 L 34.41 -23.07 L 34.93 -14.51 L 36.17 -10.86 L 37.88 -6.98 L 38.22 -5.52 Z" fill="#ffffff" stroke="#333333" stroke-width="1.0" />
    </g>
    <g class="state state-OR" data-state="OR" transform="translate(121.31,88.00)">
      <path d="M 46.81 -15.15 L 41.22 -5.39 L 38.02 -1.20 L 37.23 0.34 L 37.10 1.45 L 37.50 3.11 L 30.35 37.60 L 10.44 33.04 L -8.59 28.23 L -27.92 22.88 L -46.38 17.31 L -46.52 9.25 L -46.22 7.26 L -45.60 5.22 L -43.74 1.52 L -39.10 -5.58 L -37.62 -8.29 L -34.09 -17.78 L -29.67 -27.65 L -28.53 -31.28 L -27.33 -36.42 L -26.38 -39.24 L -25.23 -41.26 L -23.79 -42.46 L -22.60 -42.45 L -21.33 -41.92 L -18.02 -38.81 L -17.13 -38.27 L -18.15 -33.56 L -16.64 -32.11 L -14.56 -30.99 L -11.49 -30.18 L -4.73 -29.25 L -1.73 -28.34 L 1.50 -28.26 L 6.53 -26.65 L 8.27 -26.29 L 9.92 -26.27 L 13.21 -26.82 L 18.24 -26.02 L 23.11 -26.31 L 24.71 -26.23 L 37.59 -23.10 L 43.62 -22.04 L 45.13 -19.50 L 46.86 -18.93 L 47.26 -18.57 L 47.43 -17.17 L 46.81 -15.15 Z" fill="#ffffff" stroke="#333333" stroke-width="1.0" />
    </g>
    <g class="state state-PA" data-state="PA" transform="translate(588.49,128.68)">
      <path d="M 28.94 -3.29 L 30.82 -1.40 L 31.96 0.31 L 32.53 1.99 L 32.56 3.78 L 31.85 5.98 L 29.92 9.19 L 28.88 9.49 L 27.94 10.06 L 27.17 10.85 L 26.62 11.79 L 0.98 19.10 L -24.67 25.60 L -32.98 -10.02 L -28.87 -13.60 L -26.00 -15.74 L -25.06 -12.01 L -24.71 -11.80 L -3.23 -17.49 L 21.37 -24.62 L 22.52 -24.21 L 23.63 -23.48 L 27.97 -18.93 L 30.83 -16.92 L 30.37 -13.90 L 28.36 -7.17 L 28.35 -4.84 L 28.60 -3.77 L 28.94 -3.29 Z" fill="#ffffff" stroke="#333333" stroke-width="1.0" />
    </g>
    <g class="state state-RI" data-state="RI" transform="translate(651.33,95.36)">
      <path d="M 5.94 0.75 L 5.27 2.09 L 4.60 2.42 L 4.21 2.37 L 3.12 1.04 L 2.68 0.94 L 2.31 1.12 L 1.66 2.26 L 2.21 4.37 L 2.13 4.98 L 0.86 6.29 L -1.11 7.16 L -3.25 0.96 L -4.69 -4.23 L -0.67 -5.64 L 0.72 -5.49 L 1.89 -4.37 L 3.79 -1.23 L 5.94 0.75 Z" fill="#ffffff" stroke="#333333" stroke-width="1.0" />
    </g>
    <g class="state state-SC" data-state="SC" transform="translate(576.92,241.27)">
      <path d="M 28.22 -5.57 L 25.46 -1.65 L 21.18 6.65 L 19.42 9.59 L 16.67 13.01 L 13.09 16.13 L 12.02 17.30 L 8.00 24.16 L 7.58 24.35 L 7.22 24.08 L 6.77 22.47 L 6.45 22.00 L 5.96 21.97 L 5.50 22.38 L 5.18 23.47 L 5.46 25.98 L 5.34 27.05 L 4.73 27.98 L 3.72 28.27 L 0.74 20.76 L -1.64 16.91 L -4.43 15.06 L -8.70 11.45 L -17.08 6.08 L -19.13 4.32 L -21.17 2.02 L -27.47 -0.89 L -29.50 -2.19 L -30.56 -3.31 L -31.32 -4.73 L -31.62 -5.92 L -31.89 -8.74 L -28.63 -9.53 L -25.90 -11.60 L -23.75 -11.75 L -21.99 -13.40 L -21.21 -13.84 L -7.59 -16.87 L -6.53 -16.55 L -5.84 -14.92 L -5.41 -14.59 L -5.12 -15.03 L -4.72 -16.88 L -4.37 -17.14 L -3.35 -16.33 L -1.56 -13.29 L -1.03 -12.82 L -0.45 -12.67 L 12.98 -15.88 L 13.91 -15.81 L 28.22 -5.57 Z" fill="#ffffff" stroke="#333333" stroke-width="1.0" />
    </g>
    <g class="state state-SD" data-state="SD" transform="translate(337.60,108.74)">
      <path d="M 36.88 -22.91 L 36.43 -20.38 L 36.50 -18.49 L 36.86 -17.36 L 38.24 -14.93 L 39.00 -12.98 L 39.63 -10.34 L 40.00 -7.23 L 40.34 5.77 L 41.29 14.86 L 41.19 17.47 L 40.43 23.49 L 40.58 26.83 L 39.26 26.81 L 38.52 26.54 L 37.07 25.60 L 33.79 22.87 L 32.71 22.33 L 31.60 22.10 L 30.19 22.33 L 26.50 24.09 L 24.88 24.36 L 23.21 23.99 L 20.52 22.31 L 19.05 21.88 L -11.53 21.69 L -41.79 20.48 L -39.52 -23.62 L -20.43 -22.79 L -1.33 -22.39 L 17.77 -22.43 L 36.88 -22.91 Z" fill="#ffffff" stroke="#333333" stroke-width="1.0" />
    </g>
    <g class="state state-TN" data-state="TN" transform="translate(505.32,227.11)">
      <path d="M 33.06 -16.83 L 52.77 -20.97 L 52.49 -18.63 L 50.48 -14.62 L 48.25 -12.66 L 44.46 -10.40 L 40.96 -5.43 L 38.89 -3.33 L 36.47 -1.58 L 32.37 0.77 L 30.64 2.19 L 29.63 3.43 L 28.96 4.70 L 28.59 6.09 L 28.58 7.59 L 10.61 10.83 L -8.30 13.88 L -26.18 16.43 L -45.52 18.84 L -45.09 17.15 L -45.01 13.95 L -44.70 12.01 L -44.16 10.81 L -42.27 8.54 L -41.05 2.97 L -39.41 -3.08 L -38.60 -5.25 L -20.59 -7.66 L -2.64 -10.40 L 15.24 -13.45 L 33.06 -16.83 Z" fill="#ffffff" stroke="#333333" stroke-width="1.0" />
    </g>
    <g class="state state-TX" data-state="TX" transform="translate(346.38,303.86)">
      <path d="M -43.86 -75.28 L -8.13 -74.06 L -7.97 -44.77 L -7.71 -44.48 L -5.45 -43.92 L -2.15 -41.94 L -1.04 -41.64 L 2.29 -41.58 L 4.30 -40.34 L 5.73 -39.92 L 12.06 -39.63 L 14.52 -39.21 L 16.46 -38.22 L 19.31 -35.41 L 21.06 -34.83 L 26.38 -35.06 L 28.03 -34.54 L 29.13 -34.46 L 33.73 -35.12 L 35.18 -34.83 L 37.83 -33.91 L 39.21 -33.78 L 41.24 -34.24 L 45.37 -36.09 L 47.43 -36.78 L 49.77 -37.16 L 52.10 -37.08 L 54.11 -36.55 L 58.86 -34.63 L 61.42 -34.02 L 63.46 -32.43 L 66.44 -31.40 L 66.88 -31.01 L 68.22 -11.20 L 70.09 -8.12 L 71.30 -3.34 L 73.91 0.49 L 74.53 3.06 L 74.89 8.76 L 73.74 14.86 L 72.95 23.30 L 71.27 23.25 L 69.60 23.68 L 58.93 28.74 L 58.52 29.24 L 58.35 30.71 L 57.99 31.59 L 55.36 34.34 L 53.13 38.06 L 51.90 39.22 L 48.34 41.79 L 44.46 45.41 L 42.64 46.36 L 41.71 46.40 L 41.07 46.15 L 40.89 45.85 L 40.97 45.28 L 42.24 42.64 L 41.80 41.94 L 40.94 41.87 L 39.42 42.86 L 35.39 46.41 L 33.85 48.66 L 32.85 49.74 L 31.92 50.36 L 29.50 51.39 L 28.47 52.32 L 27.59 54.15 L 27.69 56.28 L 26.11 61.18 L 25.81 63.01 L 26.01 64.53 L 27.25 68.86 L 26.72 75.36 L 27.06 77.03 L 28.41 80.96 L 28.52 82.04 L 28.34 82.73 L 27.10 82.95 L 25.87 82.73 L 21.65 80.57 L 13.28 77.80 L 9.65 75.88 L 6.85 73.55 L 4.97 71.07 L 1.75 64.22 L -2.25 58.10 L -3.80 56.29 L -8.37 51.79 L -11.25 48.28 L -12.46 46.12 L -14.70 40.35 L -17.11 35.42 L -17.88 34.17 L -20.02 31.82 L -21.40 30.80 L -23.90 29.73 L -30.66 27.64 L -36.10 25.29 L -38.51 24.93 L -41.48 25.04 L -43.59 25.63 L -45.15 27.04 L -46.11 28.96 L -47.57 33.68 L -48.38 35.06 L -49.30 36.07 L -51.29 36.30 L -54.26 36.14 L -56.27 35.66 L -57.70 34.90 L -60.61 32.21 L -66.23 27.97 L -68.16 26.07 L -69.21 24.52 L -70.18 22.48 L -71.88 16.64 L -72.92 13.89 L -74.06 11.60 L -75.31 9.69 L -77.74 6.91 L -81.64 3.54 L -85.45 -2.31 L -86.73 -3.90 L -88.03 -4.86 L -90.91 -5.86 L -91.94 -6.72 L -91.61 -11.09 L -91.27 -11.40 L -65.10 -9.59 L -48.34 -8.76 L -48.01 -8.93 L -45.29 -75.01 L -44.99 -75.33 L -43.86 -75.28 Z" fill="#ffffff" stroke="#333333" stroke-width="1.0" />
    </g>
    <g class="state state-UT" data-state="UT" transform="translate(205.54,176.17)">
      <path d="M 12.42 -38.83 L 10.49 -23.91 L 10.60 -23.62 L 32.51 -20.81 L 26.21 38.19 L -3.21 34.39 L -32.47 29.72 L -20.41 -44.00 L -4.54 -41.34 L 12.42 -38.83 Z" fill="#ffffff" stroke="#333333" stroke-width="1.0" />
    </g>
    <g class="state state-VA" data-state="VA" transform="translate(586.67,184.11)">
      <path d="M 13.38 -30.30 L 15.65 -28.67 L 16.23 -27.92 L 16.58 -27.01 L 16.69 -25.81 L 16.35 -23.02 L 16.35 -20.90 L 15.80 -20.20 L 15.63 -19.47 L 15.75 -18.73 L 16.36 -17.79 L 17.71 -16.74 L 19.78 -15.94 L 22.30 -15.39 L 26.23 -15.02 L 27.71 -14.59 L 29.24 -13.39 L 30.70 -10.93 L 30.83 -9.38 L 31.38 -7.08 L 31.26 -6.24 L 30.79 -5.97 L 30.18 -6.03 L 28.66 -7.19 L 28.05 -7.43 L 27.40 -7.21 L 27.19 -6.67 L 27.41 -6.06 L 27.93 -5.50 L 30.69 -4.03 L 31.00 -3.53 L 30.91 -3.11 L 30.42 -2.77 L 29.68 -2.73 L 27.17 -3.80 L 26.23 -3.94 L 25.31 -3.34 L 25.25 -2.90 L 25.51 -2.39 L 26.17 -1.94 L 28.17 -1.37 L 30.50 0.11 L 31.63 0.44 L 33.48 0.05 L 36.44 -1.67 L 37.62 -1.67 L 38.51 -1.09 L 39.30 -0.14 L 41.20 3.90 L 19.57 10.11 L -3.32 16.10 L -26.38 21.54 L -48.29 26.17 L -47.96 23.88 L -46.82 21.43 L -45.31 19.51 L -43.14 17.62 L -41.68 14.01 L -38.76 11.37 L -36.51 7.65 L -35.14 7.89 L -32.59 9.34 L -31.13 9.81 L -26.22 9.37 L -24.70 8.88 L -23.23 8.08 L -18.57 4.46 L -15.94 2.84 L -15.35 1.87 L -14.73 -0.17 L -15.05 -3.52 L -14.89 -4.60 L -12.13 -9.23 L -10.16 -15.09 L -9.74 -15.51 L -9.17 -15.53 L -7.54 -14.55 L -6.87 -14.36 L -6.07 -14.53 L -5.42 -14.98 L -4.64 -16.21 L -3.08 -19.98 L 0.12 -23.68 L 1.47 -26.97 L 2.34 -28.20 L 3.06 -28.49 L 4.48 -27.91 L 5.00 -28.03 L 6.69 -30.71 L 7.52 -32.49 L 8.81 -32.52 L 10.03 -32.22 L 13.38 -30.30 Z" fill="#ffffff" stroke="#333333" stroke-width="1.0" />
      <path d="M 38.42 -6.69 L 37.87 -6.78 L 37.45 -7.37 L 37.04 -9.20 L 36.46 -10.46 L 36.35 -12.17 L 36.97 -15.81 L 36.92 -17.67 L 39.33 -18.96 L 39.79 -15.87 L 39.82 -13.57 L 38.89 -7.36 L 38.42 -6.69 Z" fill="#ffffff" stroke="#333333" stroke-width="1.0" />
    </g>
    <g class="state state-VT" data-state="VT" transform="translate(627.97,65.58)">
      <path d="M 7.38 19.07 L 1.63 21.02 L 0.92 19.57 L -0.30 15.80 L -1.03 14.61 L -3.71 11.42 L -4.74 8.27 L -6.78 4.66 L -7.38 2.04 L -8.93 -1.92 L -9.42 -7.43 L -9.97 -9.34 L -10.80 -11.14 L 6.64 -17.49 L 7.19 -15.18 L 7.29 -10.51 L 7.03 -9.32 L 6.03 -7.47 L 5.84 -6.66 L 6.39 -0.61 L 5.83 5.30 L 6.08 7.77 L 6.83 11.25 L 6.65 14.25 L 7.38 19.07 Z" fill="#ffffff" stroke="#333333" stroke-width="1.0" />
    </g>
    <g class="state state-WA" data-state="WA" transform="translate(135.67,37.41)">
      <path d="M 32.98 9.50 L 29.42 26.26 L 29.16 27.74 L 29.26 28.55 L 23.23 27.50 L 10.14 24.34 L 3.88 24.57 L -1.15 23.77 L -4.59 24.34 L -6.45 24.25 L -12.69 22.37 L -14.25 22.17 L -16.10 22.25 L -19.36 21.29 L -26.90 20.21 L -29.87 19.17 L -31.43 18.15 L -32.53 16.95 L -31.49 12.33 L -31.22 12.18 L -31.07 11.70 L -31.23 10.74 L -31.85 9.51 L -32.88 8.23 L -34.00 7.37 L -38.90 5.25 L -39.73 4.36 L -40.12 3.44 L -40.05 2.83 L -39.59 2.58 L -38.10 3.46 L -37.66 3.46 L -37.09 2.81 L -36.69 1.81 L -36.58 0.35 L -37.70 -1.03 L -38.16 -2.19 L -38.23 -4.28 L -38.02 -5.00 L -37.59 -5.31 L -37.03 -5.25 L -36.22 -3.95 L -35.79 -3.72 L -35.17 -4.02 L -34.79 -4.74 L -35.14 -5.87 L -37.25 -7.31 L -37.54 -8.63 L -37.16 -13.97 L -38.26 -22.14 L -37.98 -23.56 L -36.54 -26.72 L -36.22 -26.85 L -35.23 -26.37 L -31.73 -23.64 L -28.84 -21.95 L -25.62 -19.12 L -24.44 -18.61 L -21.78 -17.98 L -21.07 -17.51 L -20.94 -16.87 L -21.31 -15.92 L -23.82 -13.42 L -24.94 -11.79 L -25.35 -10.79 L -25.11 -10.29 L -24.57 -10.37 L -21.81 -13.48 L -21.01 -13.91 L -20.44 -13.72 L -20.36 -12.21 L -20.84 -10.11 L -23.18 -5.80 L -23.20 -4.97 L -22.61 -4.61 L -21.48 -5.01 L -20.25 -6.46 L -18.23 -8.25 L -17.25 -9.81 L -15.17 -14.09 L -15.05 -15.33 L -15.49 -18.78 L -14.64 -21.73 L -14.77 -24.17 L -15.47 -27.68 L -15.33 -30.10 L 11.42 -22.51 L 38.50 -15.90 L 32.98 9.50 Z" fill="#ffffff" stroke="#333333" stroke-width="1.0" />
    </g>
    <g class="state state-WI" data-state="WI" transform="translate(446.10,99.33)">
      <path d="M 29.50 -5.45 L 26.46 5.00 L 25.68 8.93 L 25.26 12.66 L 25.05 18.80 L 25.26 22.13 L 25.72 24.49 L 27.70 30.65 L -0.19 34.53 L -3.74 32.34 L -4.95 31.01 L -7.62 28.88 L -8.66 27.51 L -9.52 24.87 L -9.83 19.52 L -10.15 17.56 L -10.84 15.74 L -11.97 14.08 L -14.14 12.27 L -17.14 11.14 L -18.24 10.52 L -22.47 6.49 L -27.80 2.44 L -29.29 0.68 L -30.14 -1.30 L -30.50 -3.69 L -30.14 -15.58 L -29.58 -17.33 L -27.59 -19.89 L -26.82 -21.39 L -26.62 -22.73 L -26.72 -27.22 L -26.32 -28.66 L -25.55 -30.06 L -22.93 -29.91 L -20.92 -30.43 L -19.18 -31.43 L -14.88 -34.75 L -13.58 -35.43 L -12.47 -35.74 L -11.93 -35.28 L -11.73 -34.53 L -12.77 -31.40 L -12.79 -30.78 L -12.49 -30.43 L -10.18 -29.66 L -7.80 -29.50 L -5.81 -29.96 L -4.06 -31.06 L -0.74 -27.18 L 0.96 -25.89 L 12.68 -22.68 L 15.30 -22.32 L 18.71 -20.89 L 19.89 -20.05 L 20.79 -18.48 L 22.35 -13.55 L 23.81 -11.27 L 24.98 -10.53 L 21.09 -3.24 L 20.52 -0.53 L 20.63 0.37 L 20.97 0.84 L 21.74 0.94 L 22.56 0.18 L 25.05 -3.27 L 27.06 -7.34 L 28.98 -10.52 L 29.63 -11.24 L 30.28 -11.54 L 30.74 -10.89 L 30.83 -9.52 L 29.50 -5.45 Z" fill="#ffffff" stroke="#333333" stroke-width="1.0" />
    </g>
    <g class="state state-WV" data-state="WV" transform="translate(564.42,170.20)">
      <path d="M 11.52 -18.90 L 12.99 -12.45 L 13.19 -12.40 L 14.13 -12.77 L 16.13 -14.57 L 18.52 -16.27 L 20.85 -17.72 L 22.67 -18.56 L 24.26 -19.03 L 25.74 -19.18 L 29.77 -18.58 L 28.94 -16.81 L 27.25 -14.12 L 26.79 -14.00 L 25.13 -14.58 L 24.18 -13.81 L 22.41 -9.85 L 19.16 -6.07 L 17.61 -2.30 L 16.83 -1.08 L 16.18 -0.62 L 15.38 -0.46 L 14.71 -0.65 L 13.12 -1.62 L 12.51 -1.60 L 12.14 -1.27 L 10.12 4.68 L 7.36 9.31 L 7.20 10.38 L 7.51 13.80 L 6.87 15.85 L 6.20 16.85 L 3.68 18.36 L -1.07 22.04 L -2.51 22.81 L -3.97 23.28 L -8.88 23.71 L -10.34 23.25 L -12.89 21.80 L -14.26 21.56 L -14.94 19.69 L -16.16 17.88 L -16.93 15.70 L -20.57 11.72 L -22.06 9.59 L -19.03 5.09 L -18.25 1.65 L -17.76 0.61 L -17.05 0.13 L -15.26 0.78 L -14.38 0.73 L -13.89 0.49 L -13.46 -0.70 L -12.80 -4.36 L -12.17 -5.97 L -11.20 -6.91 L -8.78 -8.24 L -7.95 -9.58 L -6.46 -14.07 L -5.89 -16.86 L -5.85 -19.18 L -6.67 -26.22 L -6.21 -28.80 L -5.27 -30.87 L -4.25 -31.74 L -0.60 -15.93 L 11.52 -18.90 Z" fill="#ffffff" stroke="#333333" stroke-width="1.0" />
    </g>
    <g class="state state-WY" data-state="WY" transform="translate(257.78,127.34)">
      <path d="M 39.52 -27.06 L 36.50 32.68 L 16.25 31.40 L -4.83 29.59 L -26.19 27.26 L -41.69 25.14 L -37.55 -7.26 L -33.87 -34.06 L -13.15 -31.49 L 3.98 -29.69 L 22.31 -28.15 L 39.52 -27.06 Z" fill="#ffffff" stroke="#333333" stroke-width="1.0" />
    </g>
  </g>
  <g class="labels">
    <text x="125.88" y="346.43" text-anchor="middle" dominant-baseline="middle" class="label label-AK" data-state="AK" style="font-size:9px;font-weight:bold;fill:black;">AK</text>
    <text x="506.07" y="273.07" text-anchor="middle" dominant-baseline="middle" class="label label-AL" data-state="AL" style="font-size:9px;font-weight:bold;fill:black;">AL</text>
    <text x="432.94" y="250.08" text-anchor="middle" dominant-baseline="middle" class="label label-AR" data-state="AR" style="font-size:9px;font-weight:bold;fill:black;">AR</text>
    <text x="195.52" y="252.27" text-anchor="middle" dominant-baseline="middle" class="label label-AZ" data-state="AZ" style="font-size:9px;font-weight:bold;fill:black;">AZ</text>
    <text x="109.41" y="190.91" text-anchor="middle" dominant-baseline="middle" class="label label-CA" data-state="CA" style="font-size:9px;font-weight:bold;fill:black;">CA</text>
    <text x="274.46" y="188.50" text-anchor="middle" dominant-baseline="middle" class="label label-CO" data-state="CO" style="font-size:9px;font-weight:bold;fill:black;">CO</text>
    <text x="639.83" y="100.83" text-anchor="middle" dominant-baseline="middle" class="label label-CT" data-state="CT" style="font-size:9px;font-weight:bold;fill:black;">CT</text>
    <text x="603.08" y="155.31" text-anchor="middle" dominant-baseline="middle" class="label label-DC" data-state="DC" style="font-size:9px;font-weight:bold;fill:black;">DC</text>
    <text x="622.06" y="149.53" text-anchor="middle" dominant-baseline="middle" class="label label-DE" data-state="DE" style="font-size:9px;font-weight:bold;fill:black;">DE</text>
    <text x="572.43" y="325.03" text-anchor="middle" dominant-baseline="middle" class="label label-FL" data-state="FL" style="font-size:9px;font-weight:bold;fill:black;">FL</text>
    <text x="549.10" y="267.69" text-anchor="middle" dominant-baseline="middle" class="label label-GA" data-state="GA" style="font-size:9px;font-weight:bold;fill:black;">GA</text>
    <text x="272.08" y="381.19" text-anchor="middle" dominant-baseline="middle" class="label label-HI" data-state="HI" style="font-size:9px;font-weight:bold;fill:black;">HI</text>
    <text x="411.95" y="142.19" text-anchor="middle" dominant-baseline="middle" class="label label-IA" data-state="IA" style="font-size:9px;font-weight:bold;fill:black;">IA</text>
    <text x="184.92" y="95.73" text-anchor="middle" dominant-baseline="middle" class="label label-ID" data-state="ID" style="font-size:9px;font-weight:bold;fill:black;">ID</text>
    <text x="463.84" y="167.73" text-anchor="middle" dominant-baseline="middle" class="label label-IL" data-state="IL" style="font-size:9px;font-weight:bold;fill:black;">IL</text>
    <text x="497.58" y="164.05" text-anchor="middle" dominant-baseline="middle" class="label label-IN" data-state="IN" style="font-size:9px;font-weight:bold;fill:black;">IN</text>
    <text x="357.89" y="198.50" text-anchor="middle" dominant-baseline="middle" class="label label-KS" data-state="KS" style="font-size:9px;font-weight:bold;fill:black;">KS</text>
    <text x="512.71" y="199.36" text-anchor="middle" dominant-baseline="middle" class="label label-KY" data-state="KY" style="font-size:9px;font-weight:bold;fill:black;">KY</text>
    <text x="442.28" y="307.02" text-anchor="middle" dominant-baseline="middle" class="label label-LA" data-state="LA" style="font-size:9px;font-weight:bold;fill:black;">LA</text>
    <text x="646.87" y="87.80" text-anchor="middle" dominant-baseline="middle" class="label label-MA" data-state="MA" style="font-size:9px;font-weight:bold;fill:black;">MA</text>
    <text x="606.39" y="153.45" text-anchor="middle" dominant-baseline="middle" class="label label-MD" data-state="MD" style="font-size:9px;font-weight:bold;fill:black;">MD</text>
    <text x="654.89" y="33.10" text-anchor="middle" dominant-baseline="middle" class="label label-ME" data-state="ME" style="font-size:9px;font-weight:bold;fill:black;">ME</text>
    <text x="506.12" y="107.81" text-anchor="middle" dominant-baseline="middle" class="label label-MI" data-state="MI" style="font-size:9px;font-weight:bold;fill:black;">MI</text>
    <text x="399.55" y="77.63" text-anchor="middle" dominant-baseline="middle" class="label label-MN" data-state="MN" style="font-size:9px;font-weight:bold;fill:black;">MN</text>
    <text x="428.25" y="197.08" text-anchor="middle" dominant-baseline="middle" class="label label-MO" data-state="MO" style="font-size:9px;font-weight:bold;fill:black;">MO</text>
    <text x="470.17" y="278.57" text-anchor="middle" dominant-baseline="middle" class="label label-MS" data-state="MS" style="font-size:9px;font-weight:bold;fill:black;">MS</text>
    <text x="242.62" y="63.45" text-anchor="middle" dominant-baseline="middle" class="label label-MT" data-state="MT" style="font-size:9px;font-weight:bold;fill:black;">MT</text>
    <text x="589.86" y="213.42" text-anchor="middle" dominant-baseline="middle" class="label label-NC" data-state="NC" style="font-size:9px;font-weight:bold;fill:black;">NC</text>
    <text x="335.38" y="63.50" text-anchor="middle" dominant-baseline="middle" class="label label-ND" data-state="ND" style="font-size:9px;font-weight:bold;fill:black;">ND</text>
    <text x="341.93" y="152.83" text-anchor="middle" dominant-baseline="middle" class="label label-NE" data-state="NE" style="font-size:9px;font-weight:bold;fill:black;">NE</text>
    <text x="640.93" y="66.15" text-anchor="middle" dominant-baseline="middle" class="label label-NH" data-state="NH" style="font-size:9px;font-weight:bold;fill:black;">NH</text>
    <text x="624.90" y="129.58" text-anchor="middle" dominant-baseline="middle" class="label label-NJ" data-state="NJ" style="font-size:9px;font-weight:bold;fill:black;">NJ</text>
    <text x="262.81" y="256.99" text-anchor="middle" dominant-baseline="middle" class="label label-NM" data-state="NM" style="font-size:9px;font-weight:bold;fill:black;">NM</text>
    <text x="148.91" y="167.08" text-anchor="middle" dominant-baseline="middle" class="label label-NV" data-state="NV" style="font-size:9px;font-weight:bold;fill:black;">NV</text>
    <text x="604.04" y="90.62" text-anchor="middle" dominant-baseline="middle" class="label label-NY" data-state="NY" style="font-size:9px;font-weight:bold;fill:black;">NY</text>
    <text x="535.66" y="150.87" text-anchor="middle" dominant-baseline="middle" class="label label-OH" data-state="OH" style="font-size:9px;font-weight:bold;fill:black;">OH</text>
    <text x="369.44" y="242.15" text-anchor="middle" dominant-baseline="middle" class="label label-OK" data-state="OK" style="font-size:9px;font-weight:bold;fill:black;">OK</text>
    <text x="121.31" y="88.00" text-anchor="middle" dominant-baseline="middle" class="label label-OR" data-state="OR" style="font-size:9px;font-weight:bold;fill:black;">OR</text>
    <text x="588.49" y="128.68" text-anchor="middle" dominant-baseline="middle" class="label label-PA" data-state="PA" style="font-size:9px;font-weight:bold;fill:black;">PA</text>
    <text x="651.33" y="95.36" text-anchor="middle" dominant-baseline="middle" class="label label-RI" data-state="RI" style="font-size:9px;font-weight:bold;fill:black;">RI</text>
    <text x="576.92" y="241.27" text-anchor="middle" dominant-baseline="middle" class="label label-SC" data-state="SC" style="font-size:9px;font-weight:bold;fill:black;">SC</text>
    <text x="337.60" y="108.74" text-anchor="middle" dominant-baseline="middle" class="label label-SD" data-state="SD" style="font-size:9px;font-weight:bold;fill:black;">SD</text>
    <text x="505.32" y="227.11" text-anchor="middle" dominant-baseline="middle" class="label label-TN" data-state="TN" style="font-size:9px;font-weight:bold;fill:black;">TN</text>
    <text x="346.38" y="303.86" text-anchor="middle" dominant-baseline="middle" class="label label-TX" data-state="TX" style="font-size:9px;font-weight:bold;fill:black;">TX</text>
    <text x="205.54" y="176.17" text-anchor="middle" dominant-baseline="middle" class="label label-UT" data-state="UT" style="font-size:9px;font-weight:bold;fill:black;">UT</text>
    <text x="586.67" y="184.11" text-anchor="middle" dominant-baseline="middle" class="label label-VA" data-state="VA" style="font-size:9px;font-weight:bold;fill:black;">VA</text>
    <text x="627.97" y="65.58" text-anchor="middle" dominant-baseline="middle" class="label label-VT" data-state="VT" style="font-size:9px;font-weight:bold;fill:black;">VT</text>
    <text x="135.67" y="37.41" text-anchor="middle" dominant-baseline="middle" class="label label-WA" data-state="WA" style="font-size:9px;font-weight:bold;fill:black;">WA</text>
    <text x="446.10" y="99.33" text-anchor="middle" dominant-baseline="middle" class="label label-WI" data-state="WI" style="font-size:9px;font-weight:bold;fill:black;">WI</text>
    <text x="564.42" y="170.20" text-anchor="middle" dominant-baseline="middle" class="label label-WV" data-state="WV" style="font-size:9px;font-weight:bold;fill:black;">WV</text>
    <text x="257.78" y="127.34" text-anchor="middle" dominant-baseline="middle" class="label label-WY" data-state="WY" style="font-size:9px;font-weight:bold;fill:black;">WY</text>
  </g>
</svg>