<?xml version='1.0' encoding='utf-8'?>
<svg version="1.1" xmlns="http://www.w3.org/2000/svg" width="720" height="400" viewBox="0 0 720 400" style="font-family:&quot;Lucida Grande&quot;, &quot;Lucida Sans Unicode&quot;, Arial, Helvetica, sans-serif;font-size:12px;">
  <desc>Created with render-graph4.py</desc>
  <rect fill="#ffffff" x="0" y="0" width="720" height="400" />
  <g class="states">
    <g class="state state-AK" data-state="AK" transform="translate(95.9,346.4)">
      <path d="M 4.5 -36.8 L 5.2 -37.1 L 6.0 -38.2 L 6.3 -38.2 L 6.8 -37.7 L 6.5 -36.6 L 6.9 -36.1 L 8.6 -36.1 L 10.2 -35.5 L 10.2 -35.2 L 9.6 -34.6 L 9.7 -34.1 L 10.8 -33.6 L 10.1 -33.2 L 14.5 -32.4 L 16.4 -31.2 L 17.3 -30.3 L 19.8 -29.6 L 21.4 -28.3 L 23.5 -28.9 L 24.7 -28.6 L 27.7 -25.8 L 22.5 23.6 L 23.3 24.8 L 24.3 25.3 L 25.0 25.1 L 26.5 23.9 L 27.0 24.0 L 28.2 26.5 L 29.2 27.6 L 30.5 29.9 L 31.2 30.5 L 32.7 30.9 L 33.2 30.8 L 33.9 28.0 L 34.7 27.1 L 36.4 27.1 L 37.7 27.8 L 40.2 31.5 L 42.3 34.0 L 44.1 37.3 L 45.5 39.3 L 47.0 42.1 L 47.7 42.7 L 50.3 44.1 L 52.5 46.3 L 52.9 47.5 L 53.4 50.2 L 52.0 53.2 L 51.6 53.1 L 50.6 52.0 L 48.9 51.4 L 48.3 50.9 L 47.8 49.4 L 46.9 48.4 L 45.3 45.6 L 45.3 45.2 L 46.1 44.7 L 46.2 44.4 L 45.7 43.2 L 45.0 42.5 L 44.9 42.6 L 45.2 43.6 L 45.1 43.8 L 44.0 44.2 L 43.3 44.3 L 42.6 44.7 L 42.1 43.9 L 41.7 43.9 L 41.6 44.3 L 41.9 45.8 L 41.3 46.7 L 40.9 46.4 L 40.9 44.6 L 40.1 43.0 L 40.3 41.8 L 40.6 41.9 L 41.4 43.0 L 41.8 42.3 L 41.4 41.2 L 43.1 41.4 L 44.0 42.2 L 44.4 41.4 L 42.6 40.6 L 42.5 40.3 L 42.8 39.7 L 41.8 37.5 L 41.2 36.6 L 40.4 36.1 L 41.3 37.7 L 41.4 39.3 L 40.1 41.7 L 39.9 41.7 L 38.2 34.3 L 38.8 34.6 L 38.9 34.3 L 38.0 32.7 L 37.5 30.8 L 36.9 29.6 L 36.7 29.7 L 37.3 33.1 L 37.9 34.4 L 37.9 35.6 L 36.7 34.5 L 35.9 34.8 L 35.6 32.5 L 35.2 31.8 L 34.4 32.2 L 33.1 31.6 L 34.7 33.1 L 35.3 34.2 L 35.3 34.5 L 34.5 34.9 L 33.1 34.6 L 32.6 34.8 L 30.8 33.3 L 29.1 30.8 L 25.4 28.5 L 26.3 27.2 L 26.1 26.4 L 24.6 27.2 L 23.5 27.4 L 21.0 25.9 L 18.9 25.0 L 17.8 24.9 L 15.2 25.3 L 14.0 24.2 L 12.1 23.2 L 10.6 22.1 L 8.5 23.2 L 8.5 21.9 L 9.6 21.8 L 10.6 21.4 L 9.6 21.1 L 9.0 20.6 L 8.8 19.3 L 7.4 19.6 L 5.9 19.4 L 5.0 20.2 L 5.0 20.8 L 5.7 21.2 L 5.8 21.5 L 5.2 22.7 L 5.4 23.3 L 5.0 24.5 L 4.1 23.8 L 2.9 24.1 L 2.1 23.6 L 0.1 24.6 L -1.2 25.9 L -2.5 26.4 L -3.1 26.8 L -4.5 26.9 L -6.0 26.3 L -6.0 26.0 L -5.2 25.2 L -3.6 24.7 L -2.8 23.8 L -3.7 24.3 L -4.8 24.3 L -5.0 24.0 L -4.5 22.3 L -2.9 20.6 L -2.8 18.3 L -1.2 18.0 L -0.1 17.3 L 0.5 18.1 L 1.4 18.0 L 2.5 18.9 L 3.0 18.8 L 2.9 18.4 L 1.3 17.3 L 1.2 16.9 L 1.6 16.3 L 1.5 15.9 L 1.0 16.3 L -0.5 15.9 L -2.1 17.0 L -3.5 17.4 L -3.6 17.6 L -3.4 18.5 L -4.2 18.5 L -4.9 19.3 L -6.7 22.0 L -7.7 22.7 L -9.7 23.5 L -11.2 24.9 L -11.4 25.2 L -11.2 25.5 L -9.7 26.5 L -9.8 27.4 L -10.1 28.2 L -11.6 28.9 L -12.8 30.5 L -17.9 32.7 L -19.2 34.0 L -20.2 34.5 L -20.4 35.3 L -22.6 35.7 L -24.3 36.5 L -26.1 36.8 L -26.4 37.1 L -25.9 37.7 L -27.1 39.1 L -29.2 38.9 L -30.9 40.2 L -30.8 39.2 L -31.0 38.9 L -32.8 39.7 L -34.1 39.7 L -35.7 39.9 L -35.8 39.4 L -35.3 38.7 L -35.8 38.4 L -36.3 38.6 L -37.3 40.1 L -38.5 40.6 L -40.0 40.4 L -42.0 41.3 L -43.6 40.8 L -45.5 41.1 L -46.1 41.0 L -46.5 40.8 L -46.4 40.1 L -44.9 38.5 L -44.1 38.9 L -40.4 38.9 L -37.0 36.7 L -34.9 36.3 L -34.1 36.4 L -33.3 37.3 L -32.8 37.5 L -31.7 36.2 L -29.9 34.9 L -27.1 34.1 L -26.5 34.6 L -25.7 33.2 L -24.4 32.0 L -23.2 31.2 L -22.2 31.0 L -21.4 28.4 L -21.3 27.4 L -20.2 26.1 L -19.1 25.5 L -18.6 25.0 L -19.1 24.8 L -22.0 25.5 L -22.6 24.8 L -22.8 23.8 L -23.1 23.6 L -23.4 24.0 L -23.6 25.5 L -24.3 26.1 L -25.2 23.3 L -26.0 23.1 L -27.1 21.4 L -27.6 21.5 L -28.2 22.7 L -28.9 23.4 L -29.8 22.3 L -30.9 22.6 L -31.4 22.5 L -31.4 21.7 L -30.3 20.8 L -30.5 18.8 L -29.3 17.5 L -29.1 14.0 L -29.3 13.8 L -30.2 14.3 L -32.1 14.5 L -33.6 13.9 L -33.9 13.4 L -34.0 11.9 L -35.5 8.8 L -35.4 8.4 L -34.1 8.1 L -33.5 7.2 L -33.7 6.0 L -34.1 5.9 L -34.3 5.6 L -34.3 4.5 L -34.6 3.9 L -34.4 3.5 L -34.3 2.2 L -34.0 1.6 L -32.4 0.5 L -30.6 -1.3 L -29.4 -1.5 L -28.2 -3.5 L -27.4 -4.3 L -25.9 -3.9 L -25.6 -3.4 L -25.6 -2.6 L -24.4 -1.9 L -22.6 -3.3 L -22.4 -3.7 L -22.6 -4.2 L -22.2 -4.6 L -21.8 -3.1 L -20.5 -2.7 L -19.5 -2.8 L -18.2 -4.5 L -18.0 -7.0 L -18.5 -7.6 L -18.5 -8.1 L -18.2 -8.2 L -17.5 -7.8 L -16.5 -8.7 L -16.8 -9.6 L -17.1 -9.9 L -18.1 -9.4 L -19.9 -9.4 L -21.2 -8.4 L -21.3 -9.1 L -21.8 -9.1 L -22.4 -10.1 L -24.1 -10.9 L -25.6 -11.1 L -27.2 -12.4 L -27.4 -13.0 L -27.2 -16.3 L -27.1 -16.4 L -27.0 -16.2 L -26.4 -15.9 L -26.0 -16.2 L -26.2 -16.8 L -27.9 -18.8 L -28.1 -19.4 L -28.1 -19.9 L -27.5 -20.2 L -22.4 -21.1 L -18.8 -21.2 L -17.8 -20.5 L -18.8 -19.3 L -19.2 -18.4 L -19.1 -18.1 L -17.3 -17.3 L -16.0 -16.1 L -14.9 -17.2 L -14.2 -16.8 L -13.8 -17.2 L -13.9 -17.5 L -14.7 -17.9 L -15.5 -17.8 L -14.7 -19.1 L -15.4 -20.4 L -15.4 -21.1 L -15.2 -21.3 L -14.7 -21.2 L -14.5 -20.4 L -14.3 -20.2 L -13.3 -20.8 L -13.7 -21.3 L -15.5 -22.1 L -16.7 -23.0 L -16.3 -24.9 L -16.2 -26.1 L -17.3 -29.5 L -17.9 -30.4 L -18.1 -31.3 L -18.1 -32.0 L -17.1 -32.9 L -16.3 -34.1 L -13.7 -33.0 L -11.7 -33.1 L -10.7 -33.7 L -8.9 -35.9 L -6.7 -37.6 L -5.9 -37.9 L -5.3 -37.4 L -4.2 -37.4 L -1.2 -39.1 L -0.8 -39.0 L -0.3 -38.5 L 1.5 -38.2 L 2.9 -38.8 L 4.1 -40.0 L 5.3 -39.0 L 5.5 -38.3 L 5.4 -38.0 L 4.4 -37.7 L 4.5 -36.8 Z" fill="#ffffff" stroke="#333333" stroke-width="1.0" />
      <path d="M 45.1 46.9 L 45.8 47.9 L 46.2 48.9 L 46.7 49.4 L 46.9 50.2 L 47.6 51.3 L 48.0 53.2 L 47.9 53.6 L 46.9 53.5 L 45.5 52.0 L 45.4 52.3 L 45.8 53.3 L 45.4 53.6 L 45.1 53.6 L 43.8 51.8 L 43.6 50.9 L 43.2 50.9 L 43.3 50.3 L 44.3 49.4 L 43.0 48.9 L 43.0 48.4 L 43.5 47.4 L 43.2 47.1 L 42.7 47.6 L 42.4 47.4 L 42.5 46.2 L 42.2 45.0 L 43.5 45.1 L 44.4 46.4 L 45.1 46.9 Z" fill="#ffffff" stroke="#333333" stroke-width="1.0" />
      <path d="M 38.7 40.3 L 39.1 42.6 L 39.4 46.2 L 39.0 45.9 L 38.2 44.1 L 37.4 42.8 L 37.4 41.2 L 37.0 40.5 L 36.7 41.5 L 36.0 42.0 L 36.1 41.0 L 35.9 39.2 L 34.1 36.7 L 34.1 36.0 L 34.9 35.4 L 35.9 35.0 L 38.3 36.5 L 38.5 38.8 L 38.4 39.4 L 38.2 39.6 L 38.7 40.3 Z" fill="#ffffff" stroke="#333333" stroke-width="1.0" />
      <path d="M -8.8 32.9 L -8.4 33.1 L -8.7 34.1 L -8.6 35.1 L -8.9 35.6 L -11.5 37.3 L -12.5 37.1 L -13.9 38.2 L -14.4 38.3 L -13.9 37.3 L -14.8 37.1 L -15.2 36.9 L -15.2 34.2 L -12.6 32.4 L -11.3 32.0 L -9.4 30.3 L -7.5 29.3 L -7.8 30.2 L -7.0 31.1 L -6.8 31.8 L -7.1 32.0 L -8.8 31.9 L -9.3 32.5 L -8.8 32.9 Z" fill="#ffffff" stroke="#333333" stroke-width="1.0" />
      <path d="M -39.0 -12.8 L -37.4 -12.8 L -37.1 -12.0 L -37.3 -11.2 L -36.3 -9.8 L -35.4 -9.1 L -35.5 -8.6 L -36.0 -8.5 L -37.1 -9.0 L -37.5 -8.7 L -37.8 -8.1 L -38.1 -8.2 L -38.2 -9.6 L -38.9 -11.8 L -39.4 -12.3 L -40.4 -12.0 L -40.8 -12.7 L -40.6 -13.6 L -39.8 -14.8 L -39.4 -13.5 L -39.0 -12.8 Z" fill="#ffffff" stroke="#333333" stroke-width="1.0" />
      <path d="M -37.0 8.9 L -36.7 9.0 L -36.5 9.4 L -37.0 11.5 L -38.8 11.3 L -39.8 10.2 L -40.5 8.8 L -40.5 8.2 L -40.3 7.8 L -39.3 8.7 L -38.2 8.3 L -37.2 8.4 L -37.0 8.9 Z" fill="#ffffff" stroke="#333333" stroke-width="1.0" />
      <path d="M -52.2 41.6 L -51.4 41.3 L -51.3 41.5 L -51.0 42.4 L -51.8 43.1 L -53.2 43.4 L -55.9 43.6 L -56.8 43.0 L -56.4 42.6 L -55.0 42.8 L -54.3 42.2 L -53.5 42.0 L -53.8 41.0 L -53.6 40.7 L -52.1 40.8 L -52.2 41.6 Z" fill="#ffffff" stroke="#333333" stroke-width="1.0" />
      <path d="M -61.1 43.6 L -60.1 43.3 L -59.1 42.1 L -58.2 42.2 L -57.8 41.3 L -56.8 41.3 L -56.3 41.8 L -56.8 42.6 L -58.0 42.8 L -59.2 43.6 L -61.1 43.6 Z" fill="#ffffff" stroke="#333333" stroke-width="1.0" />
      <path d="M -74.8 39.7 L -73.6 40.4 L -72.5 41.7 L -74.3 41.0 L -75.8 39.5 L -76.9 39.1 L -79.0 37.9 L -77.0 38.4 L -76.0 38.9 L -75.5 37.8 L -74.9 37.9 L -74.6 38.1 L -74.6 38.5 L -75.4 39.1 L -74.8 39.7 Z" fill="#ffffff" stroke="#333333" stroke-width="1.0" />
      <path d="M -82.0 36.2 L -82.2 36.6 L -81.6 37.4 L -81.6 37.7 L -83.7 37.4 L -83.8 36.9 L -83.6 36.5 L -82.8 36.3 L -82.5 35.8 L -81.9 36.0 L -82.0 36.2 Z" fill="#ffffff" stroke="#333333" stroke-width="1.0" />
    </g>
    <g class="state state-AL" data-state="AL" transform="translate(476.1,273.1)">
      <path d="M 23.5 10.1 L 24.1 14.3 L 24.3 16.9 L 25.3 20.0 L 25.8 23.4 L -4.8 28.4 L -5.2 28.8 L -5.3 30.3 L -4.0 35.5 L -8.2 37.1 L -8.9 37.2 L -9.4 36.5 L -9.4 34.3 L -9.7 33.3 L -10.6 32.5 L -11.7 32.5 L -12.1 32.8 L -12.4 33.5 L -12.4 37.4 L -12.6 38.3 L -13.7 39.0 L -16.2 39.3 L -17.6 28.6 L -19.4 18.0 L -19.5 -1.6 L -19.9 -30.5 L 10.3 -35.2 L 23.8 2.2 L 24.0 4.4 L 23.5 10.1 Z" fill="#ffffff" stroke="#333333" stroke-width="1.0" />
    </g>
    <g class="state state-AR" data-state="AR" transform="translate(402.9,250.1)">
      <path d="M 24.7 -27.3 L 25.9 -27.3 L 26.1 -26.3 L 25.8 -24.9 L 24.3 -21.3 L 24.2 -20.3 L 24.4 -19.4 L 24.8 -19.3 L 31.4 -20.1 L 30.1 -14.4 L 28.2 -12.2 L 27.7 -11.0 L 27.4 -9.0 L 27.2 -5.5 L 26.4 -2.7 L 25.3 -0.4 L 23.3 1.8 L 22.6 2.9 L 18.2 15.0 L 17.8 16.9 L 17.8 18.4 L 18.7 21.7 L 18.8 23.3 L 18.6 24.9 L 18.1 27.0 L -0.5 28.8 L -19.1 30.4 L -19.7 22.8 L -20.1 22.4 L -23.0 21.4 L -25.3 -13.7 L -25.7 -15.1 L -27.6 -19.5 L -28.6 -22.6 L -2.3 -24.6 L 24.7 -27.3 Z" fill="#ffffff" stroke="#333333" stroke-width="1.0" />
    </g>
    <g class="state state-AZ" data-state="AZ" transform="translate(165.5,252.3)">
      <path d="M 36.2 -37.9 L 27.4 50.5 L 1.3 47.3 L -20.2 33.0 L -42.5 17.5 L -43.2 17.3 L -42.8 17.3 L -41.0 13.1 L -40.6 11.6 L -40.6 9.3 L -40.1 7.8 L -39.2 6.4 L -36.0 2.9 L -35.2 1.3 L -34.6 -0.5 L -34.4 -2.5 L -34.4 -5.2 L -35.3 -12.0 L -35.4 -14.3 L -34.0 -22.4 L -33.5 -31.2 L -33.2 -33.0 L -32.3 -34.5 L -31.6 -35.0 L -31.0 -35.1 L -29.8 -34.5 L -28.5 -32.3 L -28.0 -32.0 L -26.9 -31.9 L -26.0 -32.5 L -25.1 -34.4 L -23.4 -40.3 L -22.4 -46.4 L 6.8 -41.7 L 36.2 -37.9 Z" fill="#ffffff" stroke="#333333" stroke-width="1.0" />
    </g>
    <g class="state state-CA" data-state="CA" transform="translate(79.4,190.9)">
      <path d="M 10.1 -12.5 L 29.5 16.1 L 40.0 30.9 L 50.9 45.8 L 50.8 48.8 L 51.7 56.7 L 51.7 59.1 L 51.4 61.2 L 50.9 62.8 L 50.1 64.3 L 46.9 67.8 L 46.0 69.3 L 45.6 70.7 L 45.5 72.9 L 45.2 74.1 L 43.3 78.7 L 14.0 75.4 L 12.1 69.7 L 9.9 65.0 L 1.2 52.7 L -0.7 50.2 L -2.9 48.2 L -6.8 45.6 L -11.3 42.1 L -18.9 38.4 L -20.1 37.4 L -21.0 36.0 L -21.6 34.1 L -21.8 28.9 L -22.9 23.8 L -27.4 13.8 L -29.2 8.3 L -32.1 2.5 L -32.6 1.2 L -32.5 0.2 L -32.2 -0.4 L -31.6 -0.5 L -30.2 0.2 L -29.6 0.2 L -29.0 -0.2 L -28.8 -1.4 L -28.7 -3.2 L -29.1 -4.7 L -29.8 -5.8 L -31.5 -7.2 L -32.7 -8.7 L -33.4 -10.4 L -33.6 -12.6 L -33.6 -15.2 L -33.1 -15.6 L -32.6 -15.6 L -32.2 -15.3 L -30.6 -13.0 L -30.0 -12.9 L -29.5 -13.5 L -29.1 -15.6 L -29.4 -20.9 L -30.0 -21.7 L -31.1 -22.1 L -31.6 -21.9 L -33.6 -20.3 L -34.3 -20.2 L -34.8 -20.7 L -36.2 -24.7 L -36.5 -27.5 L -36.9 -29.3 L -39.8 -35.3 L -40.5 -37.9 L -40.5 -40.3 L -39.4 -47.1 L -39.2 -50.9 L -39.5 -55.3 L -40.6 -62.2 L -40.7 -64.8 L -39.2 -69.3 L -36.5 -75.2 L -35.5 -78.1 L -35.1 -79.7 L -34.9 -82.7 L -34.5 -85.6 L -11.7 -78.8 L 11.2 -72.6 L 0.4 -27.8 L 0.6 -27.3 L 10.1 -12.5 Z" fill="#ffffff" stroke="#333333" stroke-width="1.0" />
    </g>
    <g class="state state-CO" data-state="CO" transform="translate(244.5,188.5)">
      <path d="M 19.8 -28.5 L 40.1 -27.6 L 40.5 -27.4 L 38.9 31.8 L 18.3 30.9 L -2.8 29.6 L -22.8 27.9 L -42.7 25.9 L -36.4 -33.1 L -8.3 -30.4 L 19.8 -28.5 Z" fill="#ffffff" stroke="#333333" stroke-width="1.0" />
    </g>
    <g class="state state-CT" data-state="CT" transform="translate(609.8,100.8)">
      <path d="M 6.8 -9.7 L 8.3 -4.5 L 10.4 1.7 L 6.7 2.9 L 4.0 4.3 L -6.7 12.5 L -7.5 11.6 L -7.6 10.8 L -6.3 8.2 L -6.2 6.0 L -6.8 3.8 L -8.3 -0.2 L -9.2 -4.2 L 6.8 -9.7 Z" fill="#ffffff" stroke="#333333" stroke-width="1.0" />
    </g>
    <g class="state state-DC" data-state="DC" transform="translate(573.1,155.3)">
      <path d="M 1.1 0.1 L 0.1 1.4 L -0.4 0.6 L -1.2 -0.2 L -0.7 -1.0 L -0.3 -1.1 L 1.0 -0.3 L 1.1 0.1 Z" fill="#ffffff" stroke="#333333" stroke-width="1.0" />
    </g>
    <g class="state state-DE" data-state="DE" transform="translate(592.1,149.5)">
      <path d="M -3.7 -11.7 L -3.4 -9.8 L -2.7 -8.3 L -1.7 -6.9 L -1.7 -5.8 L -1.4 -4.5 L -0.2 -2.0 L 0.6 -1.2 L 1.6 -0.6 L 5.4 0.2 L 6.7 1.4 L 7.1 3.2 L 6.9 6.1 L 0.0 8.1 L -0.4 8.1 L -0.5 7.9 L -5.0 -4.5 L -6.9 -9.1 L -6.4 -10.0 L -5.6 -10.8 L -4.7 -11.4 L -3.7 -11.7 Z" fill="#ffffff" stroke="#333333" stroke-width="1.0" />
    </g>
    <g class="state state-FL" data-state="FL" transform="translate(542.4,325.0)">
      <path d="M -40.5 -28.6 L -39.4 -27.7 L -36.8 -24.6 L -36.1 -24.4 L -6.6 -30.2 L -5.7 -30.2 L -3.8 -29.2 L -2.7 -29.1 L -2.0 -29.5 L -1.5 -30.1 L -0.5 -33.5 L 0.4 -34.0 L 1.8 -33.9 L 5.3 -32.2 L 7.0 -31.9 L 7.8 -25.5 L 8.5 -23.4 L 9.4 -21.6 L 15.2 -14.8 L 20.5 -9.9 L 22.8 -7.3 L 25.1 -3.8 L 28.7 3.5 L 34.4 11.2 L 34.5 12.1 L 34.1 12.8 L 33.4 12.9 L 32.7 12.4 L 30.0 9.2 L 28.0 6.5 L 23.3 -1.9 L 21.9 -3.0 L 21.1 -3.2 L 20.6 -3.0 L 20.6 -1.6 L 21.4 0.3 L 28.2 11.0 L 30.4 13.5 L 33.8 16.6 L 35.1 20.4 L 36.3 24.4 L 37.0 28.1 L 37.7 35.3 L 38.5 40.2 L 38.3 41.0 L 37.6 41.2 L 36.9 40.9 L 36.4 40.0 L 35.9 40.1 L 35.7 41.1 L 36.0 43.7 L 35.5 44.8 L 34.7 45.3 L 32.2 46.0 L 28.7 48.2 L 27.5 48.4 L 26.6 48.2 L 26.4 47.8 L 26.7 47.3 L 29.0 45.4 L 29.6 44.4 L 29.2 43.7 L 27.6 42.9 L 27.0 41.3 L 25.7 40.8 L 21.4 40.3 L 19.8 39.6 L 18.4 38.3 L 16.0 37.1 L 14.8 36.1 L 13.9 34.3 L 12.8 30.8 L 12.2 29.9 L 10.3 28.9 L 5.3 27.2 L 3.4 25.9 L 2.6 24.8 L -0.5 18.4 L -0.7 16.5 L -0.2 12.0 L -0.6 10.4 L -1.2 9.9 L -2.0 10.1 L -3.7 13.6 L -4.3 13.5 L -4.9 12.6 L -5.2 11.2 L -5.3 6.7 L -5.9 2.0 L -6.7 -1.2 L -7.8 -3.6 L -11.0 -8.3 L -13.8 -11.3 L -16.0 -13.1 L -19.2 -14.9 L -23.6 -18.4 L -25.5 -19.1 L -27.1 -18.5 L -28.7 -16.8 L -29.2 -15.6 L -29.5 -14.1 L -30.3 -13.1 L -31.2 -12.3 L -32.9 -12.1 L -41.9 -13.0 L -43.9 -13.4 L -45.8 -14.3 L -49.0 -16.9 L -53.0 -18.2 L -55.0 -18.2 L -55.7 -17.9 L -55.6 -17.4 L -53.6 -15.6 L -53.8 -15.0 L -54.6 -14.8 L -55.9 -15.0 L -59.2 -16.4 L -63.8 -16.4 L -66.9 -17.3 L -68.2 -17.2 L -70.3 -16.5 L -71.7 -21.7 L -71.6 -23.0 L -71.2 -23.5 L -40.5 -28.6 Z" fill="#ffffff" stroke="#333333" stroke-width="1.0" />
    </g>
    <g class="state state-GA" data-state="GA" transform="translate(519.1,267.7)">
      <path d="M -15.2 -33.0 L -4.1 -35.2 L -3.8 -32.3 L -3.5 -31.1 L -2.7 -29.7 L -1.7 -28.6 L 0.3 -27.3 L 6.6 -24.4 L 8.7 -22.1 L 10.5 -20.5 L 19.1 -15.0 L 23.4 -11.4 L 25.6 -10.0 L 26.4 -9.3 L 28.6 -5.5 L 31.5 1.9 L 30.8 3.4 L 30.4 5.1 L 30.2 8.6 L 29.7 10.3 L 29.5 12.2 L 29.6 17.3 L 30.3 25.4 L 28.6 25.2 L 25.2 23.5 L 23.7 23.4 L 22.8 23.9 L 21.8 27.2 L 21.3 27.9 L 20.6 28.2 L 19.6 28.2 L 17.7 27.2 L 16.7 27.2 L -12.8 32.9 L -13.4 32.7 L -16.0 29.6 L -17.2 28.8 L -17.7 25.3 L -18.8 22.3 L -18.9 19.6 L -19.5 15.9 L -19.0 9.9 L -19.2 7.9 L -32.7 -29.8 L -15.2 -33.0 Z" fill="#ffffff" stroke="#333333" stroke-width="1.0" />
    </g>
    <g class="state state-HI" data-state="HI" transform="translate(242.1,381.2)">
      <path d="M -2.8 -8.0 L -1.8 -7.8 L 0.1 -7.1 L 4.6 -4.7 L 5.4 -3.7 L 5.7 -2.3 L 6.3 -2.4 L 6.8 -2.3 L 7.4 -1.5 L 9.6 0.4 L 10.1 1.3 L 9.8 2.1 L 7.8 4.1 L 6.7 4.5 L 4.3 4.8 L 3.1 5.6 L 1.7 7.3 L 0.8 9.7 L -0.1 10.3 L -0.8 10.2 L -1.7 9.7 L -3.7 7.6 L -4.5 3.4 L -8.1 -2.3 L -7.8 -3.2 L -6.4 -4.8 L -6.1 -5.6 L -6.3 -6.6 L -7.4 -8.2 L -7.2 -9.9 L -6.0 -9.7 L -4.2 -8.3 L -2.8 -8.0 Z" fill="#ffffff" stroke="#333333" stroke-width="1.0" />
      <path d="M -17.8 -19.2 L -16.0 -20.0 L -15.2 -19.9 L -13.0 -18.5 L -11.0 -17.7 L -10.6 -17.0 L -10.7 -16.1 L -11.4 -15.4 L -13.7 -15.1 L -14.8 -14.4 L -15.6 -14.4 L -16.6 -15.4 L -17.4 -17.2 L -19.4 -17.4 L -20.1 -17.8 L -20.9 -19.4 L -21.0 -20.4 L -20.7 -20.9 L -20.1 -21.2 L -17.8 -19.2 Z" fill="#ffffff" stroke="#333333" stroke-width="1.0" />
      <path d="M -17.7 -13.3 L -19.1 -13.2 L -19.9 -13.7 L -18.7 -14.6 L -17.5 -13.5 L -17.5 -13.3 L -17.7 -13.3 Z" fill="#ffffff" stroke="#333333" stroke-width="1.0" />
      <path d="M -23.4 -16.7 L -24.2 -17.0 L -26.3 -19.2 L -24.4 -19.6 L -22.6 -18.6 L -22.2 -17.8 L -22.7 -17.0 L -23.4 -16.7 Z" fill="#ffffff" stroke="#333333" stroke-width="1.0" />
      <path d="M -24.0 -23.3 L -22.5 -23.2 L -22.3 -22.7 L -22.4 -22.2 L -22.9 -21.8 L -24.4 -21.5 L -27.4 -22.1 L -29.6 -21.7 L -30.0 -22.0 L -30.3 -22.8 L -30.2 -23.5 L -29.8 -23.9 L -27.2 -23.4 L -24.0 -23.3 Z" fill="#ffffff" stroke="#333333" stroke-width="1.0" />
      <path d="M -39.8 -29.4 L -38.4 -27.5 L -36.5 -26.0 L -36.1 -25.3 L -36.3 -24.9 L -37.4 -24.5 L -39.7 -25.3 L -42.2 -25.4 L -43.5 -26.7 L -44.9 -29.3 L -44.5 -29.6 L -43.0 -29.5 L -42.2 -31.0 L -41.4 -31.6 L -40.8 -31.2 L -40.5 -30.3 L -39.8 -29.4 Z" fill="#ffffff" stroke="#333333" stroke-width="1.0" />
      <path d="M -62.5 -34.2 L -65.2 -35.0 L -67.5 -37.1 L -67.4 -37.9 L -65.9 -39.5 L -64.7 -39.9 L -62.9 -39.9 L -61.9 -39.4 L -61.0 -38.6 L -61.1 -37.2 L -61.0 -35.3 L -61.5 -34.7 L -62.5 -34.2 Z" fill="#ffffff" stroke="#333333" stroke-width="1.0" />
      <path d="M -72.8 -33.2 L -73.1 -33.5 L -73.4 -34.6 L -72.5 -35.4 L -71.9 -36.8 L -71.4 -36.9 L -70.9 -36.2 L -71.0 -35.5 L -72.8 -33.2 Z" fill="#ffffff" stroke="#333333" stroke-width="1.0" />
    </g>
    <g class="state state-IA" data-state="IA" transform="translate(381.9,142.2)">
      <path d="M 34.1 2.4 L 33.3 2.8 L 30.8 3.5 L 29.9 4.7 L 29.7 5.9 L 29.8 9.0 L 29.6 10.8 L 28.8 13.5 L 26.9 18.1 L 25.9 23.1 L 24.4 22.9 L 22.0 21.2 L 20.7 20.8 L -2.9 22.8 L -24.9 24.1 L -25.6 21.8 L -26.1 14.7 L -26.6 11.8 L -29.2 3.4 L -32.9 -3.9 L -33.7 -6.3 L -33.9 -9.8 L -33.1 -16.2 L -33.1 -19.4 L -4.4 -21.0 L 24.3 -23.6 L 24.6 -18.0 L 25.0 -16.5 L 25.6 -15.1 L 26.6 -13.9 L 29.2 -11.9 L 30.4 -10.5 L 34.0 -8.3 L 35.1 -0.7 L 34.9 1.2 L 34.1 2.4 Z" fill="#ffffff" stroke="#333333" stroke-width="1.0" />
    </g>
    <g class="state state-ID" data-state="ID" transform="translate(154.9,95.7)">
      <path d="M 6.0 -22.3 L 5.7 -21.1 L 5.9 -20.2 L 7.1 -19.4 L 10.1 -18.0 L 11.0 -17.0 L 11.7 -15.7 L 12.3 -13.8 L 12.7 -11.7 L 13.2 -4.3 L 13.5 -3.7 L 14.1 -3.1 L 16.8 -2.0 L 19.0 0.0 L 20.2 0.7 L 28.6 1.9 L 29.9 1.9 L 30.9 1.7 L 33.7 -0.1 L 34.8 -0.5 L 36.2 -0.6 L 38.6 -0.3 L 33.0 41.6 L 16.1 39.1 L -0.3 36.3 L -17.1 33.2 L -33.3 29.9 L -26.1 -4.6 L -26.5 -6.3 L -26.4 -7.4 L -25.6 -8.9 L -23.4 -11.7 L -22.1 -13.6 L -20.2 -17.3 L -17.3 -21.7 L -16.2 -24.6 L -16.2 -25.6 L -16.4 -26.4 L -18.6 -27.4 L -19.9 -29.5 L -20.1 -30.7 L -10.8 -74.2 L -1.8 -72.3 L -4.0 -59.1 L -4.1 -57.8 L -2.9 -55.3 L -2.4 -51.3 L -1.1 -47.6 L 3.5 -39.3 L 7.1 -34.0 L 7.8 -28.4 L 7.6 -27.6 L 6.4 -25.8 L 6.4 -25.2 L 6.7 -24.0 L 6.0 -22.3 Z" fill="#ffffff" stroke="#333333" stroke-width="1.0" />
    </g>
    <g class="state state-IL" data-state="IL" transform="translate(433.8,167.7)">
      <path d="M 20.9 3.3 L 21.2 6.3 L 20.0 9.1 L 19.7 11.1 L 20.5 17.1 L 20.5 19.3 L 20.1 21.1 L 18.0 25.8 L 17.6 28.4 L 17.8 30.4 L 16.0 33.8 L 14.9 38.2 L 14.3 38.4 L 12.4 38.2 L 11.8 38.7 L 11.6 39.6 L 11.7 41.9 L 11.5 42.9 L 10.6 43.1 L 8.5 42.5 L 7.5 42.5 L 7.0 42.9 L 6.1 44.6 L 3.2 43.2 L 1.0 41.4 L -0.6 39.5 L -4.4 33.3 L -7.2 31.5 L -8.7 30.0 L -9.6 28.0 L -11.0 20.3 L -12.3 17.1 L -14.5 14.5 L -20.5 9.3 L -22.7 7.1 L -24.5 4.8 L -25.5 2.4 L -26.0 -0.5 L -25.8 -3.9 L -24.9 -7.8 L -23.2 -11.9 L -22.3 -14.7 L -22.1 -16.4 L -22.2 -19.4 L -22.0 -20.7 L -21.6 -21.6 L -21.1 -22.0 L -18.6 -22.7 L -17.8 -23.1 L -17.2 -23.9 L -16.8 -24.9 L -16.8 -27.6 L -17.9 -33.9 L 10.0 -37.8 L 10.9 -35.6 L 11.6 -31.5 L 12.1 -29.9 L 14.8 -27.5 L 15.7 -27.1 L 16.6 -27.0 L 20.9 3.3 Z" fill="#ffffff" stroke="#333333" stroke-width="1.0" />
    </g>
    <g class="state state-IN" data-state="IN" transform="translate(467.6,164.1)">
      <path d="M 11.4 -30.9 L 18.4 8.7 L 17.1 10.0 L 16.7 11.2 L 16.9 12.3 L 17.9 12.8 L 18.2 13.3 L 18.3 13.9 L 18.1 14.8 L 17.1 16.4 L 16.3 17.0 L 15.6 16.9 L 14.0 15.9 L 13.4 15.9 L 12.9 16.1 L 12.2 17.5 L 11.4 20.8 L 10.7 22.1 L 9.8 23.4 L 8.0 24.8 L 5.8 27.5 L 4.7 28.4 L 2.9 29.0 L 0.6 28.5 L -0.3 28.6 L -0.8 29.2 L -1.3 31.3 L -2.1 32.0 L -3.1 31.9 L -5.0 30.5 L -6.5 30.9 L -9.2 32.7 L -9.9 32.6 L -11.2 31.6 L -12.1 31.5 L -12.9 31.8 L -14.4 33.5 L -16.0 34.0 L -16.1 32.1 L -15.7 29.5 L -13.7 24.8 L -13.3 23.1 L -13.2 21.0 L -13.9 16.4 L -14.0 14.5 L -13.7 12.9 L -12.7 10.7 L -12.5 9.3 L -17.2 -23.3 L -15.1 -23.7 L -12.8 -24.8 L -11.7 -25.7 L -10.4 -27.5 L 11.0 -31.2 L 11.4 -30.9 Z" fill="#ffffff" stroke="#333333" stroke-width="1.0" />
    </g>
    <g class="state state-KS" data-state="KS" transform="translate(327.9,198.5)">
      <path d="M 44.0 -14.3 L 46.0 20.6 L 23.5 21.6 L 1.0 22.2 L -22.2 22.2 L -44.6 21.8 L -43.4 -22.4 L -24.1 -22.1 L -4.7 -22.1 L 14.6 -22.6 L 33.9 -23.4 L 36.0 -22.1 L 38.2 -19.8 L 40.0 -18.5 L 41.2 -16.7 L 43.4 -15.3 L 44.0 -14.3 Z" fill="#ffffff" stroke="#333333" stroke-width="1.0" />
    </g>
    <g class="state state-KY" data-state="KY" transform="translate(482.7,199.4)">
      <path d="M 29.7 -19.6 L 31.1 -17.4 L 34.8 -13.5 L 35.6 -11.3 L 36.8 -9.5 L 37.5 -7.6 L 35.2 -3.9 L 32.3 -1.2 L 30.8 2.4 L 28.7 4.3 L 27.1 6.2 L 26.0 8.6 L 25.7 10.9 L 7.9 14.3 L -10.0 17.4 L -28.0 20.1 L -46.0 22.5 L -45.8 20.0 L -43.1 15.5 L -42.7 14.2 L -42.8 13.0 L -42.0 11.4 L -41.5 11.0 L -41.0 10.8 L -38.3 11.5 L -37.4 11.3 L -37.1 10.5 L -37.3 8.1 L -37.0 7.1 L -36.4 6.6 L -34.6 6.8 L -34.0 6.5 L -32.9 2.4 L -31.2 -1.2 L -29.5 -1.8 L -28.0 -3.5 L -27.2 -3.9 L -26.3 -3.7 L -25.0 -2.7 L -24.3 -2.6 L -21.6 -4.4 L -20.1 -4.8 L -18.2 -3.4 L -17.2 -3.3 L -16.5 -4.0 L -15.9 -6.1 L -15.5 -6.7 L -14.6 -6.8 L -13.0 -6.4 L -12.1 -6.3 L -11.0 -6.6 L -10.0 -7.2 L -7.0 -10.7 L -5.3 -12.0 L -4.4 -13.2 L -3.7 -14.5 L -2.9 -17.8 L -2.2 -19.2 L -1.7 -19.5 L -1.1 -19.4 L 0.9 -18.3 L 1.6 -18.6 L 2.4 -19.5 L 3.0 -20.8 L 3.2 -21.8 L 2.8 -22.5 L 1.8 -23.1 L 1.6 -24.2 L 2.0 -25.3 L 3.2 -26.6 L 3.9 -26.7 L 7.8 -26.0 L 9.7 -25.1 L 13.6 -24.5 L 14.9 -23.9 L 16.9 -22.3 L 17.9 -21.9 L 22.9 -22.0 L 27.1 -21.4 L 28.5 -20.8 L 29.7 -19.6 Z" fill="#ffffff" stroke="#333333" stroke-width="1.0" />
    </g>
    <g class="state state-LA" data-state="LA" transform="translate(412.3,307.0)">
      <path d="M 6.4 0.9 L 28.6 -1.6 L 29.8 0.1 L 30.8 2.0 L 32.4 6.3 L 29.3 7.0 L 27.9 8.4 L 26.9 8.9 L 24.9 9.1 L 23.0 9.0 L 22.4 9.1 L 21.9 9.6 L 21.6 10.3 L 21.6 11.2 L 21.9 12.1 L 22.8 13.2 L 24.1 13.5 L 25.4 13.1 L 29.1 11.4 L 31.2 11.9 L 34.1 11.0 L 34.7 11.1 L 35.3 11.9 L 35.3 12.8 L 33.6 16.8 L 34.2 18.3 L 34.6 20.8 L 35.2 21.5 L 36.7 22.2 L 39.7 22.8 L 40.9 23.2 L 41.8 24.1 L 41.9 24.5 L 41.7 25.0 L 41.0 25.4 L 36.0 25.9 L 34.5 24.6 L 31.8 24.5 L 30.9 24.3 L 30.4 23.8 L 29.4 21.5 L 28.7 21.0 L 27.8 20.9 L 27.2 21.1 L 26.8 21.7 L 26.5 24.8 L 25.9 25.7 L 24.6 25.9 L 23.1 24.9 L 22.4 24.8 L 21.5 25.1 L 19.4 26.5 L 17.5 26.8 L 14.1 26.1 L 11.5 25.9 L 11.0 25.2 L 10.9 23.2 L 10.6 22.4 L 9.6 22.1 L 7.4 22.4 L 6.5 22.2 L 6.1 21.8 L 5.3 19.3 L 4.2 18.8 L 2.6 19.0 L -0.7 21.7 L -1.7 22.2 L -2.6 22.3 L -4.9 22.0 L -10.6 20.5 L -18.9 21.3 L -20.4 21.1 L -23.0 20.1 L -22.2 11.7 L -21.0 5.6 L -21.4 -0.1 L -22.1 -2.9 L -24.7 -6.8 L -26.0 -11.7 L -27.7 -14.3 L -28.5 -26.6 L -9.9 -28.1 L 8.7 -30.0 L 8.9 -27.4 L 10.4 -21.9 L 10.6 -19.3 L 9.5 -14.1 L 8.0 -10.2 L 7.4 -8.0 L 7.4 -4.2 L 5.9 -0.2 L 6.0 0.6 L 6.4 0.9 Z" fill="#ffffff" stroke="#333333" stroke-width="1.0" />
    </g>
    <g class="state state-MA" data-state="MA" transform="translate(616.9,87.8)">
      <path d="M 6.3 -10.8 L 7.6 -10.0 L 8.3 -8.9 L 8.2 -7.7 L 7.3 -4.6 L 7.3 -3.9 L 7.6 -3.5 L 7.9 -3.5 L 9.6 -4.1 L 10.4 -3.8 L 11.6 -2.9 L 14.2 0.0 L 15.7 0.8 L 16.7 0.6 L 17.3 0.1 L 17.3 -3.1 L 17.8 -3.8 L 18.1 -3.9 L 18.4 -3.6 L 19.2 -0.7 L 19.1 1.7 L 18.6 2.6 L 15.8 5.1 L 15.2 5.5 L 13.6 5.8 L 10.4 8.3 L 8.2 6.2 L 5.8 2.5 L 5.0 2.0 L 4.0 1.9 L -16.3 8.8 L -17.1 3.5 L -17.3 -1.2 L 0.6 -7.4 L 3.4 -9.6 L 6.3 -10.8 Z" fill="#ffffff" stroke="#333333" stroke-width="1.0" />
    </g>
    <g class="state state-MD" data-state="MD" transform="translate(576.4,153.5)">
      <path d="M 8.7 -13.0 L 10.6 -8.6 L 14.0 1.2 L 15.2 4.2 L 15.7 4.2 L 22.6 2.2 L 22.3 3.9 L 22.7 9.0 L 22.4 10.7 L 22.1 11.2 L 21.5 11.2 L 21.2 10.9 L 20.8 7.2 L 20.5 6.4 L 20.0 5.9 L 19.4 6.3 L 19.2 7.3 L 19.6 11.7 L 17.2 13.0 L 16.6 12.1 L 15.0 11.1 L 14.2 9.4 L 13.7 9.3 L 12.2 9.5 L 11.6 9.1 L 9.9 5.6 L 9.8 2.8 L 9.3 2.3 L 7.8 1.9 L 7.4 1.2 L 7.4 -0.4 L 8.1 -4.7 L 7.9 -5.6 L 7.0 -5.6 L 6.7 -6.0 L 7.7 -9.3 L 7.7 -10.3 L 7.3 -10.6 L 6.7 -10.4 L 5.6 -9.2 L 3.9 -8.1 L 3.6 -0.0 L 3.9 3.4 L 4.3 4.5 L 6.1 7.5 L 6.3 8.5 L 6.1 9.9 L 7.3 11.5 L 7.2 11.9 L 6.9 12.3 L 5.6 12.4 L 2.6 11.5 L -0.7 11.4 L -1.8 11.1 L -2.7 10.5 L -3.4 9.9 L -3.0 4.7 L -3.2 3.3 L -2.2 1.9 L -2.2 1.6 L -3.7 0.8 L -4.5 1.6 L -8.4 -0.9 L -10.4 -1.8 L -13.0 -1.9 L -16.0 -2.4 L -18.8 -2.0 L -21.8 -0.6 L -25.3 1.8 L -27.9 4.0 L -29.0 4.3 L -30.4 -2.1 L -10.2 -7.5 L 8.7 -13.0 Z" fill="#ffffff" stroke="#333333" stroke-width="1.0" />
    </g>
    <g class="state state-ME" data-state="ME" transform="translate(624.9,33.1)">
      <path d="M -11.6 -30.9 L -10.3 -30.7 L -8.2 -29.3 L -7.1 -29.0 L -6.6 -29.3 L -5.6 -31.4 L -4.0 -31.6 L -2.8 -33.1 L -2.1 -33.1 L -0.3 -32.4 L 2.0 -32.2 L 3.1 -31.8 L 12.2 -9.8 L 12.9 -9.2 L 14.9 -8.5 L 17.3 -5.9 L 20.4 -5.2 L 21.5 -4.7 L 22.4 -3.2 L 23.0 -1.1 L 23.0 1.2 L 21.7 3.0 L 19.2 8.5 L 17.9 10.2 L 17.1 10.7 L 16.4 10.8 L 15.7 10.5 L 14.6 9.5 L 13.5 9.5 L 13.0 10.3 L 12.9 12.7 L 12.1 13.3 L 11.3 13.2 L 9.5 12.0 L 9.0 12.0 L 8.6 12.3 L 8.2 13.2 L 8.2 14.2 L 8.4 15.3 L 9.1 16.8 L 9.4 19.4 L 9.1 20.8 L 8.6 21.7 L 7.7 22.6 L 4.4 24.7 L 3.3 25.6 L 1.2 28.9 L 0.1 30.0 L -0.3 33.0 L -1.8 37.4 L -2.0 40.0 L -3.7 39.8 L -4.7 39.2 L -15.7 8.9 L -15.1 8.4 L -14.7 7.3 L -13.9 3.3 L -13.3 -1.8 L -13.4 -5.1 L -14.5 -7.6 L -14.7 -8.5 L -14.2 -12.7 L -14.5 -15.6 L -13.6 -19.8 L -12.2 -29.7 L -12.0 -30.6 L -11.6 -30.9 Z" fill="#ffffff" stroke="#333333" stroke-width="1.0" />
    </g>
    <g class="state state-MI" data-state="MI" transform="translate(476.1,107.8)">
      <path d="M 10.5 -21.3 L 11.5 -17.0 L 11.5 -14.7 L 10.8 -11.2 L 8.7 -5.0 L 8.8 -3.8 L 9.2 -3.4 L 9.7 -3.4 L 10.8 -4.0 L 11.8 -4.8 L 13.2 -7.0 L 14.6 -11.1 L 15.2 -11.4 L 16.0 -11.3 L 17.9 -10.1 L 19.0 -8.8 L 19.8 -7.2 L 21.2 -2.9 L 24.2 1.8 L 24.8 3.0 L 24.4 6.7 L 24.1 7.1 L 22.5 8.2 L 21.6 9.4 L 21.0 11.2 L 20.6 14.6 L 20.1 15.4 L 18.9 16.7 L 18.3 17.9 L 17.7 20.6 L 17.6 23.1 L 3.0 26.1 L 2.8 25.2 L 2.5 25.0 L -18.9 28.8 L -17.5 26.2 L -16.2 23.1 L -15.7 20.8 L -15.6 18.5 L -16.0 15.5 L -17.8 7.7 L -20.4 1.4 L -20.7 -0.4 L -20.7 -2.4 L -18.8 -14.4 L -18.2 -16.3 L -16.3 -19.5 L -15.5 -21.7 L -14.8 -22.3 L -14.3 -22.2 L -14.9 -19.0 L -14.5 -16.8 L -14.2 -17.0 L -13.5 -18.3 L -13.1 -18.6 L -12.5 -18.3 L -12.1 -16.9 L -11.5 -17.2 L -11.1 -18.0 L -10.9 -19.3 L -11.6 -24.0 L -11.3 -24.5 L -10.3 -25.3 L -9.8 -26.1 L -9.3 -31.7 L -8.7 -32.7 L -8.0 -33.0 L -5.8 -32.4 L -1.0 -32.3 L 1.6 -31.9 L 3.0 -31.3 L 8.4 -28.5 L 9.7 -27.5 L 10.3 -26.4 L 10.2 -23.2 L 10.5 -21.3 Z" fill="#ffffff" stroke="#333333" stroke-width="1.0" />
      <path d="M -48.1 -46.5 L -45.9 -46.9 L -43.8 -46.6 L -42.0 -45.8 L -39.1 -44.0 L -34.3 -41.8 L -32.9 -41.8 L -31.9 -41.4 L -31.4 -41.6 L -30.5 -42.6 L -28.9 -42.2 L -28.2 -42.4 L -26.5 -44.3 L -25.7 -44.8 L -21.1 -45.4 L -18.0 -46.8 L -16.4 -46.8 L -14.1 -47.6 L -13.1 -47.7 L -12.2 -47.1 L -11.5 -45.4 L -10.7 -44.8 L -9.5 -44.7 L -6.1 -45.3 L -5.2 -45.2 L -4.3 -44.7 L -3.7 -44.1 L -3.2 -43.2 L -2.7 -40.8 L -0.8 -39.3 L -0.6 -38.9 L -1.1 -38.0 L -1.9 -37.6 L -5.7 -38.0 L -6.2 -37.4 L -6.7 -36.1 L -7.5 -35.8 L -8.3 -35.9 L -10.5 -36.7 L -13.8 -36.9 L -15.7 -36.7 L -18.8 -35.8 L -21.1 -35.4 L -22.6 -34.4 L -24.7 -31.3 L -26.6 -29.5 L -27.1 -29.8 L -27.2 -31.4 L -27.7 -31.9 L -28.4 -31.1 L -28.7 -29.8 L -29.0 -29.4 L -29.5 -29.5 L -30.6 -30.4 L -31.4 -30.4 L -32.1 -28.8 L -32.7 -24.4 L -35.0 -19.0 L -36.2 -19.8 L -37.6 -21.9 L -39.4 -27.3 L -39.9 -28.3 L -40.6 -29.0 L -44.9 -30.9 L -47.3 -31.2 L -59.1 -34.4 L -60.8 -35.7 L -64.1 -39.5 L -61.8 -42.0 L -58.2 -43.1 L -56.2 -44.4 L -49.8 -50.3 L -48.4 -52.0 L -47.0 -54.0 L -45.9 -54.6 L -45.4 -53.7 L -45.4 -51.8 L -46.0 -51.0 L -48.6 -48.0 L -48.8 -46.9 L -48.6 -46.6 L -48.1 -46.5 Z" fill="#ffffff" stroke="#333333" stroke-width="1.0" />
      <path d="M -57.1 -59.5 L -57.3 -59.9 L -56.8 -60.9 L -56.4 -62.7 L -55.5 -64.3 L -54.2 -65.2 L -52.1 -65.7 L -51.7 -65.6 L -51.6 -64.8 L -52.3 -63.7 L -55.0 -61.5 L -56.2 -59.9 L -57.1 -59.5 Z" fill="#ffffff" stroke="#333333" stroke-width="1.0" />
    </g>
    <g class="state state-MN" data-state="MN" transform="translate(369.6,77.6)">
      <path d="M -11.8 -45.6 L -10.1 -45.3 L -8.8 -44.5 L -8.0 -43.4 L -6.3 -40.0 L -5.5 -39.1 L -4.9 -38.7 L -1.3 -38.9 L 1.2 -38.7 L 5.6 -37.8 L 10.6 -36.4 L 13.7 -36.0 L 17.8 -36.0 L 22.6 -36.6 L 23.8 -36.6 L 24.8 -36.3 L 26.0 -35.4 L 28.8 -34.4 L 31.5 -33.0 L 36.5 -32.3 L 44.5 -29.9 L 42.8 -27.9 L 38.3 -25.8 L 35.1 -23.4 L 28.0 -16.1 L 21.1 -8.5 L 20.3 -7.1 L 19.8 -5.6 L 19.9 -1.0 L 19.7 0.3 L 19.0 1.8 L 17.0 4.4 L 16.4 6.5 L 16.3 11.8 L 16.1 18.1 L 16.4 20.4 L 17.2 22.3 L 18.7 24.1 L 24.1 28.2 L 28.3 32.2 L 29.4 32.8 L 32.2 33.9 L 34.0 35.2 L 35.0 36.4 L 35.9 37.7 L 36.4 39.1 L 36.7 40.9 L 8.0 43.5 L -20.7 45.2 L -21.6 36.9 L -21.8 26.2 L -22.2 21.9 L -23.1 17.6 L -25.1 13.8 L -25.5 12.5 L -25.5 10.7 L -25.0 6.9 L -25.2 3.6 L -27.6 -14.0 L -30.9 -27.7 L -31.9 -37.8 L -13.0 -38.6 L -12.7 -38.9 L -12.5 -39.7 L -12.9 -45.1 L -12.5 -45.5 L -11.8 -45.6 Z" fill="#ffffff" stroke="#333333" stroke-width="1.0" />
    </g>
    <g class="state state-MO" data-state="MO" transform="translate(398.3,197.1)">
      <path d="M -19.2 -32.1 L 4.4 -34.1 L 5.8 -33.6 L 8.1 -32.0 L 9.6 -31.8 L 9.6 -29.5 L 10.0 -27.5 L 10.7 -25.5 L 11.7 -23.7 L 14.4 -20.7 L 21.4 -14.6 L 23.5 -11.8 L 24.7 -8.9 L 26.0 -1.4 L 26.7 0.5 L 28.4 2.2 L 31.2 3.9 L 35.0 10.1 L 36.6 12.1 L 38.8 13.8 L 41.7 15.3 L 41.8 16.5 L 41.4 17.7 L 38.6 22.4 L 38.5 24.6 L 37.7 27.0 L 36.1 32.9 L 29.5 33.7 L 29.0 33.5 L 28.9 32.6 L 29.0 31.6 L 30.8 27.1 L 30.7 25.9 L 30.3 25.6 L 2.4 28.4 L -23.9 30.4 L -26.4 -13.1 L -27.2 -14.1 L -29.1 -15.2 L -30.3 -17.1 L -32.2 -18.4 L -34.4 -20.7 L -36.9 -22.4 L -39.9 -27.8 L -41.2 -30.8 L -19.2 -32.1 Z" fill="#ffffff" stroke="#333333" stroke-width="1.0" />
    </g>
    <g class="state state-MS" data-state="MS" transform="translate(440.2,278.6)">
      <path d="M 16.5 9.2 L 16.6 13.3 L 18.2 22.7 L 19.7 33.8 L 16.3 33.7 L 13.9 33.9 L 8.0 36.4 L 6.8 36.7 L 5.9 36.6 L 5.2 36.1 L 4.8 35.5 L 3.0 30.4 L 1.9 28.5 L 0.7 26.8 L -21.1 29.3 L -21.9 29.2 L -21.9 27.7 L -20.4 24.1 L -20.5 20.4 L -19.9 18.2 L -18.3 14.3 L -17.3 8.8 L -17.5 6.2 L -19.2 -0.2 L -19.2 -1.3 L -18.6 -3.7 L -18.4 -5.4 L -18.6 -6.9 L -19.4 -9.8 L -19.4 -12.1 L -18.6 -14.9 L -16.1 -21.3 L -14.7 -25.5 L -13.9 -26.7 L -11.8 -29.2 L -10.4 -32.6 L 15.9 -36.0 L 16.5 9.2 Z" fill="#ffffff" stroke="#333333" stroke-width="1.0" />
    </g>
    <g class="state state-MT" data-state="MT" transform="translate(212.6,63.4)">
      <path d="M -54.6 -39.0 L -26.8 -33.8 L 0.7 -29.7 L 28.3 -26.6 L 43.1 -25.4 L 57.9 -24.4 L 54.7 36.8 L 36.3 35.7 L 18.0 34.1 L -0.3 32.1 L -18.5 29.8 L -18.8 30.0 L -19.1 32.0 L -21.6 31.7 L -23.0 31.8 L -24.1 32.2 L -26.7 33.9 L -27.6 34.2 L -28.8 34.2 L -37.5 33.0 L -38.7 32.3 L -40.9 30.3 L -43.7 29.1 L -44.2 28.5 L -44.5 27.9 L -45.0 20.4 L -45.5 18.1 L -46.1 16.3 L -46.8 15.1 L -47.6 14.3 L -50.9 12.8 L -51.7 12.1 L -52.0 11.6 L -51.9 10.6 L -51.0 8.3 L -51.3 7.1 L -51.3 6.5 L -50.2 4.7 L -49.9 3.9 L -50.7 -1.8 L -54.2 -7.0 L -58.8 -15.3 L -60.1 -19.0 L -60.6 -23.0 L -61.8 -25.5 L -61.7 -26.8 L -59.5 -40.0 L -54.6 -39.0 Z" fill="#ffffff" stroke="#333333" stroke-width="1.0" />
    </g>
    <g class="state state-NC" data-state="NC" transform="translate(559.9,213.4)">
      <path d="M 44.5 -15.4 L 45.5 -15.4 L 46.4 -14.5 L 46.8 -13.5 L 47.0 -11.4 L 46.9 -10.5 L 46.0 -8.3 L 45.6 -7.7 L 45.1 -7.4 L 44.6 -7.6 L 44.5 -8.2 L 45.4 -10.8 L 45.5 -11.4 L 44.3 -14.8 L 44.5 -15.4 Z" fill="#ffffff" stroke="#333333" stroke-width="1.0" />
      <path d="M 42.3 -19.0 L 42.1 -18.2 L 41.7 -18.0 L 41.3 -18.0 L 40.1 -19.5 L 39.1 -20.0 L 38.2 -21.4 L 37.5 -21.8 L 36.8 -21.8 L 36.2 -21.5 L 35.0 -20.1 L 34.2 -18.8 L 33.5 -18.1 L 30.3 -16.1 L 30.2 -15.1 L 31.1 -14.7 L 32.3 -14.8 L 35.9 -15.8 L 37.4 -15.7 L 38.2 -15.1 L 38.8 -13.1 L 39.5 -12.6 L 40.3 -12.8 L 41.3 -13.9 L 41.8 -13.9 L 42.2 -13.4 L 42.6 -11.1 L 42.0 -10.5 L 40.2 -9.5 L 39.3 -7.7 L 38.8 -7.3 L 38.1 -7.4 L 37.3 -8.3 L 36.7 -8.5 L 36.2 -8.4 L 35.3 -7.5 L 34.3 -7.2 L 31.4 -6.8 L 29.5 -7.4 L 28.1 -7.5 L 27.3 -7.3 L 26.7 -6.9 L 26.4 -6.1 L 26.5 -5.5 L 27.3 -4.8 L 28.2 -4.4 L 30.0 -4.3 L 33.5 -5.1 L 34.2 -4.9 L 34.6 -4.2 L 34.5 -3.6 L 32.1 -0.3 L 31.7 0.8 L 31.7 1.6 L 32.1 2.0 L 32.8 1.9 L 35.1 0.5 L 35.7 0.3 L 36.2 1.2 L 36.0 2.3 L 35.1 3.9 L 33.8 5.1 L 27.3 8.8 L 25.4 10.3 L 24.2 11.7 L 22.5 15.0 L 21.6 16.4 L 15.3 22.3 L 1.0 12.0 L 0.0 12.0 L -13.4 15.2 L -14.0 15.0 L -14.5 14.6 L -16.3 11.5 L -16.8 10.9 L -17.3 10.7 L -17.7 11.0 L -18.1 12.8 L -18.4 13.3 L -18.8 12.9 L -19.5 11.3 L -20.5 11.0 L -34.2 14.0 L -34.9 14.5 L -36.6 16.1 L -39.0 16.3 L -41.2 18.1 L -42.4 18.6 L -56.0 21.3 L -55.9 19.8 L -55.6 18.4 L -54.9 17.1 L -53.9 15.9 L -52.2 14.5 L -48.1 12.1 L -45.6 10.4 L -43.6 8.3 L -40.1 3.3 L -36.3 1.0 L -34.1 -0.9 L -32.0 -4.9 L -31.8 -7.3 L -14.2 -11.3 L 3.3 -15.7 L 20.7 -20.4 L 38.0 -25.4 L 40.0 -22.9 L 40.8 -21.2 L 42.3 -19.0 Z" fill="#ffffff" stroke="#333333" stroke-width="1.0" />
      <path d="M 40.1 -0.7 L 40.5 -0.2 L 40.4 0.7 L 39.1 3.0 L 38.4 4.7 L 37.7 5.3 L 37.5 3.9 L 38.0 1.9 L 39.1 -0.1 L 39.6 -0.6 L 40.1 -0.7 Z" fill="#ffffff" stroke="#333333" stroke-width="1.0" />
    </g>
    <g class="state state-ND" data-state="ND" transform="translate(305.4,63.5)">
      <path d="M 39.1 22.3 L 20.0 22.8 L 0.9 22.8 L -18.2 22.4 L -37.3 21.6 L -34.8 -24.5 L -18.1 -23.7 L -1.3 -23.4 L 15.5 -23.3 L 32.3 -23.7 L 33.4 -13.2 L 36.1 -2.2 L 36.9 2.0 L 39.1 18.4 L 39.2 20.6 L 39.1 22.3 Z" fill="#ffffff" stroke="#333333" stroke-width="1.0" />
    </g>
    <g class="state state-NE" data-state="NE" transform="translate(311.9,152.8)">
      <path d="M 36.3 -17.3 L 37.1 -14.5 L 40.9 -7.1 L 43.4 1.1 L 44.0 4.0 L 44.4 11.1 L 44.9 12.8 L 46.6 16.8 L 49.2 21.5 L 49.9 22.2 L 30.6 23.1 L 11.2 23.5 L -8.1 23.6 L -27.4 23.2 L -27.0 8.4 L -27.1 8.1 L -47.6 7.2 L -46.1 -23.6 L -15.9 -22.4 L 14.7 -22.2 L 16.2 -21.8 L 18.9 -20.1 L 20.6 -19.7 L 22.2 -20.0 L 25.9 -21.8 L 27.3 -22.0 L 28.4 -21.8 L 29.5 -21.2 L 32.7 -18.5 L 34.2 -17.5 L 34.9 -17.3 L 36.3 -17.3 Z" fill="#ffffff" stroke="#333333" stroke-width="1.0" />
    </g>
    <g class="state state-NH" data-state="NH" transform="translate(610.9,66.2)">
      <path d="M -2.6 -24.4 L -1.8 -24.1 L 9.3 6.1 L 10.3 6.7 L 12.0 7.0 L 12.2 10.9 L 9.3 12.1 L 6.5 14.2 L -5.6 18.5 L -6.3 13.7 L -6.1 10.7 L -6.9 7.2 L -7.1 4.7 L -6.6 -1.2 L -7.1 -7.2 L -6.9 -8.0 L -5.9 -9.9 L -5.7 -11.2 L -5.8 -15.8 L -6.5 -18.7 L -6.5 -20.0 L -6.3 -21.7 L -6.0 -22.3 L -4.6 -23.0 L -3.7 -24.6 L -3.3 -24.7 L -2.6 -24.4 Z" fill="#ffffff" stroke="#333333" stroke-width="1.0" />
    </g>
    <g class="state state-NJ" data-state="NJ" transform="translate(594.9,129.6)">
      <path d="M 6.7 -5.9 L 7.0 3.9 L 6.8 9.4 L 6.4 12.3 L 5.7 15.2 L 5.0 17.1 L 4.3 17.4 L 3.2 17.0 L 0.8 15.3 L -3.6 13.9 L -5.4 12.0 L -6.4 9.8 L -6.5 8.4 L -4.4 4.8 L -3.8 2.3 L -3.9 0.8 L -4.4 -0.6 L -5.6 -2.3 L -7.7 -4.4 L -8.1 -6.1 L -7.9 -8.8 L -6.1 -14.6 L -5.6 -17.8 L -3.3 -16.6 L 1.2 -14.6 L 2.4 -13.8 L 4.2 -10.9 L 4.3 -8.0 L 4.7 -6.6 L 5.0 -6.3 L 5.3 -6.3 L 6.0 -7.2 L 6.4 -7.3 L 6.7 -6.9 L 6.7 -5.9 Z" fill="#ffffff" stroke="#333333" stroke-width="1.0" />
    </g>
    <g class="state state-NM" data-state="NM" transform="translate(232.8,257.0)">
      <path d="M 40.0 -37.1 L 39.7 -28.4 L 38.6 -28.5 L 38.3 -28.1 L 35.5 38.0 L 17.1 37.2 L -7.7 35.5 L -8.0 35.8 L -8.4 40.1 L -29.3 38.3 L -29.6 38.7 L -30.4 46.7 L -39.9 45.8 L -31.1 -42.6 L -13.3 -40.8 L 4.4 -39.2 L 22.2 -38.0 L 40.0 -37.1 Z" fill="#ffffff" stroke="#333333" stroke-width="1.0" />
    </g>
    <g class="state state-NV" data-state="NV" transform="translate(118.9,167.1)">
      <path d="M 23.8 41.3 L 23.2 44.8 L 21.7 50.2 L 21.1 51.8 L 20.5 52.8 L 19.6 53.3 L 18.6 53.2 L 18.1 52.9 L 16.8 50.7 L 15.6 50.1 L 14.5 50.6 L 13.6 51.9 L 13.1 53.8 L 12.5 63.1 L 11.4 69.6 L -2.0 51.3 L -14.8 33.0 L -27.1 14.8 L -39.0 -3.5 L -39.1 -4.1 L -28.3 -48.8 L -12.3 -44.9 L 3.8 -41.3 L 20.0 -37.9 L 36.2 -34.9 L 23.8 41.3 Z" fill="#ffffff" stroke="#333333" stroke-width="1.0" />
    </g>
    <g class="state state-NY" data-state="NY" transform="translate(574.0,90.6)">
      <path d="M 28.6 29.8 L 28.0 29.8 L 27.6 29.5 L 27.4 28.8 L 27.4 27.9 L 28.2 26.2 L 29.8 24.7 L 31.1 23.9 L 34.5 22.4 L 44.2 16.7 L 45.0 16.5 L 45.4 16.6 L 45.5 17.1 L 45.2 17.6 L 44.3 18.4 L 43.1 20.0 L 41.0 21.7 L 38.2 23.4 L 34.0 26.8 L 28.6 29.8 Z" fill="#ffffff" stroke="#333333" stroke-width="1.0" />
      <path d="M 2.6 -32.5 L 13.1 -36.2 L 13.8 -34.8 L 14.6 -31.8 L 15.0 -27.0 L 16.6 -23.0 L 17.2 -20.4 L 19.2 -16.8 L 20.2 -13.6 L 22.9 -10.4 L 23.7 -9.2 L 24.9 -5.5 L 25.6 -3.8 L 25.8 0.6 L 26.6 6.5 L 27.6 10.4 L 29.3 14.9 L 29.7 17.1 L 29.4 18.7 L 28.1 21.0 L 28.3 21.8 L 29.1 22.7 L 26.6 26.2 L 25.1 28.1 L 24.5 27.3 L 23.7 25.7 L 22.9 24.8 L 17.4 22.3 L 14.0 20.4 L 11.8 18.6 L 8.2 14.7 L 7.0 13.8 L 5.7 13.4 L -20.9 21.2 L -35.9 25.2 L -40.5 26.2 L -41.5 22.3 L -39.6 21.0 L -38.6 19.8 L -35.2 13.4 L -36.0 10.3 L -37.0 9.1 L -36.7 8.3 L -34.8 6.2 L -32.5 4.8 L -22.7 1.8 L -15.4 -1.2 L -13.9 -2.1 L -12.5 -3.2 L -11.5 -4.7 L -11.1 -6.4 L -11.4 -8.7 L -12.6 -12.6 L -12.0 -15.5 L -12.0 -17.9 L -11.6 -19.1 L -9.7 -21.8 L -4.5 -27.9 L 0.6 -32.3 L 1.3 -32.6 L 2.6 -32.5 Z" fill="#ffffff" stroke="#333333" stroke-width="1.0" />
    </g>
    <g class="state state-OH" data-state="OH" transform="translate(505.7,150.9)">
      <path d="M 19.9 -32.2 L 24.5 -12.4 L 23.7 -11.8 L 23.1 -10.8 L 22.2 -7.6 L 22.2 -5.4 L 23.0 1.2 L 22.8 3.2 L 22.2 5.5 L 20.3 10.7 L 19.7 11.3 L 17.4 12.6 L 16.5 13.6 L 15.9 15.1 L 14.9 19.7 L 14.6 20.0 L 13.8 20.1 L 12.9 20.0 L 11.8 19.5 L 11.1 19.8 L 10.5 20.9 L 9.7 24.5 L 6.7 28.9 L 5.5 27.7 L 4.2 27.0 L -0.1 26.4 L -5.0 26.6 L -6.1 26.1 L -8.1 24.6 L -9.4 23.9 L -13.2 23.4 L -15.1 22.5 L -19.0 21.8 L -19.7 21.9 L -26.6 -17.0 L -11.9 -20.0 L -11.7 -19.4 L -10.9 -18.8 L -9.6 -18.0 L -8.6 -17.7 L -2.8 -18.1 L -1.3 -18.1 L 0.2 -17.7 L 1.9 -17.9 L 6.0 -20.2 L 8.3 -21.7 L 10.3 -23.5 L 12.2 -25.8 L 16.8 -30.1 L 19.9 -32.2 Z" fill="#ffffff" stroke="#333333" stroke-width="1.0" />
    </g>
    <g class="state state-OK" data-state="OK" transform="translate(339.4,242.2)">
      <path d="M 38.2 -5.5 L 40.5 29.3 L 38.3 27.7 L 35.5 27.0 L 30.3 24.9 L 28.1 24.5 L 26.2 24.6 L 24.1 25.0 L 18.2 27.5 L 16.1 27.9 L 14.8 27.8 L 12.1 26.9 L 10.7 26.6 L 6.0 27.2 L 5.0 27.2 L 3.3 26.6 L -2.3 26.8 L -3.8 26.3 L -6.5 23.5 L -8.3 22.6 L -10.7 22.1 L -17.8 21.7 L -18.8 21.3 L -20.8 20.1 L -24.1 20.1 L -25.0 19.9 L -28.6 17.7 L -31.0 17.1 L -31.1 -12.1 L -31.2 -12.4 L -66.9 -13.6 L -66.6 -22.3 L -40.8 -21.5 L -15.7 -21.4 L 8.9 -21.9 L 34.4 -23.1 L 34.9 -14.5 L 36.2 -10.9 L 37.9 -7.0 L 38.2 -5.5 Z" fill="#ffffff" stroke="#333333" stroke-width="1.0" />
    </g>
    <g class="state state-OR" data-state="OR" transform="translate(91.3,88.0)">
      <path d="M 46.8 -15.2 L 41.2 -5.4 L 38.0 -1.2 L 37.2 0.3 L 37.1 1.5 L 37.5 3.1 L 30.4 37.6 L 10.4 33.0 L -8.6 28.2 L -27.9 22.9 L -46.4 17.3 L -46.5 9.2 L -46.2 7.3 L -45.6 5.2 L -43.7 1.5 L -39.1 -5.6 L -37.6 -8.3 L -34.1 -17.8 L -29.7 -27.7 L -28.5 -31.3 L -27.3 -36.4 L -26.4 -39.2 L -25.2 -41.3 L -23.8 -42.5 L -22.6 -42.5 L -21.3 -41.9 L -18.0 -38.8 L -17.1 -38.3 L -18.1 -33.6 L -16.6 -32.1 L -14.6 -31.0 L -11.5 -30.2 L -4.7 -29.3 L -1.7 -28.3 L 1.5 -28.3 L 6.5 -26.7 L 8.3 -26.3 L 9.9 -26.3 L 13.2 -26.8 L 18.2 -26.0 L 23.1 -26.3 L 24.7 -26.2 L 37.6 -23.1 L 43.6 -22.0 L 45.1 -19.5 L 46.9 -18.9 L 47.3 -18.6 L 47.4 -17.2 L 46.8 -15.2 Z" fill="#ffffff" stroke="#333333" stroke-width="1.0" />
    </g>
    <g class="state state-PA" data-state="PA" transform="translate(558.5,128.7)">
      <path d="M 28.9 -3.3 L 30.8 -1.4 L 32.0 0.3 L 32.5 2.0 L 32.6 3.8 L 31.8 6.0 L 29.9 9.2 L 28.9 9.5 L 27.9 10.1 L 27.2 10.8 L 26.6 11.8 L 1.0 19.1 L -24.7 25.6 L -33.0 -10.0 L -28.9 -13.6 L -26.0 -15.7 L -25.1 -12.0 L -24.7 -11.8 L -3.2 -17.5 L 21.4 -24.6 L 22.5 -24.2 L 23.6 -23.5 L 28.0 -18.9 L 30.8 -16.9 L 30.4 -13.9 L 28.4 -7.2 L 28.3 -4.8 L 28.6 -3.8 L 28.9 -3.3 Z" fill="#ffffff" stroke="#333333" stroke-width="1.0" />
    </g>
    <g class="state state-RI" data-state="RI" transform="translate(621.3,95.4)">
      <path d="M 5.9 0.8 L 5.3 2.1 L 4.6 2.4 L 4.2 2.4 L 3.1 1.0 L 2.7 0.9 L 2.3 1.1 L 1.7 2.3 L 2.2 4.4 L 2.1 5.0 L 0.9 6.3 L -1.1 7.2 L -3.2 1.0 L -4.7 -4.2 L -0.7 -5.6 L 0.7 -5.5 L 1.9 -4.4 L 3.8 -1.2 L 5.9 0.8 Z" fill="#ffffff" stroke="#333333" stroke-width="1.0" />
    </g>
    <g class="state state-SC" data-state="SC" transform="translate(546.9,241.3)">
      <path d="M 28.2 -5.6 L 25.5 -1.7 L 21.2 6.7 L 19.4 9.6 L 16.7 13.0 L 13.1 16.1 L 12.0 17.3 L 8.0 24.2 L 7.6 24.3 L 7.2 24.1 L 6.8 22.5 L 6.4 22.0 L 6.0 22.0 L 5.5 22.4 L 5.2 23.5 L 5.5 26.0 L 5.3 27.1 L 4.7 28.0 L 3.7 28.3 L 0.7 20.8 L -1.6 16.9 L -4.4 15.1 L -8.7 11.4 L -17.1 6.1 L -19.1 4.3 L -21.2 2.0 L -27.5 -0.9 L -29.5 -2.2 L -30.6 -3.3 L -31.3 -4.7 L -31.6 -5.9 L -31.9 -8.7 L -28.6 -9.5 L -25.9 -11.6 L -23.8 -11.8 L -22.0 -13.4 L -21.2 -13.8 L -7.6 -16.9 L -6.5 -16.5 L -5.8 -14.9 L -5.4 -14.6 L -5.1 -15.0 L -4.7 -16.9 L -4.4 -17.1 L -3.4 -16.3 L -1.6 -13.3 L -1.0 -12.8 L -0.5 -12.7 L 13.0 -15.9 L 13.9 -15.8 L 28.2 -5.6 Z" fill="#ffffff" stroke="#333333" stroke-width="1.0" />
    </g>
    <g class="state state-SD" data-state="SD" transform="translate(307.6,108.7)">
      <path d="M 36.9 -22.9 L 36.4 -20.4 L 36.5 -18.5 L 36.9 -17.4 L 38.2 -14.9 L 39.0 -13.0 L 39.6 -10.3 L 40.0 -7.2 L 40.3 5.8 L 41.3 14.9 L 41.2 17.5 L 40.4 23.5 L 40.6 26.8 L 39.3 26.8 L 38.5 26.5 L 37.1 25.6 L 33.8 22.9 L 32.7 22.3 L 31.6 22.1 L 30.2 22.3 L 26.5 24.1 L 24.9 24.4 L 23.2 24.0 L 20.5 22.3 L 19.0 21.9 L -11.5 21.7 L -41.8 20.5 L -39.5 -23.6 L -20.4 -22.8 L -1.3 -22.4 L 17.8 -22.4 L 36.9 -22.9 Z" fill="#ffffff" stroke="#333333" stroke-width="1.0" />
    </g>
    <g class="state state-TN" data-state="TN" transform="translate(475.3,227.1)">
      <path d="M 33.1 -16.8 L 52.8 -21.0 L 52.5 -18.6 L 50.5 -14.6 L 48.2 -12.7 L 44.5 -10.4 L 41.0 -5.4 L 38.9 -3.3 L 36.5 -1.6 L 32.4 0.8 L 30.6 2.2 L 29.6 3.4 L 29.0 4.7 L 28.6 6.1 L 28.6 7.6 L 10.6 10.8 L -8.3 13.9 L -26.2 16.4 L -45.5 18.8 L -45.1 17.1 L -45.0 14.0 L -44.7 12.0 L -44.2 10.8 L -42.3 8.5 L -41.1 3.0 L -39.4 -3.1 L -38.6 -5.3 L -20.6 -7.7 L -2.6 -10.4 L 15.2 -13.5 L 33.1 -16.8 Z" fill="#ffffff" stroke="#333333" stroke-width="1.0" />
    </g>
    <g class="state state-TX" data-state="TX" transform="translate(316.4,303.9)">
      <path d="M -43.9 -75.3 L -8.1 -74.1 L -8.0 -44.8 L -7.7 -44.5 L -5.5 -43.9 L -2.1 -41.9 L -1.0 -41.6 L 2.3 -41.6 L 4.3 -40.3 L 5.7 -39.9 L 12.1 -39.6 L 14.5 -39.2 L 16.5 -38.2 L 19.3 -35.4 L 21.1 -34.8 L 26.4 -35.1 L 28.0 -34.5 L 29.1 -34.5 L 33.7 -35.1 L 35.2 -34.8 L 37.8 -33.9 L 39.2 -33.8 L 41.2 -34.2 L 45.4 -36.1 L 47.4 -36.8 L 49.8 -37.2 L 52.1 -37.1 L 54.1 -36.5 L 58.9 -34.6 L 61.4 -34.0 L 63.5 -32.4 L 66.4 -31.4 L 66.9 -31.0 L 68.2 -11.2 L 70.1 -8.1 L 71.3 -3.3 L 73.9 0.5 L 74.5 3.1 L 74.9 8.8 L 73.7 14.9 L 72.9 23.3 L 71.3 23.3 L 69.6 23.7 L 58.9 28.7 L 58.5 29.2 L 58.3 30.7 L 58.0 31.6 L 55.4 34.3 L 53.1 38.1 L 51.9 39.2 L 48.3 41.8 L 44.5 45.4 L 42.6 46.4 L 41.7 46.4 L 41.1 46.2 L 40.9 45.8 L 41.0 45.3 L 42.2 42.6 L 41.8 41.9 L 40.9 41.9 L 39.4 42.9 L 35.4 46.4 L 33.8 48.7 L 32.8 49.7 L 31.9 50.4 L 29.5 51.4 L 28.5 52.3 L 27.6 54.1 L 27.7 56.3 L 26.1 61.2 L 25.8 63.0 L 26.0 64.5 L 27.2 68.9 L 26.7 75.4 L 27.1 77.0 L 28.4 81.0 L 28.5 82.0 L 28.3 82.7 L 27.1 82.9 L 25.9 82.7 L 21.6 80.6 L 13.3 77.8 L 9.7 75.9 L 6.8 73.5 L 5.0 71.1 L 1.7 64.2 L -2.2 58.1 L -3.8 56.3 L -8.4 51.8 L -11.3 48.3 L -12.5 46.1 L -14.7 40.3 L -17.1 35.4 L -17.9 34.2 L -20.0 31.8 L -21.4 30.8 L -23.9 29.7 L -30.7 27.6 L -36.1 25.3 L -38.5 24.9 L -41.5 25.0 L -43.6 25.6 L -45.2 27.0 L -46.1 29.0 L -47.6 33.7 L -48.4 35.1 L -49.3 36.1 L -51.3 36.3 L -54.3 36.1 L -56.3 35.7 L -57.7 34.9 L -60.6 32.2 L -66.2 28.0 L -68.2 26.1 L -69.2 24.5 L -70.2 22.5 L -71.9 16.6 L -72.9 13.9 L -74.1 11.6 L -75.3 9.7 L -77.7 6.9 L -81.6 3.5 L -85.4 -2.3 L -86.7 -3.9 L -88.0 -4.9 L -90.9 -5.9 L -91.9 -6.7 L -91.6 -11.1 L -91.3 -11.4 L -65.1 -9.6 L -48.3 -8.8 L -48.0 -8.9 L -45.3 -75.0 L -45.0 -75.3 L -43.9 -75.3 Z" fill="#ffffff" stroke="#333333" stroke-width="1.0" />
    </g>
    <g class="state state-UT" data-state="UT" transform="translate(175.5,176.2)">
      <path d="M 12.4 -38.8 L 10.5 -23.9 L 10.6 -23.6 L 32.5 -20.8 L 26.2 38.2 L -3.2 34.4 L -32.5 29.7 L -20.4 -44.0 L -4.5 -41.3 L 12.4 -38.8 Z" fill="#ffffff" stroke="#333333" stroke-width="1.0" />
    </g>
    <g class="state state-VA" data-state="VA" transform="translate(556.7,184.1)">
      <path d="M 13.4 -30.3 L 15.7 -28.7 L 16.2 -27.9 L 16.6 -27.0 L 16.7 -25.8 L 16.4 -23.0 L 16.3 -20.9 L 15.8 -20.2 L 15.6 -19.5 L 15.7 -18.7 L 16.4 -17.8 L 17.7 -16.7 L 19.8 -15.9 L 22.3 -15.4 L 26.2 -15.0 L 27.7 -14.6 L 29.2 -13.4 L 30.7 -10.9 L 30.8 -9.4 L 31.4 -7.1 L 31.3 -6.2 L 30.8 -6.0 L 30.2 -6.0 L 28.7 -7.2 L 28.1 -7.4 L 27.4 -7.2 L 27.2 -6.7 L 27.4 -6.1 L 27.9 -5.5 L 30.7 -4.0 L 31.0 -3.5 L 30.9 -3.1 L 30.4 -2.8 L 29.7 -2.7 L 27.2 -3.8 L 26.2 -3.9 L 25.3 -3.3 L 25.3 -2.9 L 25.5 -2.4 L 26.2 -1.9 L 28.2 -1.4 L 30.5 0.1 L 31.6 0.4 L 33.5 0.1 L 36.4 -1.7 L 37.6 -1.7 L 38.5 -1.1 L 39.3 -0.1 L 41.2 3.9 L 19.6 10.1 L -3.3 16.1 L -26.4 21.5 L -48.3 26.2 L -48.0 23.9 L -46.8 21.4 L -45.3 19.5 L -43.1 17.6 L -41.7 14.0 L -38.8 11.4 L -36.5 7.7 L -35.1 7.9 L -32.6 9.3 L -31.1 9.8 L -26.2 9.4 L -24.7 8.9 L -23.2 8.1 L -18.6 4.5 L -15.9 2.8 L -15.4 1.9 L -14.7 -0.2 L -15.0 -3.5 L -14.9 -4.6 L -12.1 -9.2 L -10.2 -15.1 L -9.7 -15.5 L -9.2 -15.5 L -7.5 -14.6 L -6.9 -14.4 L -6.1 -14.5 L -5.4 -15.0 L -4.6 -16.2 L -3.1 -20.0 L 0.1 -23.7 L 1.5 -27.0 L 2.3 -28.2 L 3.1 -28.5 L 4.5 -27.9 L 5.0 -28.0 L 6.7 -30.7 L 7.5 -32.5 L 8.8 -32.5 L 10.0 -32.2 L 13.4 -30.3 Z" fill="#ffffff" stroke="#333333" stroke-width="1.0" />
      <path d="M 38.4 -6.7 L 37.9 -6.8 L 37.5 -7.4 L 37.0 -9.2 L 36.5 -10.5 L 36.4 -12.2 L 37.0 -15.8 L 36.9 -17.7 L 39.3 -19.0 L 39.8 -15.9 L 39.8 -13.6 L 38.9 -7.4 L 38.4 -6.7 Z" fill="#ffffff" stroke="#333333" stroke-width="1.0" />
    </g>
    <g class="state state-VT" data-state="VT" transform="translate(598.0,65.6)">
      <path d="M 7.4 19.1 L 1.6 21.0 L 0.9 19.6 L -0.3 15.8 L -1.0 14.6 L -3.7 11.4 L -4.7 8.3 L -6.8 4.7 L -7.4 2.0 L -8.9 -1.9 L -9.4 -7.4 L -10.0 -9.3 L -10.8 -11.1 L 6.6 -17.5 L 7.2 -15.2 L 7.3 -10.5 L 7.0 -9.3 L 6.0 -7.5 L 5.8 -6.7 L 6.4 -0.6 L 5.8 5.3 L 6.1 7.8 L 6.8 11.3 L 6.6 14.3 L 7.4 19.1 Z" fill="#ffffff" stroke="#333333" stroke-width="1.0" />
    </g>
    <g class="state state-WA" data-state="WA" transform="translate(105.7,37.4)">
      <path d="M 33.0 9.5 L 29.4 26.3 L 29.2 27.7 L 29.3 28.6 L 23.2 27.5 L 10.1 24.3 L 3.9 24.6 L -1.2 23.8 L -4.6 24.3 L -6.4 24.3 L -12.7 22.4 L -14.3 22.2 L -16.1 22.3 L -19.4 21.3 L -26.9 20.2 L -29.9 19.2 L -31.4 18.2 L -32.5 16.9 L -31.5 12.3 L -31.2 12.2 L -31.1 11.7 L -31.2 10.7 L -31.9 9.5 L -32.9 8.2 L -34.0 7.4 L -38.9 5.3 L -39.7 4.4 L -40.1 3.4 L -40.0 2.8 L -39.6 2.6 L -38.1 3.5 L -37.7 3.5 L -37.1 2.8 L -36.7 1.8 L -36.6 0.4 L -37.7 -1.0 L -38.2 -2.2 L -38.2 -4.3 L -38.0 -5.0 L -37.6 -5.3 L -37.0 -5.3 L -36.2 -4.0 L -35.8 -3.7 L -35.2 -4.0 L -34.8 -4.7 L -35.1 -5.9 L -37.2 -7.3 L -37.5 -8.6 L -37.2 -14.0 L -38.3 -22.1 L -38.0 -23.6 L -36.5 -26.7 L -36.2 -26.9 L -35.2 -26.4 L -31.7 -23.6 L -28.8 -21.9 L -25.6 -19.1 L -24.4 -18.6 L -21.8 -18.0 L -21.1 -17.5 L -20.9 -16.9 L -21.3 -15.9 L -23.8 -13.4 L -24.9 -11.8 L -25.3 -10.8 L -25.1 -10.3 L -24.6 -10.4 L -21.8 -13.5 L -21.0 -13.9 L -20.4 -13.7 L -20.4 -12.2 L -20.8 -10.1 L -23.2 -5.8 L -23.2 -5.0 L -22.6 -4.6 L -21.5 -5.0 L -20.2 -6.5 L -18.2 -8.3 L -17.3 -9.8 L -15.2 -14.1 L -15.0 -15.3 L -15.5 -18.8 L -14.6 -21.7 L -14.8 -24.2 L -15.5 -27.7 L -15.3 -30.1 L 11.4 -22.5 L 38.5 -15.9 L 33.0 9.5 Z" fill="#ffffff" stroke="#333333" stroke-width="1.0" />
    </g>
    <g class="state state-WI" data-state="WI" transform="translate(416.1,99.3)">
      <path d="M 29.5 -5.4 L 26.5 5.0 L 25.7 8.9 L 25.3 12.7 L 25.1 18.8 L 25.3 22.1 L 25.7 24.5 L 27.7 30.6 L -0.2 34.5 L -3.7 32.3 L -5.0 31.0 L -7.6 28.9 L -8.7 27.5 L -9.5 24.9 L -9.8 19.5 L -10.2 17.6 L -10.8 15.7 L -12.0 14.1 L -14.1 12.3 L -17.1 11.1 L -18.2 10.5 L -22.5 6.5 L -27.8 2.4 L -29.3 0.7 L -30.1 -1.3 L -30.5 -3.7 L -30.1 -15.6 L -29.6 -17.3 L -27.6 -19.9 L -26.8 -21.4 L -26.6 -22.7 L -26.7 -27.2 L -26.3 -28.7 L -25.5 -30.1 L -22.9 -29.9 L -20.9 -30.4 L -19.2 -31.4 L -14.9 -34.8 L -13.6 -35.4 L -12.5 -35.7 L -11.9 -35.3 L -11.7 -34.5 L -12.8 -31.4 L -12.8 -30.8 L -12.5 -30.4 L -10.2 -29.7 L -7.8 -29.5 L -5.8 -30.0 L -4.1 -31.1 L -0.7 -27.2 L 1.0 -25.9 L 12.7 -22.7 L 15.3 -22.3 L 18.7 -20.9 L 19.9 -20.1 L 20.8 -18.5 L 22.3 -13.6 L 23.8 -11.3 L 25.0 -10.5 L 21.1 -3.2 L 20.5 -0.5 L 20.6 0.4 L 21.0 0.8 L 21.7 0.9 L 22.6 0.2 L 25.0 -3.3 L 27.1 -7.3 L 29.0 -10.5 L 29.6 -11.2 L 30.3 -11.5 L 30.7 -10.9 L 30.8 -9.5 L 29.5 -5.4 Z" fill="#ffffff" stroke="#333333" stroke-width="1.0" />
    </g>
    <g class="state state-WV" data-state="WV" transform="translate(534.4,170.2)">
      <path d="M 11.5 -18.9 L 13.0 -12.4 L 13.2 -12.4 L 14.1 -12.8 L 16.1 -14.6 L 18.5 -16.3 L 20.9 -17.7 L 22.7 -18.6 L 24.3 -19.0 L 25.7 -19.2 L 29.8 -18.6 L 28.9 -16.8 L 27.3 -14.1 L 26.8 -14.0 L 25.1 -14.6 L 24.2 -13.8 L 22.4 -9.8 L 19.2 -6.1 L 17.6 -2.3 L 16.8 -1.1 L 16.2 -0.6 L 15.4 -0.5 L 14.7 -0.6 L 13.1 -1.6 L 12.5 -1.6 L 12.1 -1.3 L 10.1 4.7 L 7.4 9.3 L 7.2 10.4 L 7.5 13.8 L 6.9 15.8 L 6.2 16.9 L 3.7 18.4 L -1.1 22.0 L -2.5 22.8 L -4.0 23.3 L -8.9 23.7 L -10.3 23.2 L -12.9 21.8 L -14.3 21.6 L -14.9 19.7 L -16.2 17.9 L -16.9 15.7 L -20.6 11.7 L -22.1 9.6 L -19.0 5.1 L -18.2 1.6 L -17.8 0.6 L -17.1 0.1 L -15.3 0.8 L -14.4 0.7 L -13.9 0.5 L -13.5 -0.7 L -12.8 -4.4 L -12.2 -6.0 L -11.2 -6.9 L -8.8 -8.2 L -8.0 -9.6 L -6.5 -14.1 L -5.9 -16.9 L -5.9 -19.2 L -6.7 -26.2 L -6.2 -28.8 L -5.3 -30.9 L -4.3 -31.7 L -0.6 -15.9 L 11.5 -18.9 Z" fill="#ffffff" stroke="#333333" stroke-width="1.0" />
    </g>
    <g class="state state-WY" data-state="WY" transform="translate(227.8,127.3)">
      <path d="M 39.5 -27.1 L 36.5 32.7 L 16.3 31.4 L -4.8 29.6 L -26.2 27.3 L -41.7 25.1 L -37.6 -7.3 L -33.9 -34.1 L -13.1 -31.5 L 4.0 -29.7 L 22.3 -28.1 L 39.5 -27.1 Z" fill="#ffffff" stroke="#333333" stroke-width="1.0" />
    </g>
  </g>
  <g class="offshore-boxes">
    <path d="M 637.9 97.1 L 685.7 97.1 L 685.7 126.1 L 637.9 126.1 Z" fill="#ffffff" stroke="#333333" stroke-width="1.0" class="offshore-box offshore-box-VT" data-state="VT" />
    <path d="M 637.9 127.8 L 685.7 127.8 L 685.7 156.8 L 637.9 156.8 Z" fill="#ffffff" stroke="#333333" stroke-width="1.0" class="offshore-box offshore-box-NH" data-state="NH" />
    <path d="M 637.9 158.5 L 685.7 158.5 L 685.7 187.5 L 637.9 187.5 Z" fill="#ffffff" stroke="#333333" stroke-width="1.0" class="offshore-box offshore-box-MA" data-state="MA" />
    <path d="M 637.9 189.2 L 685.7 189.2 L 685.7 218.2 L 637.9 218.2 Z" fill="#ffffff" stroke="#333333" stroke-width="1.0" class="offshore-box offshore-box-RI" data-state="RI" />
    <path d="M 637.9 219.9 L 685.7 219.9 L 685.7 248.9 L 637.9 248.9 Z" fill="#ffffff" stroke="#333333" stroke-width="1.0" class="offshore-box offshore-box-CT" data-state="CT" />
    <path d="M 637.9 250.6 L 685.7 250.6 L 685.7 279.6 L 637.9 279.6 Z" fill="#ffffff" stroke="#333333" stroke-width="1.0" class="offshore-box offshore-box-NJ" data-state="NJ" />
    <path d="M 637.9 281.3 L 685.7 281.3 L 685.7 310.3 L 637.9 310.3 Z" fill="#ffffff" stroke="#333333" stroke-width="1.0" class="offshore-box offshore-box-DE" data-state="DE" />
    <path d="M 637.9 312.1 L 685.7 312.1 L 685.7 341.1 L 637.9 341.1 Z" fill="#ffffff" stroke="#333333" stroke-width="1.0" class="offshore-box offshore-box-MD" data-state="MD" />
  </g>
  <g class="labels">
    <text x="95.9" y="346.4" text-anchor="middle" dominant-baseline="middle" class="label label-AK" data-state="AK" style="font-size:9px;font-weight:bold;fill:black;">AK</text>
    <text x="476.1" y="273.1" text-anchor="middle" dominant-baseline="middle" class="label label-AL" data-state="AL" style="font-size:9px;font-weight:bold;fill:black;">AL</text>
    <text x="402.9" y="250.1" text-anchor="middle" dominant-baseline="middle" class="label label-AR" data-state="AR" style="font-size:9px;font-weight:bold;fill:black;">AR</text>
    <text x="165.5" y="252.3" text-anchor="middle" dominant-baseline="middle" class="label label-AZ" data-state="AZ" style="font-size:9px;font-weight:bold;fill:black;">AZ</text>
    <text x="79.4" y="190.9" text-anchor="middle" dominant-baseline="middle" class="label label-CA" data-state="CA" style="font-size:9px;font-weight:bold;fill:black;">CA</text>
    <text x="244.5" y="188.5" text-anchor="middle" dominant-baseline="middle" class="label label-CO" data-state="CO" style="font-size:9px;font-weight:bold;fill:black;">CO</text>
    <text x="661.8" y="234.4" text-anchor="middle" dominant-baseline="middle" class="label label-CT" data-state="CT" style="font-size:9px;font-weight:bold;fill:black;">CT</text>
    <text x="573.1" y="155.3" text-anchor="middle" dominant-baseline="middle" class="label label-DC" data-state="DC" style="font-size:9px;font-weight:bold;fill:black;">DC</text>
    <text x="661.8" y="295.8" text-anchor="middle" dominant-baseline="middle" class="label label-DE" data-state="DE" style="font-size:9px;font-weight:bold;fill:black;">DE</text>
    <text x="542.4" y="325.0" text-anchor="middle" dominant-baseline="middle" class="label label-FL" data-state="FL" style="font-size:9px;font-weight:bold;fill:black;">FL</text>
    <text x="519.1" y="267.7" text-anchor="middle" dominant-baseline="middle" class="label label-GA" data-state="GA" style="font-size:9px;font-weight:bold;fill:black;">GA</text>
    <text x="242.1" y="381.2" text-anchor="middle" dominant-baseline="middle" class="label label-HI" data-state="HI" style="font-size:9px;font-weight:bold;fill:black;">HI</text>
    <text x="381.9" y="142.2" text-anchor="middle" dominant-baseline="middle" class="label label-IA" data-state="IA" style="font-size:9px;font-weight:bold;fill:black;">IA</text>
    <text x="154.9" y="95.7" text-anchor="middle" dominant-baseline="middle" class="label label-ID" data-state="ID" style="font-size:9px;font-weight:bold;fill:black;">ID</text>
    <text x="433.8" y="167.7" text-anchor="middle" dominant-baseline="middle" class="label label-IL" data-state="IL" style="font-size:9px;font-weight:bold;fill:black;">IL</text>
    <text x="467.6" y="164.1" text-anchor="middle" dominant-baseline="middle" class="label label-IN" data-state="IN" style="font-size:9px;font-weight:bold;fill:black;">IN</text>
    <text x="327.9" y="198.5" text-anchor="middle" dominant-baseline="middle" class="label label-KS" data-state="KS" style="font-size:9px;font-weight:bold;fill:black;">KS</text>
    <text x="482.7" y="199.4" text-anchor="middle" dominant-baseline="middle" class="label label-KY" data-state="KY" style="font-size:9px;font-weight:bold;fill:black;">KY</text>
    <text x="412.3" y="307.0" text-anchor="middle" dominant-baseline="middle" class="label label-LA" data-state="LA" style="font-size:9px;font-weight:bold;fill:black;">LA</text>
    <text x="661.8" y="173.0" text-anchor="middle" dominant-baseline="middle" class="label label-MA" data-state="MA" style="font-size:9px;font-weight:bold;fill:black;">MA</text>
    <text x="661.8" y="326.6" text-anchor="middle" dominant-baseline="middle" class="label label-MD" data-state="MD" style="font-size:9px;font-weight:bold;fill:black;">MD</text>
    <text x="624.9" y="33.1" text-anchor="middle" dominant-baseline="middle" class="label label-ME" data-state="ME" style="font-size:9px;font-weight:bold;fill:black;">ME</text>
    <text x="476.1" y="107.8" text-anchor="middle" dominant-baseline="middle" class="label label-MI" data-state="MI" style="font-size:9px;font-weight:bold;fill:black;">MI</text>
    <text x="369.6" y="77.6" text-anchor="middle" dominant-baseline="middle" class="label label-MN" data-state="MN" style="font-size:9px;font-weight:bold;fill:black;">MN</text>
    <text x="398.3" y="197.1" text-anchor="middle" dominant-baseline="middle" class="label label-MO" data-state="MO" style="font-size:9px;font-weight:bold;fill:black;">MO</text>
    <text x="440.2" y="278.6" text-anchor="middle" dominant-baseline="middle" class="label label-MS" data-state="MS" style="font-size:9px;font-weight:bold;fill:black;">MS</text>
    <text x="212.6" y="63.4" text-anchor="middle" dominant-baseline="middle" class="label label-MT" data-state="MT" style="font-size:9px;font-weight:bold;fill:black;">MT</text>
    <text x="559.9" y="213.4" text-anchor="middle" dominant-baseline="middle" class="label label-NC" data-state="NC" style="font-size:9px;font-weight:bold;fill:black;">NC</text>
    <text x="305.4" y="63.5" text-anchor="middle" dominant-baseline="middle" class="label label-ND" data-state="ND" style="font-size:9px;font-weight:bold;fill:black;">ND</text>
    <text x="311.9" y="152.8" text-anchor="middle" dominant-baseline="middle" class="label label-NE" data-state="NE" style="font-size:9px;font-weight:bold;fill:black;">NE</text>
    <text x="661.8" y="142.3" text-anchor="middle" dominant-baseline="middle" class="label label-NH" data-state="NH" style="font-size:9px;font-weight:bold;fill:black;">NH</text>
    <text x="661.8" y="265.1" text-anchor="middle" dominant-baseline="middle" class="label label-NJ" data-state="NJ" style="font-size:9px;font-weight:bold;fill:black;">NJ</text>
    <text x="232.8" y="257.0" text-anchor="middle" dominant-baseline="middle" class="label label-NM" data-state="NM" style="font-size:9px;font-weight:bold;fill:black;">NM</text>
    <text x="118.9" y="167.1" text-anchor="middle" dominant-baseline="middle" class="label label-NV" data-state="NV" style="font-size:9px;font-weight:bold;fill:black;">NV</text>
    <text x="574.0" y="90.6" text-anchor="middle" dominant-baseline="middle" class="label label-NY" data-state="NY" style="font-size:9px;font-weight:bold;fill:black;">NY</text>
    <text x="505.7" y="150.9" text-anchor="middle" dominant-baseline="middle" class="label label-OH" data-state="OH" style="font-size:9px;font-weight:bold;fill:black;">OH</text>
    <text x="339.4" y="242.2" text-anchor="middle" dominant-baseline="middle" class="label label-OK" data-state="OK" style="font-size:9px;font-weight:bold;fill:black;">OK</text>
    <text x="91.3" y="88.0" text-anchor="middle" dominant-baseline="middle" class="label label-OR" data-state="OR" style="font-size:9px;font-weight:bold;fill:black;">OR</text>
    <text x="558.5" y="128.7" text-anchor="middle" dominant-baseline="middle" class="label label-PA" data-state="PA" style="font-size:9px;font-weight:bold;fill:black;">PA</text>
    <text x="661.8" y="203.7" text-anchor="middle" dominant-baseline="middle" class="label label-RI" data-state="RI" style="font-size:9px;font-weight:bold;fill:black;">RI</text>
    <text x="546.9" y="241.3" text-anchor="middle" dominant-baseline="middle" class="label label-SC" data-state="SC" style="font-size:9px;font-weight:bold;fill:black;">SC</text>
    <text x="307.6" y="108.7" text-anchor="middle" dominant-baseline="middle" class="label label-SD" data-state="SD" style="font-size:9px;font-weight:bold;fill:black;">SD</text>
    <text x="475.3" y="227.1" text-anchor="middle" dominant-baseline="middle" class="label label-TN" data-state="TN" style="font-size:9px;font-weight:bold;fill:black;">TN</text>
    <text x="316.4" y="303.9" text-anchor="middle" dominant-baseline="middle" class="label label-TX" data-state="TX" style="font-size:9px;font-weight:bold;fill:black;">TX</text>
    <text x="175.5" y="176.2" text-anchor="middle" dominant-baseline="middle" class="label label-UT" data-state="UT" style="font-size:9px;font-weight:bold;fill:black;">UT</text>
    <text x="556.7" y="184.1" text-anchor="middle" dominant-baseline="middle" class="label label-VA" data-state="VA" style="font-size:9px;font-weight:bold;fill:black;">VA</text>
    <text x="661.8" y="111.6" text-anchor="middle" dominant-baseline="middle" class="label label-VT" data-state="VT" style="font-size:9px;font-weight:bold;fill:black;">VT</text>
    <text x="105.7" y="37.4" text-anchor="middle" dominant-baseline="middle" class="label label-WA" data-state="WA" style="font-size:9px;font-weight:bold;fill:black;">WA</text>
    <text x="416.1" y="99.3" text-anchor="middle" dominant-baseline="middle" class="label label-WI" data-state="WI" style="font-size:9px;font-weight:bold;fill:black;">WI</text>
    <text x="534.4" y="170.2" text-anchor="middle" dominant-baseline="middle" class="label label-WV" data-state="WV" style="font-size:9px;font-weight:bold;fill:black;">WV</text>
    <text x="227.8" y="127.3" text-anchor="middle" dominant-baseline="middle" class="label label-WY" data-state="WY" style="font-size:9px;font-weight:bold;fill:black;">WY</text>
  </g>
</svg>