<?xml version="1.0" encoding="utf-8" standalone="no"?>
<!DOCTYPE svg PUBLIC "-//W3C//DTD SVG 1.1//EN"
  "http://www.w3.org/Graphics/SVG/1.1/DTD/svg11.dtd">
<svg xmlns:xlink="http://www.w3.org/1999/xlink" width="895.665774pt" height="568.8pt" viewBox="0 0 895.665774 568.8" xmlns="http://www.w3.org/2000/svg" version="1.1">
 <metadata>
  <rdf:RDF xmlns:dc="http://purl.org/dc/elements/1.1/" xmlns:cc="http://creativecommons.org/ns#" xmlns:rdf="http://www.w3.org/1999/02/22-rdf-syntax-ns#">
   <cc:Work>
    <dc:type rdf:resource="http://purl.org/dc/dcmitype/StillImage"/>
    <dc:date>2025-10-23T12:22:25.024127</dc:date>
    <dc:format>image/svg+xml</dc:format>
    <dc:creator>
     <cc:Agent>
      <dc:title>Matplotlib v3.10.7, https://matplotlib.org/</dc:title>
     </cc:Agent>
    </dc:creator>
   </cc:Work>
  </rdf:RDF>
 </metadata>
 <defs>
  <style type="text/css">*{stroke-linejoin: round; stroke-linecap: butt}</style>
 </defs>
 <g id="figure_1">
  <g id="patch_1">
   <path d="M 0 568.8 
L 895.665774 568.8 
L 895.665774 0 
L 0 0 
L 0 568.8 
z
" style="fill: none; opacity: 0"/>
  </g>
  <g id="axes_1">
   <g id="PatchCollection_1">
    <path d="M 661.505833 389.214607 
L 662.302146 394.443509 
L 662.437974 397.765323 
L 663.765017 401.610411 
L 664.431809 405.965641 
L 625.83821 412.29595 
L 625.337352 412.785915 
L 625.211099 414.590485 
L 626.864536 421.168653 
L 621.513814 423.237914 
L 620.694904 423.287243 
L 620.064733 422.507057 
L 620.097811 419.68719 
L 619.621845 418.446411 
L 618.572505 417.449921 
L 617.183576 417.354022 
L 616.598639 417.755833 
L 616.269687 418.680079 
L 616.311157 423.58039 
L 615.946891 424.696321 
L 614.578707 425.578672 
L 611.432147 425.983739 
L 609.655262 412.500707 
L 607.442873 399.155814 
L 607.339786 374.447633 
L 606.74365 338.062523 
L 644.905164 332.103983 
L 661.817108 379.175807 
L 662.178852 382.014405 
z
" clip-path="url(#pd147e5fe1d)" style="fill: #ffffff; stroke: #333333"/>
    <path d="M 49.221285 514.967915 
L 50.030068 515.985379 
L 50.046379 516.342653 
L 47.342974 516.044447 
L 47.257535 515.418491 
L 47.518381 514.950315 
L 48.563302 514.591781 
L 48.825056 514.015314 
L 49.64904 514.292022 
z
" clip-path="url(#pd147e5fe1d)" style="fill: #ffffff; stroke: #333333"/>
    <path d="M 60.058358 519.85313 
L 61.451763 521.425825 
L 59.187564 520.506035 
L 57.385933 518.610776 
L 55.904959 518.147517 
L 53.333345 516.697036 
L 55.79481 517.330708 
L 57.084994 517.935996 
L 57.74524 516.51589 
L 58.487121 516.654552 
L 58.852535 516.939745 
L 58.792961 517.436965 
L 57.870855 518.189946 
z
" clip-path="url(#pd147e5fe1d)" style="fill: #ffffff; stroke: #333333"/>
    <path d="M 75.823198 523.829903 
L 77.061286 523.431391 
L 78.321494 521.902577 
L 79.533529 522.107132 
L 80.056781 520.938137 
L 81.324226 520.920837 
L 81.888118 521.583667 
L 81.234988 522.525335 
L 79.708395 522.877631 
L 78.228592 523.819246 
z
" clip-path="url(#pd147e5fe1d)" style="fill: #ffffff; stroke: #333333"/>
    <path d="M 87.043372 521.322537 
L 88.014542 520.954529 
L 88.256365 521.219434 
L 88.541818 522.367782 
L 87.533254 523.146807 
L 85.82481 523.549086 
L 82.464651 523.81975 
L 81.266123 523.052823 
L 81.752525 522.611369 
L 83.557786 522.771172 
L 84.380696 522.08158 
L 85.403762 521.840051 
L 85.096115 520.520172 
L 85.273505 520.136862 
L 87.135358 520.293977 
z
" clip-path="url(#pd147e5fe1d)" style="fill: #ffffff; stroke: #333333"/>
    <path d="M 209.624795 528.008905 
L 210.583584 529.227285 
L 211.041716 530.458794 
L 211.70324 531.155125 
L 211.974706 532.100957 
L 212.870546 533.499916 
L 213.375321 535.92246 
L 213.171404 536.387096 
L 211.889642 536.281513 
L 210.152677 534.36567 
L 210.033165 534.748837 
L 210.539093 536.003813 
L 210.100244 536.394348 
L 209.663073 536.4 
L 208.049609 534.151446 
L 207.792988 533.025722 
L 207.211333 532.97446 
L 207.438334 532.287505 
L 208.676662 531.089915 
L 206.96766 530.46201 
L 206.968187 529.865837 
L 207.6082 528.628957 
L 207.296417 528.209137 
L 206.632966 528.826317 
L 206.288197 528.653558 
L 206.369711 527.093672 
L 205.983091 525.660494 
L 207.641111 525.750247 
L 208.730909 527.405216 
z
" clip-path="url(#pd147e5fe1d)" style="fill: #ffffff; stroke: #333333"/>
    <path d="M 201.555761 519.665638 
L 202.158319 522.635301 
L 202.43522 527.088491 
L 201.986918 526.679254 
L 200.998494 524.486855 
L 199.919779 522.849849 
L 199.951749 520.836139 
L 199.467339 519.877511 
L 199.119757 521.14463 
L 198.221127 521.79626 
L 198.374874 520.578765 
L 198.046699 518.268976 
L 195.840986 515.084077 
L 195.776748 514.245845 
L 196.756692 513.495269 
L 198.098414 512.994426 
L 201.085132 514.883581 
L 201.355767 517.792226 
L 201.267006 518.540067 
L 200.950044 518.804009 
z
" clip-path="url(#pd147e5fe1d)" style="fill: #ffffff; stroke: #333333"/>
    <path d="M 142.306297 510.577018 
L 141.889931 511.917274 
L 142.015363 513.09745 
L 141.678442 513.78831 
L 138.338071 515.859165 
L 137.117462 515.602041 
L 135.353278 517.018904 
L 134.721917 517.186013 
L 135.281031 515.919248 
L 134.142481 515.708484 
L 133.697079 515.361636 
L 133.728704 512.015505 
L 136.996666 509.673424 
L 138.58214 509.227648 
L 140.937536 507.037688 
L 143.371741 505.774338 
L 143.022658 506.920127 
L 144.053329 508.110523 
L 144.29344 509.009722 
L 143.919417 509.192067 
L 141.741603 509.077549 
L 141.169136 509.833746 
z
" clip-path="url(#pd147e5fe1d)" style="fill: #ffffff; stroke: #333333"/>
    <path d="M 106.218252 480.102491 
L 106.647974 480.288456 
L 106.855913 480.77258 
L 106.192959 483.330151 
L 103.92787 483.168979 
L 102.644501 481.698604 
L 101.844348 480.004817 
L 101.783986 479.264212 
L 102.039976 478.786766 
L 103.309649 479.80333 
L 104.707236 479.309809 
L 105.939296 479.443576 
z
" clip-path="url(#pd147e5fe1d)" style="fill: #ffffff; stroke: #333333"/>
    <path d="M 103.738629 452.765053 
L 105.689578 452.71305 
L 106.093058 453.788308 
L 105.891882 454.823963 
L 107.062366 456.606052 
L 108.219052 457.441256 
L 108.143095 458.041274 
L 107.430092 458.17028 
L 106.086901 457.595535 
L 105.525118 457.915956 
L 105.175685 458.709089 
L 104.800758 458.545737 
L 104.700868 456.841304 
L 103.829605 453.998964 
L 103.178391 453.444605 
L 101.991811 453.777039 
L 101.413406 452.876061 
L 101.647396 451.703164 
L 102.680522 450.255037 
L 103.146209 451.939829 
z
" clip-path="url(#pd147e5fe1d)" style="fill: #ffffff; stroke: #333333"/>
    <path d="M 158.539843 422.470263 
L 159.398366 422.188627 
L 160.404789 420.818766 
L 160.73456 420.746055 
L 161.442797 421.386472 
L 161.036158 422.833245 
L 161.550839 423.456704 
L 163.720612 423.383026 
L 165.6728 424.226499 
L 165.676847 424.56745 
L 164.955102 425.277093 
L 165.070062 425.992944 
L 166.407664 426.522624 
L 165.621867 427.096794 
L 171.11837 428.061327 
L 173.550007 429.62934 
L 174.680593 430.781544 
L 177.801989 431.548767 
L 179.792648 433.217046 
L 182.440229 432.432883 
L 183.962002 432.85632 
L 187.75289 436.39894 
L 181.170982 498.687961 
L 182.228708 500.125324 
L 183.406385 500.738169 
L 184.29018 500.524481 
L 186.239858 499.046702 
L 186.822379 499.136763 
L 188.429777 502.279538 
L 189.677789 503.66304 
L 191.240411 506.576959 
L 192.119818 507.320061 
L 194.008956 507.794639 
L 194.616486 507.649867 
L 195.514814 504.17301 
L 196.589627 503.072241 
L 198.654514 503.001129 
L 200.334058 503.949446 
L 203.43476 508.577857 
L 206.102505 511.737058 
L 208.389904 515.945112 
L 210.198883 518.357146 
L 212.021504 521.90727 
L 212.981442 522.705826 
L 216.180713 524.430432 
L 219.002222 527.283277 
L 219.547708 528.803797 
L 220.085508 532.122271 
L 218.36917 535.924365 
L 217.897652 535.805259 
L 216.571828 534.392637 
L 214.39893 533.643852 
L 213.690925 533.032532 
L 213.118258 531.101468 
L 211.950031 529.847704 
L 209.879395 526.393631 
L 209.970138 525.886106 
L 210.91284 525.26116 
L 211.050148 524.875498 
L 210.448955 523.338481 
L 209.525878 522.438309 
L 209.364422 522.624214 
L 209.80427 523.872594 
L 209.634883 524.129554 
L 208.281723 524.643547 
L 207.408787 524.683301 
L 206.495044 525.221497 
L 205.853634 524.273412 
L 205.428109 524.260511 
L 205.286505 524.68039 
L 205.617384 526.564691 
L 204.884543 527.686561 
L 204.338042 527.413046 
L 204.339393 525.08029 
L 203.367751 523.032914 
L 203.650173 521.620986 
L 204.03792 521.716683 
L 204.996294 523.036953 
L 205.459637 522.165713 
L 205.044589 520.766416 
L 207.152872 521.051846 
L 208.274916 522.015977 
L 208.803832 521.077645 
L 206.564007 520.077467 
L 206.440522 519.72965 
L 206.725308 518.916007 
L 205.529769 516.10456 
L 204.693978 514.973088 
L 203.763439 514.32496 
L 204.815127 516.354424 
L 204.971618 518.358367 
L 203.373111 521.419669 
L 203.103586 521.396982 
L 200.949296 512.088277 
L 201.781145 512.454711 
L 201.906638 512.172614 
L 200.717203 510.04986 
L 200.125676 507.720098 
L 199.29201 506.256636 
L 199.119381 506.327015 
L 199.895796 510.594322 
L 200.645972 512.303928 
L 200.646536 513.738731 
L 199.13525 512.413766 
L 198.04906 512.763855 
L 197.651251 509.84822 
L 197.176591 508.952648 
L 196.168129 509.468865 
L 194.577005 508.655539 
L 196.524207 510.595873 
L 197.307396 511.948715 
L 197.320394 512.422572 
L 196.357005 512.860104 
L 194.52775 512.446741 
L 193.905263 512.763301 
L 191.701964 510.849529 
L 189.540512 507.690548 
L 184.8728 504.801153 
L 185.966529 503.215309 
L 185.663657 502.184907 
L 183.845189 503.22099 
L 182.436884 503.474942 
L 179.323771 501.527055 
L 176.597154 500.435998 
L 175.254197 500.32357 
L 171.986867 500.838476 
L 170.499442 499.362961 
L 168.07436 498.141198 
L 166.173911 496.746895 
L 163.50765 498.111886 
L 163.496707 496.481723 
L 164.926174 496.420365 
L 166.170279 495.836306 
L 164.911926 495.431058 
L 164.235144 494.897417 
L 163.969427 493.159155 
L 162.221358 493.540923 
L 160.232037 493.363986 
L 159.193799 494.373296 
L 159.158742 495.143916 
L 159.987287 495.645929 
L 160.09746 495.975111 
L 159.361836 497.519474 
L 159.679617 498.213126 
L 159.151786 499.755161 
L 158.010646 498.866486 
L 156.461738 499.324787 
L 155.497714 498.659409 
L 152.913546 499.889091 
L 151.345373 501.578796 
L 149.708389 502.133054 
L 148.968371 502.711649 
L 147.158388 502.76192 
L 145.258819 502.098288 
L 145.254147 501.68225 
L 146.283702 500.597005 
L 148.322928 500.012642 
L 149.343266 498.871191 
L 148.153108 499.513602 
L 146.776811 499.503924 
L 146.478395 499.174928 
L 147.173171 497.055707 
L 149.176774 494.912754 
L 149.363191 491.970235 
L 151.388372 491.619631 
L 152.771571 490.657287 
L 153.48903 491.766971 
L 154.65537 491.559857 
L 155.982835 492.680658 
L 156.596492 492.603863 
L 156.43827 492.079239 
L 154.526204 490.725886 
L 154.375878 490.213399 
L 154.868831 489.413502 
L 154.709002 488.921593 
L 154.1142 489.460905 
L 152.246237 488.947333 
L 150.148819 490.282907 
L 148.47323 490.814335 
L 148.304373 491.118761 
L 148.577923 492.216584 
L 147.551489 492.216934 
L 146.61349 493.232123 
L 144.426835 496.587362 
L 143.187468 497.560797 
L 140.631438 498.525676 
L 138.669609 500.283144 
L 138.524207 500.619477 
L 138.73733 500.978731 
L 140.589465 502.284862 
L 140.496531 503.474938 
L 140.049066 504.389203 
L 138.255615 505.351749 
L 136.699349 507.293231 
L 130.316634 510.088608 
L 128.703336 511.694504 
L 127.358596 512.415402 
L 127.075124 513.319681 
L 124.40807 513.901587 
L 122.210285 514.851612 
L 119.911804 515.20834 
L 119.635229 515.624264 
L 120.197407 516.438371 
L 118.632984 518.146881 
L 116.051517 517.940792 
L 113.905057 519.55842 
L 114.021185 518.26261 
L 113.771173 517.965219 
L 111.500547 518.953398 
L 109.825201 518.88213 
L 107.855481 519.193396 
L 107.673938 518.597214 
L 108.395218 517.684946 
L 107.675865 517.256857 
L 107.16023 517.546918 
L 105.818203 519.384298 
L 104.268264 520.098192 
L 102.406305 519.796866 
L 99.921676 520.922895 
L 97.94121 520.303743 
L 95.527481 520.739563 
L 94.73055 520.618806 
L 94.283921 520.261024 
L 94.327089 519.417712 
L 96.32143 517.468198 
L 97.23236 517.93613 
L 101.97479 517.923377 
L 106.154968 515.141044 
L 108.812041 514.677716 
L 109.859174 514.809863 
L 110.897841 515.94292 
L 111.529422 516.08982 
L 112.893153 514.479087 
L 115.225478 512.925761 
L 118.729751 511.849543 
L 119.392953 512.458729 
L 120.444675 510.792479 
L 122.109648 509.183588 
L 123.564722 508.220994 
L 124.884925 507.965614 
L 125.887124 504.733994 
L 125.975221 503.403293 
L 127.3533 501.792123 
L 128.769621 501.026989 
L 129.430671 500.339979 
L 128.776764 500.163772 
L 125.14759 500.999689 
L 124.421718 500.141058 
L 124.106259 498.85389 
L 123.791078 498.641673 
L 123.373031 499.158043 
L 123.052168 501.061666 
L 122.192583 501.72521 
L 121.143169 498.282183 
L 120.109788 498.008485 
L 118.674148 495.864865 
L 118.068328 496.028421 
L 117.338601 497.462848 
L 116.370622 498.348116 
L 115.24489 497.060628 
L 113.92682 497.402721 
L 113.329017 497.21521 
L 113.211802 496.297178 
L 114.699367 495.118231 
L 114.389011 492.622732 
L 115.887701 491.012258 
L 116.137811 486.502539 
L 115.872232 486.293587 
L 114.723994 486.873555 
L 112.417939 487.144603 
L 110.487301 486.392165 
L 110.164876 485.741601 
L 110.054589 483.871947 
L 108.100919 480.03241 
L 108.26719 479.536491 
L 109.826613 479.09879 
L 110.58214 478.014271 
L 110.317231 476.402027 
L 109.835116 476.286623 
L 109.558329 475.897943 
L 109.587589 474.515015 
L 109.188045 473.819694 
L 109.49389 473.322074 
L 109.570823 471.624028 
L 110.037357 470.898313 
L 112.015832 469.472499 
L 114.293211 467.207586 
L 115.774255 467.022036 
L 117.279492 464.480896 
L 118.339035 463.501052 
L 120.226431 464.003841 
L 120.548711 464.56871 
L 120.587245 465.596163 
L 122.126612 466.446777 
L 124.337753 464.762322 
L 124.552381 464.25614 
L 124.372959 463.58308 
L 124.880943 463.093694 
L 125.393677 464.937744 
L 126.983039 465.48609 
L 128.292822 465.418562 
L 129.856892 463.210895 
L 130.142155 460.071074 
L 129.472063 459.337366 
L 129.527595 458.659132 
L 129.922017 458.539323 
L 130.728031 459.06982 
L 132.005381 457.92852 
L 131.664094 456.839911 
L 131.231756 456.485178 
L 130.005223 457.032852 
L 127.751911 457.016828 
L 126.111436 458.277787 
L 125.975558 457.391445 
L 125.32281 457.492294 
L 124.637775 456.198907 
L 122.486242 455.134548 
L 120.543316 454.908003 
L 118.626795 453.266659 
L 118.28767 452.533995 
L 118.556011 448.326292 
L 118.67903 448.19259 
L 118.789537 448.549027 
L 119.603917 448.818242 
L 120.075625 448.50183 
L 119.79012 447.725434 
L 117.659315 445.196557 
L 117.368665 444.45886 
L 117.463526 443.881579 
L 118.206948 443.455775 
L 124.569625 442.34499 
L 129.120524 442.207908 
L 130.417271 443.070032 
L 129.13543 444.583335 
L 128.66694 445.739443 
L 128.77269 446.071512 
L 131.012439 447.162844 
L 132.65241 448.563292 
L 134.051838 447.288553 
L 134.951671 447.776126 
L 135.433282 447.257541 
L 135.277703 446.813693 
L 134.334726 446.305096 
L 133.328042 446.438103 
L 134.272989 444.794849 
L 133.475313 443.201902 
L 133.443491 442.354932 
L 133.665334 442.002482 
L 134.366402 442.145528 
L 134.516586 443.215712 
L 134.84521 443.432727 
L 136.020422 442.635633 
L 135.552609 442.023658 
L 133.259258 441.092873 
L 131.74553 439.916012 
L 132.359633 437.535439 
L 132.371629 435.964498 
L 131.025623 431.780152 
L 130.25319 430.558507 
L 129.980445 429.500719 
L 130.004345 428.631225 
L 131.264415 427.489974 
L 132.354834 425.895715 
L 135.530892 427.335044 
L 138.089632 427.150424 
L 139.388896 426.49698 
L 141.63339 423.725471 
L 144.455511 421.547575 
L 145.452771 421.172838 
L 146.216027 421.824745 
L 147.520639 421.713942 
L 151.363273 419.64178 
L 151.843839 419.708866 
L 152.511714 420.389715 
L 154.760933 420.767337 
L 156.532611 420.043632 
L 158.050674 418.476602 
L 159.463785 419.726071 
L 159.774876 420.594002 
L 159.586479 421.042241 
L 158.379686 421.418029 
z
" clip-path="url(#pd147e5fe1d)" style="fill: #ffffff; stroke: #333333"/>
    <path d="M 286.236237 302.486126 
L 275.131909 413.900612 
L 242.282308 409.891964 
L 215.111948 391.875981 
L 186.986884 372.374131 
L 186.208 372.04975 
L 186.617679 372.102492 
L 188.962716 366.721887 
L 189.390206 364.87336 
L 189.492542 361.929125 
L 190.077522 360.091805 
L 191.216204 358.366235 
L 195.205573 353.959367 
L 196.273924 351.920749 
L 196.948621 349.674038 
L 197.270782 347.108025 
L 197.255632 343.753076 
L 196.14217 335.1559 
L 196.021342 332.234071 
L 197.709399 322.003605 
L 198.389361 310.954855 
L 198.791631 308.731667 
L 199.92924 306.843572 
L 200.753296 306.204919 
L 201.471399 306.049118 
L 202.995408 306.850641 
L 204.723039 309.523753 
L 205.268503 309.983324 
L 206.652274 310.105723 
L 207.811237 309.27585 
L 208.980433 306.893484 
L 211.102796 299.481775 
L 212.308462 291.822555 
L 249.173419 297.704539 
z
" clip-path="url(#pd147e5fe1d)" style="fill: #ffffff; stroke: #333333"/>
    <path d="M 572.348136 313.128433 
L 572.632966 314.414794 
L 572.233071 316.178459 
L 570.363863 320.631764 
L 570.211342 321.964941 
L 570.462146 323.01683 
L 570.972319 323.207465 
L 579.245891 322.181275 
L 577.664393 329.386165 
L 575.306451 332.188809 
L 574.614896 333.697346 
L 574.230331 336.147419 
L 574.076041 340.519494 
L 572.982112 344.047351 
L 571.575304 346.939127 
L 569.096589 349.736317 
L 568.215975 351.163666 
L 562.675038 366.415984 
L 562.155818 368.787696 
L 562.119011 370.635533 
L 563.241768 374.825595 
L 563.423547 376.846249 
L 563.233976 378.88127 
L 562.523693 381.498813 
L 539.094445 383.83212 
L 515.618951 385.75942 
L 514.948712 376.210319 
L 514.383696 375.693228 
L 510.709622 374.447075 
L 507.846714 330.191896 
L 507.35693 328.469278 
L 504.950747 322.877881 
L 503.690768 318.976928 
L 536.804142 316.549387 
z
" clip-path="url(#pd147e5fe1d)" style="fill: #ffffff; stroke: #333333"/>
    <path d="M 144.830455 257.221989 
L 169.197881 293.186979 
L 182.490725 311.903326 
L 196.205012 330.616917 
L 196.072183 334.419881 
L 197.283747 344.357458 
L 197.250704 347.426306 
L 196.877191 349.996556 
L 196.208234 352.080031 
L 195.205573 353.959367 
L 191.216204 358.366235 
L 190.020716 360.213887 
L 189.48522 361.976387 
L 189.395335 364.825637 
L 189.075179 366.35525 
L 186.617679 372.102492 
L 149.694266 367.951161 
L 147.370499 360.710763 
L 144.589601 354.883259 
L 133.607314 339.297794 
L 131.180846 336.216873 
L 128.42722 333.621905 
L 123.530311 330.369206 
L 117.829081 325.929115 
L 108.260591 321.366245 
L 106.761051 320.044177 
L 105.615441 318.277706 
L 104.926516 315.854439 
L 104.571955 309.322002 
L 103.232466 302.988252 
L 97.611659 290.368467 
L 95.291787 283.362205 
L 91.592305 276.106164 
L 91.067931 274.50518 
L 91.10831 273.161064 
L 91.518549 272.483603 
L 92.281981 272.367851 
L 94.026446 273.170689 
L 94.831796 273.221316 
L 95.486527 272.664259 
L 95.852664 271.196961 
L 95.900629 268.963997 
L 95.400561 267.048493 
L 94.55561 265.654727 
L 92.381646 263.893183 
L 90.92727 261.974131 
L 90.057563 259.78387 
L 89.693071 257.060508 
L 89.785292 253.834951 
L 90.318776 253.246414 
L 90.965744 253.264362 
L 91.533609 253.634155 
L 93.534545 256.531838 
L 94.284087 256.652103 
L 94.910427 255.932608 
L 95.450252 253.272961 
L 95.010702 246.560759 
L 94.326527 245.58682 
L 92.941844 245.035963 
L 92.222137 245.296125 
L 89.788016 247.417677 
L 88.905334 247.444113 
L 88.265363 246.816639 
L 86.52478 241.831466 
L 86.105777 238.263318 
L 85.549733 236.043553 
L 81.939857 228.508338 
L 81.073694 225.198685 
L 81.096092 222.209517 
L 82.467985 213.615217 
L 82.746096 208.834375 
L 82.357625 203.301626 
L 80.899916 194.612509 
L 80.859537 191.338061 
L 82.75486 185.650164 
L 86.043214 178.151914 
L 87.35608 174.524157 
L 87.815877 172.529267 
L 88.060055 168.748775 
L 88.638877 165.092127 
L 117.297888 173.658487 
L 146.228737 181.448373 
L 132.628549 237.935131 
L 132.783929 238.551957 
z
" clip-path="url(#pd147e5fe1d)" style="fill: #ffffff; stroke: #333333"/>
    <path d="M 365.024941 234.019869 
L 390.636617 235.081429 
L 391.017154 235.352843 
L 389.016415 309.950999 
L 363.14154 308.861791 
L 336.520295 307.190102 
L 311.348914 305.088636 
L 286.236237 302.486126 
L 294.171159 228.150235 
L 329.541677 231.622067 
z
" clip-path="url(#pd147e5fe1d)" style="fill: #ffffff; stroke: #333333"/>
    <path d="M 809.006749 147.223915 
L 810.821994 153.763983 
L 813.517453 161.571893 
L 808.847695 163.050931 
L 805.477858 164.8546 
L 791.977737 175.207452 
L 791.01728 174.098503 
L 790.781677 173.088913 
L 792.488054 169.833016 
L 792.606505 167.052088 
L 791.875889 164.296605 
L 789.957299 159.180827 
L 788.782711 154.141095 
z
" clip-path="url(#pd147e5fe1d)" style="fill: #ffffff; stroke: #333333"/>
    <path d="M 773.425238 206.118471 
L 773.730799 208.492215 
L 774.605845 210.393084 
L 775.895088 212.057562 
L 775.852532 213.487192 
L 776.219275 215.203289 
L 777.80514 218.269003 
L 778.784571 219.250366 
L 780.09479 220.003995 
L 784.776943 221.109644 
L 786.431687 222.608666 
L 787.029557 224.838771 
L 786.74354 228.54139 
L 778.074514 231.01636 
L 777.577729 231.056908 
L 777.3598 230.815489 
L 771.76624 215.191396 
L 769.278014 209.388344 
L 769.966099 208.200376 
L 770.938245 207.206633 
L 772.116818 206.485847 
z
" clip-path="url(#pd147e5fe1d)" style="fill: #ffffff; stroke: #333333"/>
    <path d="M 755.468885 228.23336 
L 754.188198 229.869785 
L 753.638593 228.802186 
L 752.655724 227.787085 
L 753.299449 226.871606 
L 753.687226 226.737437 
L 755.414212 227.707017 
z
" clip-path="url(#pd147e5fe1d)" style="fill: #ffffff; stroke: #333333"/>
    <path d="M 664.431809 405.965641 
L 665.889782 407.002571 
L 669.192978 410.903565 
L 670.032931 411.198289 
L 707.151786 403.897776 
L 708.368912 403.91272 
L 710.774518 405.1746 
L 712.096159 405.238545 
L 712.949764 404.826547 
L 713.614593 403.957798 
L 714.871046 399.772589 
L 716.009709 399.138848 
L 717.794409 399.280778 
L 722.175144 401.378035 
L 724.335235 401.729231 
L 725.374862 409.802216 
L 726.223798 412.494034 
L 727.369037 414.686803 
L 734.602513 423.274464 
L 741.359358 429.420168 
L 744.174882 432.727415 
L 747.095362 437.126044 
L 751.616167 446.308201 
L 758.855961 455.998557 
L 758.976321 457.194137 
L 758.414368 458.018422 
L 757.608836 458.208733 
L 756.656763 457.550493 
L 753.292026 453.554521 
L 750.816597 450.071863 
L 744.830199 439.488624 
L 743.154592 438.167443 
L 742.075085 437.933935 
L 741.417714 438.105968 
L 741.401469 439.976295 
L 742.505375 442.293637 
L 751.082404 455.757717 
L 753.802596 458.894968 
L 758.107271 462.920164 
L 759.726776 467.591041 
L 761.19283 472.740211 
L 762.158861 477.297065 
L 762.959737 486.364736 
L 764.04989 492.640125 
L 763.798125 493.570185 
L 762.911909 493.895684 
L 762.015344 493.505115 
L 761.424299 492.37548 
L 760.699235 492.491974 
L 760.506912 493.722117 
L 760.907974 496.973895 
L 760.248954 498.436529 
L 759.190615 499.077022 
L 756.012475 499.859709 
L 751.602641 502.677282 
L 750.180046 502.989315 
L 749.009056 502.737194 
L 748.746702 502.170329 
L 749.103168 501.507099 
L 752.011597 499.160573 
L 752.73389 497.838211 
L 752.342255 496.974448 
L 750.270496 495.975843 
L 749.518873 493.944791 
L 747.874348 493.36282 
L 742.449264 492.720485 
L 740.418337 491.898581 
L 738.645321 490.194457 
L 735.687809 488.69575 
L 734.192831 487.383096 
L 732.975641 485.116778 
L 731.659503 480.745977 
L 730.810185 479.586346 
L 728.481451 478.341894 
L 722.166622 476.200001 
L 719.78079 474.561822 
L 718.818183 473.196477 
L 714.858112 465.111481 
L 714.671194 462.694135 
L 715.220787 457.0749 
L 714.783801 455.079195 
L 713.97714 454.373231 
L 713.041376 454.704853 
L 710.826773 459.104537 
L 710.09932 458.95249 
L 709.310428 457.758462 
L 708.972377 456.117804 
L 708.762433 450.38183 
L 708.058194 444.480693 
L 707.054325 440.372546 
L 705.723357 437.357964 
L 701.610931 431.502113 
L 698.124126 427.649205 
L 695.373717 425.486588 
L 691.273093 423.205773 
L 685.799709 418.818825 
L 683.378803 417.894282 
L 681.346438 418.692992 
L 679.310893 420.80971 
L 678.682012 422.24797 
L 678.312218 424.1419 
L 677.363643 425.462586 
L 676.186207 426.386858 
L 674.104573 426.685958 
L 662.712066 425.527047 
L 660.177935 425.029885 
L 657.842124 423.897565 
L 653.758022 420.66051 
L 648.731195 419.004081 
L 646.214498 418.977586 
L 645.260108 419.381256 
L 645.48723 420.01789 
L 647.944218 422.276201 
L 647.733781 422.989446 
L 646.713091 423.303406 
L 645.066005 423.080489 
L 640.926858 421.253153 
L 635.162984 421.301276 
L 631.188063 420.098096 
L 629.606984 420.221255 
L 626.864536 421.168653 
L 625.211099 414.590485 
L 625.303518 412.911806 
L 625.825849 412.300799 
z
" clip-path="url(#pd147e5fe1d)" style="fill: #ffffff; stroke: #333333"/>
    <path d="M 680.973221 325.391377 
L 681.303108 328.937711 
L 681.692942 330.445366 
L 682.644484 332.232323 
L 683.983096 333.648622 
L 686.538805 335.284221 
L 694.471014 338.949627 
L 697.043274 341.85091 
L 699.351819 343.857888 
L 710.192786 350.82903 
L 715.569935 355.373751 
L 718.337621 357.083734 
L 719.346092 358.019511 
L 722.171455 362.763276 
L 725.834156 372.023802 
L 724.950532 374.007868 
L 724.394553 376.126901 
L 724.114236 380.469435 
L 723.543723 382.719742 
L 723.329807 385.058989 
L 723.431792 391.447206 
L 724.335235 401.729231 
L 722.175144 401.378035 
L 717.794409 399.280778 
L 716.009709 399.138848 
L 714.871046 399.772589 
L 713.614593 403.957798 
L 712.949764 404.826547 
L 712.096159 405.238545 
L 710.774518 405.1746 
L 708.368912 403.91272 
L 707.151786 403.897776 
L 670.032931 411.198289 
L 669.192978 410.903565 
L 665.889782 407.002571 
L 664.431809 405.965641 
L 663.765017 401.610411 
L 662.437974 397.765323 
L 662.290314 394.335348 
L 661.542485 389.773887 
L 662.174832 382.139812 
L 661.944089 379.641546 
L 644.905164 332.103983 
z
" clip-path="url(#pd147e5fe1d)" style="fill: #ffffff; stroke: #333333"/>
    <path d="M 334.803086 502.812439 
L 337.223559 503.73577 
L 342.891709 506.719351 
L 343.90596 508.003531 
L 344.1915 509.803228 
L 344.99598 509.607884 
L 345.569237 509.782923 
L 346.346157 510.855932 
L 349.14747 513.258625 
L 349.767666 514.347867 
L 349.391428 515.362377 
L 346.902608 517.844941 
L 345.459355 518.377411 
L 342.467253 518.795969 
L 340.972334 519.701832 
L 339.177128 521.951095 
L 338.071332 524.94068 
L 336.883361 525.686606 
L 336.014004 525.563784 
L 334.91779 524.91992 
L 332.383369 522.272504 
L 331.34357 516.992052 
L 326.911316 509.825381 
L 327.196334 508.669472 
L 329.020412 506.611124 
L 329.39602 505.657433 
L 329.158136 504.425109 
L 327.755245 502.373788 
L 328.027026 500.256845 
L 329.53189 500.50737 
L 331.799858 502.220132 
z
" clip-path="url(#pd147e5fe1d)" style="fill: #ffffff; stroke: #333333"/>
    <path d="M 312.990523 496.11399 
L 312.006428 495.371086 
L 313.449256 494.303164 
L 314.989838 495.668555 
L 315.062318 495.880091 
z
" clip-path="url(#pd147e5fe1d)" style="fill: #ffffff; stroke: #333333"/>
    <path d="M 307.626907 491.708458 
L 306.536481 491.277683 
L 303.899329 488.510643 
L 306.310029 488.010719 
L 308.556562 489.30886 
L 309.14477 490.277308 
L 308.402968 491.323242 
z
" clip-path="url(#pd147e5fe1d)" style="fill: #ffffff; stroke: #333333"/>
    <path d="M 314.675816 488.520155 
L 316.937749 487.539402 
L 317.893673 487.621032 
L 320.617759 489.389976 
L 323.162238 490.343722 
L 323.668068 491.29005 
L 323.511948 492.461213 
L 322.646161 493.308476 
L 319.809431 493.691108 
L 318.364031 494.604235 
L 317.367268 494.530994 
L 316.139507 493.348416 
L 315.075082 491.002968 
L 312.60767 490.797477 
L 311.774581 490.326742 
L 310.658333 488.238215 
L 310.598285 486.971449 
L 311.00382 486.40945 
L 311.724245 486.035416 
z
" clip-path="url(#pd147e5fe1d)" style="fill: #ffffff; stroke: #333333"/>
    <path d="M 308.712711 483.415036 
L 308.979978 484.056591 
L 308.781345 484.760968 
L 308.199243 485.184394 
L 306.344104 485.632639 
L 302.49135 484.80613 
L 299.716113 485.32595 
L 299.223566 485.013178 
L 298.916874 484.007715 
L 299.015928 483.110833 
L 299.45291 482.581667 
L 302.776678 483.229879 
z
" clip-path="url(#pd147e5fe1d)" style="fill: #ffffff; stroke: #333333"/>
    <path d="M 288.725721 478.015978 
L 291.00433 479.879601 
L 291.525672 480.811252 
L 291.325734 481.364283 
L 289.910871 481.861291 
L 287.002845 480.869289 
L 283.84225 480.749985 
L 282.252393 479.048751 
L 280.509951 475.835747 
L 280.972667 475.442303 
L 282.828642 475.49833 
L 283.824415 473.648611 
L 284.860845 472.905086 
L 285.637131 473.397372 
L 286.063763 474.540222 
z
" clip-path="url(#pd147e5fe1d)" style="fill: #ffffff; stroke: #333333"/>
    <path d="M 245.29575 470.844326 
L 244.910614 470.462353 
L 244.517034 469.077431 
L 245.726702 468.028281 
L 246.488868 466.284582 
L 247.046717 466.23694 
L 247.693368 467.024653 
L 247.614606 467.966856 
z
" clip-path="url(#pd147e5fe1d)" style="fill: #ffffff; stroke: #333333"/>
    <path d="M 258.328943 469.58074 
L 254.940224 468.562201 
L 251.996912 465.972938 
L 252.184165 464.905331 
L 254.056056 462.938111 
L 255.552084 462.472137 
L 257.834093 462.378142 
L 259.078048 462.99757 
L 260.253456 464.101359 
L 260.039176 465.874515 
L 260.157903 468.210663 
L 259.519052 469.018284 
z
" clip-path="url(#pd147e5fe1d)" style="fill: #ffffff; stroke: #333333"/>
    <path d="M 234.389821 126.495251 
L 234.673444 127.507242 
L 236.162583 128.631028 
L 239.963387 130.314743 
L 241.147351 131.583481 
L 242.031882 133.228444 
L 242.777831 135.573773 
L 243.268896 138.314417 
L 243.921538 147.547168 
L 244.250126 148.389462 
L 244.955805 149.089188 
L 248.419589 150.539201 
L 251.14404 153.053337 
L 252.734734 153.88062 
L 263.21612 155.409019 
L 264.909041 155.446259 
L 266.177904 155.119182 
L 269.713392 152.887446 
L 271.056578 152.381822 
L 272.803801 152.268999 
L 275.866349 152.647051 
L 268.858962 205.449049 
L 247.493503 202.279375 
L 226.833298 198.816117 
L 205.703197 194.865386 
L 185.326803 190.656599 
L 194.329951 147.204869 
L 193.833602 145.117735 
L 193.987387 143.714433 
L 194.988949 141.774464 
L 197.810659 138.283863 
L 199.418683 135.837777 
L 201.842139 131.280859 
L 205.405982 125.63285 
L 206.777212 122.007625 
L 206.869311 120.824159 
L 206.582349 119.795492 
L 203.781647 118.538205 
L 202.201776 115.878147 
L 201.932627 114.330224 
L 213.682988 59.503265 
L 225.014112 61.976709 
L 222.140342 78.516917 
L 222.078184 80.249869 
L 223.636099 83.317686 
L 224.162652 88.372787 
L 225.90397 93.064223 
L 231.617778 103.482465 
L 236.143867 110.169828 
L 237.025456 117.199001 
L 236.749727 118.224077 
L 235.290204 120.487955 
L 235.251374 121.294791 
L 235.693106 122.742283 
z
" clip-path="url(#pd147e5fe1d)" style="fill: #ffffff; stroke: #333333"/>
    <path d="M 605.34446 251.656175 
L 603.906574 255.210618 
L 603.536971 257.706062 
L 604.508626 265.247459 
L 604.508371 268.004857 
L 603.959999 270.278192 
L 601.38699 276.285074 
L 600.897695 279.527036 
L 601.06239 281.989362 
L 598.836604 286.345862 
L 597.415519 291.838325 
L 596.68745 292.158866 
L 594.343469 291.865734 
L 593.585363 292.521892 
L 593.298164 293.615792 
L 593.457457 296.573335 
L 593.172365 297.746048 
L 592.083689 298.086087 
L 589.340453 297.27162 
L 588.169141 297.26866 
L 587.474609 297.795771 
L 586.319723 299.969755 
L 582.708301 298.114504 
L 579.911446 295.906889 
L 577.910731 293.459054 
L 573.178654 285.694169 
L 569.645519 283.45875 
L 567.664638 281.538198 
L 566.567988 279.07943 
L 564.835906 269.342969 
L 563.145119 265.304562 
L 560.410835 261.945855 
L 552.858389 255.460313 
L 550.039158 252.688753 
L 547.853819 249.726514 
L 546.582754 246.778662 
L 545.951935 243.06381 
L 546.185854 238.775032 
L 547.256016 233.967385 
L 549.469081 228.709555 
L 550.541012 225.204369 
L 550.851639 223.018588 
L 550.65486 219.329187 
L 550.90281 217.642132 
L 551.458806 216.545612 
L 552.082559 215.962652 
L 555.238506 215.125377 
L 556.232475 214.595477 
L 557.021532 213.622492 
L 557.446554 212.3568 
L 557.454599 208.98845 
L 556.072227 201.054752 
L 591.215002 196.168206 
L 592.449065 198.913775 
L 593.243427 204.073914 
L 593.953355 206.032695 
L 597.316802 209.040559 
L 598.409475 209.540164 
L 599.571263 209.694208 
z
" clip-path="url(#pd147e5fe1d)" style="fill: #ffffff; stroke: #333333"/>
    <path d="M 635.523526 200.122148 
L 644.396363 250.049949 
L 642.759606 251.685761 
L 642.236841 253.189728 
L 642.539528 254.5457 
L 643.721182 255.235735 
L 644.159284 255.829849 
L 644.24931 256.653768 
L 643.940078 257.764736 
L 642.671312 259.792882 
L 641.703019 260.514188 
L 640.839003 260.435871 
L 638.791845 259.093653 
L 638.054104 259.082145 
L 637.43977 259.435534 
L 636.580628 261.196532 
L 635.574013 265.265644 
L 634.682309 266.978534 
L 633.49911 268.557003 
L 631.252202 270.387643 
L 628.521385 273.766367 
L 627.072796 274.938156 
L 624.800676 275.604388 
L 621.925736 274.983678 
L 620.765334 275.203395 
L 620.186184 275.852139 
L 619.521871 278.586742 
L 618.519079 279.418924 
L 617.303207 279.282646 
L 614.884613 277.513192 
L 612.990213 278.031209 
L 609.626546 280.293544 
L 608.742918 280.214565 
L 607.119851 278.964993 
L 605.934945 278.735915 
L 604.966731 279.227791 
L 603.050667 281.274177 
L 601.06239 281.989362 
L 600.897695 279.527036 
L 601.38699 276.285074 
L 603.924484 270.371428 
L 604.490236 268.151851 
L 604.535001 265.537785 
L 603.642413 259.766635 
L 603.548969 257.374266 
L 603.876178 255.314688 
L 605.125128 252.539169 
L 605.394844 250.813277 
L 599.571263 209.694208 
L 602.17141 209.209941 
L 605.047838 207.82406 
L 606.482439 206.734436 
L 608.125205 204.505854 
L 635.045919 199.794835 
z
" clip-path="url(#pd147e5fe1d)" style="fill: #ffffff; stroke: #333333"/>
    <path d="M 556.232475 214.595477 
L 555.238506 215.125377 
L 552.129072 215.936214 
L 550.975829 217.438321 
L 550.663994 219.007391 
L 550.854885 222.912311 
L 550.541012 225.204369 
L 549.522642 228.566606 
L 547.119832 234.407537 
L 545.953809 240.639653 
L 544.054373 240.379802 
L 541.027135 238.303193 
L 539.348658 237.773846 
L 509.595675 240.242418 
L 481.934486 241.959046 
L 481.077613 239.060438 
L 480.461454 230.062591 
L 479.800044 226.392873 
L 476.484822 215.904775 
L 471.779851 206.638637 
L 470.804003 203.601908 
L 470.537829 199.171741 
L 471.539998 191.105562 
L 471.607339 187.174632 
L 507.800835 185.056745 
L 543.88624 181.764241 
L 544.312178 188.893471 
L 544.76582 190.785838 
L 545.604439 192.562641 
L 546.8531 194.080286 
L 550.073872 196.622662 
L 551.603786 198.304373 
L 556.072227 201.054752 
L 557.574857 210.642642 
L 557.243799 213.111832 
z
" clip-path="url(#pd147e5fe1d)" style="fill: #ffffff; stroke: #333333"/>
    <path d="M 500.610613 264.450134 
L 503.086144 308.444493 
L 474.760563 309.775857 
L 446.408403 310.47453 
L 417.168297 310.532058 
L 389.015748 309.949578 
L 390.519054 254.244981 
L 414.863375 254.670625 
L 439.212481 254.603184 
L 463.55398 254.041981 
L 487.876131 252.987058 
L 490.553331 254.627274 
L 493.294303 257.523157 
L 495.595048 259.190076 
L 497.144946 261.525716 
L 499.921402 263.287744 
z
" clip-path="url(#pd147e5fe1d)" style="fill: #ffffff; stroke: #333333"/>
    <path d="M 677.616949 258.942476 
L 679.490574 261.619057 
L 684.071695 266.637664 
L 685.048119 269.382361 
L 686.576441 271.668439 
L 687.438213 274.021877 
L 684.607839 278.704174 
L 680.920905 282.028835 
L 679.081297 286.584536 
L 676.349496 288.965722 
L 674.443232 291.376446 
L 673.005752 294.470357 
L 672.591364 297.353573 
L 650.146248 301.613515 
L 627.611667 305.466542 
L 604.996534 308.910832 
L 582.309377 311.946802 
L 582.541368 308.814763 
L 585.984548 303.145199 
L 586.460146 301.453441 
L 586.319723 299.969755 
L 587.366241 297.965103 
L 587.912522 297.388258 
L 588.635953 297.203229 
L 592.015796 298.078977 
L 593.155229 297.766815 
L 593.44291 296.81548 
L 593.288334 293.776927 
L 593.585363 292.521892 
L 594.343469 291.865734 
L 596.68745 292.158866 
L 597.430937 291.816366 
L 598.746553 286.591912 
L 600.875411 282.120482 
L 603.050667 281.274177 
L 604.966731 279.227791 
L 605.934945 278.735915 
L 607.119851 278.964993 
L 608.742918 280.214565 
L 609.626546 280.293544 
L 612.990213 278.031209 
L 614.884613 277.513192 
L 617.303207 279.282646 
L 618.519079 279.418924 
L 619.521871 278.586742 
L 620.186184 275.852139 
L 620.765334 275.203395 
L 621.867724 274.97837 
L 623.91003 275.561285 
L 625.003648 275.589103 
L 626.451726 275.242724 
L 627.63852 274.562241 
L 631.486537 270.136454 
L 633.527171 268.52823 
L 634.726824 266.910343 
L 635.574013 265.265644 
L 636.580628 261.196532 
L 637.469963 259.404959 
L 638.105501 259.070826 
L 638.839175 259.107516 
L 641.416299 260.573395 
L 642.313604 260.18274 
L 643.219861 259.058287 
L 644.084734 257.387372 
L 644.240429 256.14275 
L 643.788483 255.293167 
L 642.525524 254.52454 
L 642.249809 253.040881 
L 642.780539 251.655413 
L 644.279934 250.100903 
L 645.208132 249.938702 
L 650.108659 250.820664 
L 652.472526 251.925371 
L 657.381083 252.676984 
L 659.018735 253.461083 
L 661.501887 255.442693 
L 662.843691 255.982494 
L 669.052814 255.811618 
L 674.433665 256.580338 
L 676.115531 257.410736 
z
" clip-path="url(#pd147e5fe1d)" style="fill: #ffffff; stroke: #333333"/>
    <path d="M 559.575654 420.374842 
L 587.488678 417.22531 
L 589.07351 419.375948 
L 590.37089 421.736394 
L 592.293206 427.208132 
L 588.401142 428.124682 
L 586.710382 429.804705 
L 585.361998 430.459475 
L 582.936547 430.747133 
L 580.504334 430.540265 
L 579.740433 430.757005 
L 579.043621 431.344244 
L 578.682475 432.225507 
L 578.707106 433.311395 
L 579.111401 434.522237 
L 580.239397 435.842914 
L 581.900242 436.228624 
L 583.550293 435.790037 
L 588.170324 433.658815 
L 590.811781 434.21301 
L 594.532483 433.118336 
L 595.237917 433.23729 
L 595.940762 434.216712 
L 596.0089 435.382711 
L 593.890642 440.425856 
L 594.570904 442.352564 
L 595.086263 445.510381 
L 595.847173 446.352842 
L 597.711697 447.240277 
L 601.577573 447.966533 
L 603.065114 448.514787 
L 604.121331 449.592691 
L 604.250649 450.135884 
L 604.024883 450.741011 
L 603.15003 451.184144 
L 596.861578 451.92831 
L 594.930536 450.24714 
L 591.551746 450.134803 
L 590.459053 449.801284 
L 589.868338 449.192751 
L 588.593022 446.387049 
L 587.628678 445.727083 
L 586.553199 445.549797 
L 585.754043 445.867318 
L 585.250652 446.63116 
L 584.907314 450.476939 
L 584.131749 451.597408 
L 582.456666 451.934978 
L 580.606864 450.633601 
L 579.703834 450.51585 
L 578.645626 450.92053 
L 576.009192 452.675637 
L 573.519112 452.951447 
L 569.251581 452.101012 
L 565.956843 451.820944 
L 565.337999 450.949058 
L 565.296934 448.440434 
L 564.82229 447.523506 
L 563.59056 447.069438 
L 560.834247 447.437697 
L 559.680486 447.269078 
L 559.173093 446.708662 
L 558.211604 443.620573 
L 556.73954 442.884564 
L 554.804327 443.244764 
L 550.652075 446.569441 
L 549.411369 447.173038 
L 548.273513 447.352502 
L 545.333835 446.984304 
L 538.193771 445.029221 
L 527.744717 446.021314 
L 525.833842 445.77462 
L 522.586558 444.623741 
L 523.583244 433.981485 
L 525.029528 426.298287 
L 524.576395 419.119487 
L 523.648942 415.567454 
L 520.328553 410.646711 
L 518.771691 404.519672 
L 516.643624 401.189091 
L 515.618951 385.75942 
L 539.094445 383.83212 
L 562.523693 381.498813 
L 562.748736 384.712849 
L 564.669902 391.700825 
L 564.838678 394.870512 
L 563.516614 401.503565 
L 561.591111 406.337306 
L 560.782899 409.175451 
L 560.884445 413.99934 
L 558.944267 418.952831 
L 559.036302 420.057357 
z
" clip-path="url(#pd147e5fe1d)" style="fill: #ffffff; stroke: #333333"/>
    <path d="M 804.723847 35.227564 
L 806.35187 35.38456 
L 809.103667 37.173999 
L 810.39174 37.584481 
L 811.096987 37.136432 
L 812.296678 34.571328 
L 814.300159 34.286254 
L 815.859969 32.4 
L 816.784852 32.404139 
L 819.062267 33.229378 
L 821.849552 33.485253 
L 823.279732 34.097744 
L 834.775481 61.714079 
L 835.610367 62.456021 
L 838.112686 63.419949 
L 841.182886 66.65059 
L 845.111112 67.561812 
L 846.416987 68.244768 
L 847.674884 70.015061 
L 848.381734 72.705672 
L 848.408239 75.607584 
L 846.785349 77.931945 
L 843.525352 84.797648 
L 841.920607 86.981046 
L 840.958169 87.644317 
L 840.033939 87.772618 
L 839.19455 87.39446 
L 837.754042 86.015988 
L 836.461335 86.039773 
L 835.785067 87.048337 
L 835.606482 90.055902 
L 834.687808 90.87943 
L 833.66374 90.707974 
L 831.350389 89.276018 
L 830.679223 89.25183 
L 830.191008 89.631839 
L 829.767336 90.706524 
L 829.671773 91.996472 
L 829.973896 93.444455 
L 830.82341 95.280257 
L 831.182528 98.535388 
L 830.906954 100.298934 
L 830.235889 101.473989 
L 829.14364 102.627272 
L 824.975367 105.202013 
L 823.491278 106.418705 
L 820.960265 110.50255 
L 819.500785 111.871331 
L 819.070753 115.702493 
L 817.084374 121.183049 
L 816.925506 124.552482 
L 814.767576 124.241731 
L 813.526314 123.475713 
L 799.568573 85.357773 
L 800.389914 84.64052 
L 800.902443 83.319195 
L 801.878937 78.242299 
L 802.604286 71.826788 
L 802.554575 67.632711 
L 801.100246 64.593097 
L 800.82553 63.424594 
L 801.543298 58.07646 
L 801.129159 54.449339 
L 802.248126 49.194419 
L 803.955546 36.741793 
L 804.259476 35.533238 
z
" clip-path="url(#pd147e5fe1d)" style="fill: #ffffff; stroke: #333333"/>
    <path d="M 769.278014 209.388344 
L 771.64206 214.862425 
L 775.939922 227.250038 
L 777.484947 230.993756 
L 778.074514 231.01636 
L 786.735743 228.543852 
L 786.399105 230.687106 
L 786.833805 237.103037 
L 786.510667 239.231723 
L 786.064224 239.863969 
L 785.373076 239.905841 
L 785.002976 239.472977 
L 784.524103 234.797321 
L 784.171248 233.850363 
L 783.482721 233.238731 
L 782.775226 233.658063 
L 782.419743 234.942656 
L 782.993689 240.490107 
L 779.970064 242.114179 
L 779.163802 240.981653 
L 777.206454 239.730488 
L 776.203317 237.656885 
L 775.553642 237.439704 
L 773.598537 237.693596 
L 772.949181 237.257654 
L 770.78391 232.858998 
L 770.647682 229.217962 
L 769.999222 228.630221 
L 768.155538 228.188053 
L 767.606324 227.237254 
L 767.559213 225.230306 
L 768.541816 219.864351 
L 768.276448 218.695118 
L 767.09346 218.658065 
L 766.708991 218.152162 
L 767.990797 213.988879 
L 767.953553 212.827612 
L 767.458396 212.389033 
L 766.69607 212.621174 
L 765.327243 214.183511 
L 763.147052 215.563662 
L 762.812822 225.710145 
L 763.143483 230.08617 
L 763.706999 231.450845 
L 765.988151 235.181633 
L 766.196797 236.429387 
L 765.950866 238.24261 
L 767.453324 240.19632 
L 767.393516 240.784224 
L 766.945536 241.228242 
L 765.356617 241.350579 
L 761.552843 240.256178 
L 757.453147 240.138584 
L 756.041765 239.717024 
L 754.940597 239.03525 
L 754.004537 238.238849 
L 754.475457 231.66004 
L 754.188198 229.869785 
L 755.488118 228.205556 
L 755.495164 227.79783 
L 753.634036 226.734781 
L 752.655724 227.787085 
L 747.695211 224.561688 
L 745.218998 223.519671 
L 741.918985 223.405967 
L 738.079074 222.692711 
L 734.594305 223.250284 
L 730.779823 225.05254 
L 726.363174 228.007806 
L 723.123501 230.818588 
L 721.773508 231.17147 
L 719.91889 223.043606 
L 745.460205 216.275426 
z
" clip-path="url(#pd147e5fe1d)" style="fill: #ffffff; stroke: #333333"/>
    <path d="M 817.221144 129.443671 
L 818.917406 130.446425 
L 819.699679 131.82141 
L 819.626165 133.386012 
L 818.524651 137.194874 
L 818.555343 138.106497 
L 818.851837 138.609909 
L 819.305483 138.656376 
L 821.345883 137.888965 
L 822.453041 138.209278 
L 823.942506 139.374761 
L 827.18677 143.076177 
L 829.087384 144.094932 
L 830.274772 143.746693 
L 831.060086 143.20303 
L 831.120395 139.096171 
L 831.771739 138.205786 
L 832.15489 138.158472 
L 832.498531 138.498864 
L 833.530424 142.091427 
L 833.332271 145.117044 
L 832.758723 146.337791 
L 829.174568 149.492527 
L 828.395221 150.017052 
L 826.438292 150.279702 
L 822.400468 153.505256 
L 819.579788 150.864358 
L 816.608708 146.214949 
L 815.600684 145.537851 
L 814.333979 145.397124 
L 788.790006 154.138575 
L 787.805861 147.406742 
L 787.523087 141.5106 
L 810.034815 133.694824 
L 813.575717 130.944238 
z
" clip-path="url(#pd147e5fe1d)" style="fill: #ffffff; stroke: #333333"/>
    <path d="M 646.377272 146.840606 
L 646.436018 149.722452 
L 645.506938 154.148617 
L 642.931881 161.889201 
L 642.977584 163.448933 
L 643.470307 163.939702 
L 644.115881 163.941757 
L 645.516545 163.257957 
L 646.752643 162.232407 
L 648.597237 159.387031 
L 650.383765 154.273252 
L 651.045086 153.881225 
L 652.109666 154.055924 
L 654.475313 155.505967 
L 655.926757 157.211192 
L 656.826866 159.127633 
L 658.638717 164.575936 
L 662.431665 170.492088 
L 663.172942 172.050585 
L 662.719367 176.685245 
L 662.305758 177.222715 
L 660.296617 178.572105 
L 659.100752 180.117845 
L 658.347433 182.327599 
L 657.862339 186.582878 
L 657.256879 187.657688 
L 655.697623 189.260832 
L 654.953297 190.848614 
L 654.178788 194.152885 
L 654.13006 197.34246 
L 635.701936 201.122856 
L 635.495701 200.03091 
L 635.078257 199.790751 
L 608.125205 204.505854 
L 609.91069 201.286334 
L 611.528816 197.366764 
L 612.21256 194.394235 
L 612.333128 191.553648 
L 611.787543 187.736989 
L 609.506265 177.971688 
L 606.231778 169.984982 
L 605.881495 167.688827 
L 605.886676 165.280751 
L 608.221031 150.06054 
L 609.037354 147.75549 
L 611.40064 143.710363 
L 612.462483 140.924713 
L 613.289505 140.119348 
L 613.921157 140.313345 
L 613.184228 144.280042 
L 613.680405 147.033755 
L 614.04696 146.877947 
L 614.890006 145.169372 
L 615.444805 144.843965 
L 616.158275 145.223784 
L 616.68519 146.926445 
L 617.390321 146.618805 
L 617.949317 145.624782 
L 618.146918 143.955936 
L 617.275051 138.039377 
L 617.683108 137.37827 
L 618.971692 136.409201 
L 619.581812 135.387973 
L 620.246258 128.300353 
L 620.918309 127.017056 
L 621.812004 126.713919 
L 624.65015 127.446431 
L 630.665344 127.569024 
L 633.992911 128.080123 
L 635.716385 128.745102 
L 642.560869 132.372946 
L 644.125322 133.646763 
L 644.87942 135.008467 
L 644.805844 139.06642 
z
" clip-path="url(#pd147e5fe1d)" style="fill: #ffffff; stroke: #333333"/>
    <path d="M 571.357619 109.699884 
L 574.067327 109.131866 
L 576.755901 109.486089 
L 579.011483 110.471943 
L 582.702082 112.783162 
L 588.686803 115.562347 
L 590.444687 115.581628 
L 591.724381 116.117912 
L 592.420599 115.869345 
L 593.560218 114.510656 
L 595.479007 115.05623 
L 596.368362 114.863149 
L 598.498348 112.416535 
L 599.617135 111.805235 
L 605.321488 111.065292 
L 609.299459 109.258906 
L 611.255687 109.240688 
L 614.111293 108.274882 
L 615.484019 108.164947 
L 616.614047 108.846734 
L 617.465912 111.082769 
L 618.422212 111.854734 
L 619.975643 111.950396 
L 624.246108 111.176538 
L 625.429773 111.349888 
L 626.546324 111.917421 
L 627.31185 112.670228 
L 627.892311 113.768151 
L 628.489317 116.852819 
L 630.987925 118.723162 
L 631.182171 119.284742 
L 630.578139 120.330542 
L 629.486997 120.850713 
L 624.812886 120.424084 
L 624.188448 121.136242 
L 623.526607 122.706019 
L 622.544397 123.162249 
L 621.441113 123.06611 
L 618.649386 121.996229 
L 614.546588 121.791701 
L 612.157607 122.033559 
L 608.279067 123.116539 
L 605.374659 123.620632 
L 603.518313 124.952644 
L 600.757672 128.743494 
L 598.484673 131.086017 
L 597.816717 130.736171 
L 597.726968 128.699855 
L 597.05728 128.103328 
L 596.161182 129.033213 
L 595.770772 130.690824 
L 595.387327 131.158816 
L 594.810183 131.054502 
L 593.36617 129.963792 
L 592.43319 129.933085 
L 591.527355 131.970725 
L 590.777717 137.469364 
L 587.791103 144.289612 
L 586.312737 143.35184 
L 584.550426 140.624201 
L 582.349257 133.86255 
L 581.669328 132.636248 
L 580.735429 131.730773 
L 575.302632 129.341209 
L 572.284191 128.97308 
L 557.524447 124.925817 
L 555.376593 123.310254 
L 551.193357 118.415859 
L 554.122138 115.293203 
L 558.636454 113.981833 
L 561.128017 112.359571 
L 569.172818 104.890644 
L 571.010094 102.777011 
L 572.743673 100.196028 
L 574.091494 99.487264 
L 574.69349 100.553812 
L 574.691397 102.932212 
L 574.013639 104.035362 
L 570.744005 107.7686 
L 570.399697 109.209725 
L 570.696737 109.575386 
z
" clip-path="url(#pd147e5fe1d)" style="fill: #ffffff; stroke: #333333"/>
    <path d="M 559.933467 93.215951 
L 559.76364 92.823474 
L 560.387748 91.474719 
L 560.847955 89.289061 
L 562.013255 87.278154 
L 563.668714 86.146372 
L 566.333084 85.47951 
L 566.801057 85.567496 
L 566.953946 86.62997 
L 566.088092 87.963982 
L 562.673406 90.788898 
L 561.123169 92.796693 
z
" clip-path="url(#pd147e5fe1d)" style="fill: #ffffff; stroke: #333333"/>
    <path d="M 484.901655 73.117226 
L 486.521841 74.171207 
L 487.563012 75.577569 
L 489.784283 79.754796 
L 490.780201 80.947395 
L 491.540892 81.440672 
L 496.08722 81.237262 
L 499.150062 81.483642 
L 504.693288 82.63723 
L 511.038508 84.338355 
L 514.959658 84.863297 
L 520.131125 84.893128 
L 526.084119 84.044933 
L 527.703504 84.081143 
L 528.94782 84.528223 
L 530.457079 85.575193 
L 533.994873 86.836822 
L 537.392191 88.621102 
L 543.680549 89.518564 
L 553.757368 92.478089 
L 551.642926 95.025397 
L 545.924217 97.710386 
L 541.903055 100.787053 
L 532.918672 109.923908 
L 524.28687 119.444114 
L 523.210775 121.298825 
L 522.667442 123.152185 
L 522.7771 128.907901 
L 522.517335 130.602336 
L 521.551614 132.484983 
L 519.040306 135.710144 
L 518.270304 138.40186 
L 518.268743 145.084626 
L 517.892516 153.075867 
L 518.339983 155.915792 
L 519.316801 158.26402 
L 521.182027 160.526056 
L 528.003922 165.724796 
L 533.328091 170.803635 
L 534.719266 171.586355 
L 538.276785 172.892846 
L 540.499709 174.520629 
L 541.8283 176.048568 
L 542.842078 177.745468 
L 543.470893 179.481688 
L 543.88624 181.764241 
L 507.800835 185.056745 
L 471.607339 187.174632 
L 470.43239 176.68283 
L 470.162786 163.230137 
L 469.748347 157.787241 
L 468.53424 152.419415 
L 466.087659 147.608542 
L 465.574288 145.969162 
L 465.514348 143.736122 
L 466.228634 138.956867 
L 465.95085 134.705975 
L 462.946608 112.576738 
L 458.776636 95.293984 
L 457.498025 82.595869 
L 481.275268 81.544812 
L 481.656971 81.198119 
L 481.862086 80.146778 
L 481.469558 73.361538 
L 481.905324 72.84648 
z
" clip-path="url(#pd147e5fe1d)" style="fill: #ffffff; stroke: #333333"/>
    <path d="M 607.533219 400.149367 
L 609.573417 411.95211 
L 611.432147 425.983739 
L 607.153029 425.844559 
L 604.140283 426.17749 
L 596.778155 429.314449 
L 595.251756 429.642151 
L 594.080154 429.492783 
L 593.231985 428.94222 
L 592.656129 428.126315 
L 590.37089 421.736394 
L 589.07351 419.375948 
L 587.488678 417.22531 
L 560.06147 420.326571 
L 559.086976 420.153614 
L 559.071189 418.311907 
L 560.916155 413.821497 
L 560.800048 409.094117 
L 561.591111 406.337306 
L 563.546932 401.396417 
L 564.862426 394.530062 
L 564.583065 391.248798 
L 562.507406 383.204761 
L 562.489238 381.715688 
L 563.250861 378.790755 
L 563.422821 376.598078 
L 563.213397 374.694976 
L 562.168476 371.106784 
L 562.250767 368.215258 
L 563.250455 364.60003 
L 566.40836 356.594854 
L 568.147951 351.315497 
L 569.096589 349.736317 
L 571.8075 346.565048 
L 573.587993 342.296665 
L 606.74365 338.062523 
z
" clip-path="url(#pd147e5fe1d)" style="fill: #ffffff; stroke: #333333"/>
    <path d="M 509.595675 240.242418 
L 539.410255 237.774466 
L 541.161553 238.378498 
L 544.030551 240.36944 
L 545.953809 240.639653 
L 545.986121 243.597633 
L 546.374237 246.029313 
L 547.254809 248.543175 
L 548.541938 250.811698 
L 552.00703 254.682731 
L 560.788524 262.31643 
L 563.473321 265.879254 
L 564.894913 269.560771 
L 566.538482 278.949215 
L 567.508452 281.317342 
L 569.645519 283.45875 
L 573.178654 285.694169 
L 577.910731 293.459054 
L 579.911446 295.906889 
L 582.708301 298.114504 
L 586.319723 299.969755 
L 586.460146 301.453441 
L 586.013479 303.079654 
L 582.503402 308.92783 
L 582.369233 311.732323 
L 581.288139 314.687934 
L 579.255778 322.180067 
L 570.972319 323.207465 
L 570.431189 322.980966 
L 570.207936 321.817035 
L 570.403192 320.483338 
L 572.58933 314.853743 
L 572.536513 313.384951 
L 572.0369 313.016823 
L 536.804142 316.549387 
L 503.690768 318.976928 
L 500.560295 264.19356 
L 499.559897 262.971501 
L 497.144946 261.525716 
L 495.595048 259.190076 
L 493.294303 257.523157 
L 490.505851 254.584648 
L 487.373191 252.518102 
L 483.577916 245.680863 
L 481.934486 241.959046 
z
" clip-path="url(#pd147e5fe1d)" style="fill: #ffffff; stroke: #333333"/>
    <path d="M 266.190811 69.765756 
L 300.797928 74.894737 
L 335.612809 78.783151 
L 354.246539 80.348 
L 372.914275 81.557681 
L 368.82449 158.756291 
L 345.694237 157.276507 
L 322.611471 155.301668 
L 299.589531 152.831671 
L 276.599802 149.863303 
L 276.199047 150.173566 
L 275.866349 152.647051 
L 272.701232 152.263479 
L 270.938137 152.408645 
L 269.624001 152.938553 
L 266.303272 155.069577 
L 265.101245 155.42242 
L 263.662452 155.451039 
L 252.734734 153.88062 
L 251.14404 153.053337 
L 248.419589 150.539201 
L 244.889224 149.043146 
L 244.201489 148.315273 
L 243.921538 147.547168 
L 243.237954 138.085635 
L 242.665632 135.128646 
L 241.858694 132.836721 
L 241.031541 131.4224 
L 239.963387 130.314743 
L 235.818875 128.4385 
L 234.763291 127.602336 
L 234.404309 126.964316 
L 234.545085 125.717967 
L 235.688386 122.781905 
L 235.251374 121.294791 
L 235.290204 120.487955 
L 236.749727 118.224077 
L 237.019573 117.261723 
L 236.113731 110.07259 
L 231.617778 103.482465 
L 225.90397 93.064223 
L 224.162652 88.372787 
L 223.636099 83.317686 
L 222.078184 80.249869 
L 222.140342 78.516917 
L 225.014112 61.976709 
z
" clip-path="url(#pd147e5fe1d)" style="fill: #ffffff; stroke: #333333"/>
    <path d="M 470.736363 203.215923 
L 471.779851 206.638637 
L 476.549078 216.068852 
L 479.800044 226.392873 
L 480.461454 230.062591 
L 481.062553 238.93967 
L 481.603375 241.089812 
L 483.815191 246.136647 
L 487.054829 252.059473 
L 487.876131 252.987058 
L 463.55398 254.041981 
L 439.212481 254.603184 
L 414.863375 254.670625 
L 390.519054 254.244981 
L 391.042948 235.508373 
L 390.872338 235.162895 
L 365.024941 234.019869 
L 366.956318 195.221758 
L 405.078779 196.740841 
L 443.60938 196.982802 
L 445.469048 197.519628 
L 448.848858 199.636964 
L 450.955177 200.110884 
L 452.999361 199.764952 
L 457.652226 197.55238 
L 459.428289 197.258868 
L 460.817126 197.542011 
L 462.189125 198.229038 
L 466.3104 201.663473 
L 468.137461 202.854567 
L 469.081255 203.186263 
z
" clip-path="url(#pd147e5fe1d)" style="fill: #ffffff; stroke: #333333"/>
    <path d="M 211.124056 299.395049 
L 209.201739 306.17466 
L 208.459415 308.212168 
L 207.625675 309.488251 
L 206.529235 310.135978 
L 205.268503 309.983324 
L 204.723039 309.523753 
L 202.995408 306.850641 
L 201.494603 306.051752 
L 200.118191 306.666809 
L 198.966675 308.273835 
L 198.410417 310.699294 
L 197.65688 322.443589 
L 196.205012 330.616917 
L 179.385504 307.583884 
L 163.206257 284.550385 
L 147.67147 261.534524 
L 132.772336 238.532783 
L 132.647321 237.766178 
L 146.228737 181.448373 
L 166.337629 186.370945 
L 186.638834 190.939824 
L 207.020925 195.123606 
L 227.495026 198.932897 
z
" clip-path="url(#pd147e5fe1d)" style="fill: #ffffff; stroke: #333333"/>
    <path d="M 799.568573 85.357773 
L 813.526314 123.475713 
L 814.767576 124.241731 
L 816.925506 124.552482 
L 817.221144 129.443671 
L 813.575717 130.944238 
L 810.034815 133.694824 
L 794.774268 139.052805 
L 793.852953 132.985703 
L 794.080702 129.203797 
L 793.137523 124.821084 
L 792.82605 121.698518 
L 793.528656 114.255539 
L 792.831977 106.631063 
L 793.073585 105.613863 
L 794.331221 103.280049 
L 794.666705 101.603258 
L 794.5265 95.819519 
L 793.659471 92.19092 
L 793.580942 90.524468 
L 793.857605 88.468232 
L 794.265717 87.636361 
L 796.073658 86.8329 
L 797.117234 84.755203 
L 797.697146 84.672933 
z
" clip-path="url(#pd147e5fe1d)" style="fill: #ffffff; stroke: #333333"/>
    <path d="M 790.441768 200.588846 
L 790.149205 207.527757 
L 789.622755 211.193019 
L 788.729529 214.823869 
L 787.868892 217.165504 
L 787.005504 217.569687 
L 785.58613 217.061056 
L 782.648401 214.90053 
L 777.080294 213.159791 
L 774.834891 210.749518 
L 773.577069 208.010002 
L 773.391206 206.19559 
L 776.018903 201.746409 
L 776.825826 198.525034 
L 776.645468 196.675957 
L 776.002539 194.927968 
L 774.563503 192.772109 
L 771.934885 190.091947 
L 771.385896 187.933466 
L 771.643568 184.536392 
L 773.924896 177.294194 
L 774.580963 173.215032 
L 777.437196 174.777303 
L 783.141737 177.225116 
L 784.670211 178.278138 
L 786.891973 181.939017 
L 787.072278 185.540033 
L 787.539203 187.338704 
L 787.929496 187.720618 
L 788.330786 187.721619 
L 789.17806 186.565439 
L 789.609066 186.468861 
L 789.998879 186.97101 
z
" clip-path="url(#pd147e5fe1d)" style="fill: #ffffff; stroke: #333333"/>
    <path d="M 375.765861 309.457506 
L 375.412288 320.403326 
L 373.984877 320.341437 
L 373.611621 320.751538 
L 370.130926 404.076616 
L 346.955867 403.080207 
L 315.669225 400.900323 
L 315.247287 401.293828 
L 314.823956 406.788962 
L 288.445437 404.516976 
L 288.076338 404.908132 
L 287.116238 414.999549 
L 275.131909 413.900612 
L 286.236237 302.486126 
L 308.555219 304.824249 
L 330.922248 306.766161 
L 353.328687 308.310889 
z
" clip-path="url(#pd147e5fe1d)" style="fill: #ffffff; stroke: #333333"/>
    <path d="M 791.314718 184.066357 
L 790.583105 184.133713 
L 790.047135 183.715491 
L 789.805394 182.836512 
L 789.899537 181.681902 
L 790.885884 179.650169 
L 792.813401 177.668622 
L 794.53033 176.637402 
L 798.765927 174.815344 
L 811.050962 167.606854 
L 812.006442 167.322563 
L 812.524138 167.531778 
L 812.633435 168.113902 
L 812.298953 168.78477 
L 811.172489 169.808012 
L 809.678112 171.778786 
L 807.021258 173.930687 
L 803.437762 176.032966 
L 798.155669 180.291134 
z
" clip-path="url(#pd147e5fe1d)" style="fill: #ffffff; stroke: #333333"/>
    <path d="M 758.557445 105.574332 
L 771.871849 100.994901 
L 772.701802 102.726974 
L 773.768284 106.524024 
L 774.217988 112.611843 
L 776.173889 117.592472 
L 776.938224 120.901637 
L 779.498185 125.442611 
L 780.805335 129.410427 
L 784.171471 133.433646 
L 785.137767 135.001469 
L 786.633609 139.688816 
L 787.588783 141.762874 
L 787.797685 147.324684 
L 788.874459 154.774539 
L 790.117963 159.7089 
L 792.226479 165.400925 
L 792.703345 168.076666 
L 792.362677 170.197213 
L 790.781677 173.088913 
L 791.01728 174.098503 
L 791.977737 175.207452 
L 788.869471 179.567433 
L 786.891973 181.939017 
L 786.149194 181.017366 
L 785.22565 178.960412 
L 784.177603 177.852109 
L 777.201071 174.661657 
L 772.926804 172.240559 
L 770.239672 169.98568 
L 765.623128 165.046447 
L 764.101184 164.024618 
L 762.548441 163.503404 
L 728.974677 173.246388 
L 710.067277 178.279894 
L 704.287409 179.584436 
L 702.971187 174.703496 
L 705.410443 172.983231 
L 706.738185 171.57751 
L 710.956269 163.40242 
L 709.930281 159.606721 
L 708.643089 157.987348 
L 709.024785 157.027884 
L 711.44984 154.44748 
L 714.349026 152.607239 
L 726.712479 148.832946 
L 735.927621 145.073097 
L 737.863956 143.965196 
L 739.518563 142.574573 
L 740.836023 140.616827 
L 741.348958 138.527853 
L 741.006331 135.596001 
L 739.38984 130.672119 
L 740.249475 127.003881 
L 740.179771 124.088067 
L 740.729336 122.524675 
L 743.150487 119.140132 
L 749.708535 111.473219 
L 756.131032 105.841468 
L 756.931797 105.530834 
z
" clip-path="url(#pd147e5fe1d)" style="fill: #ffffff; stroke: #333333"/>
    <path d="M 790.820175 277.362308 
L 790.532035 278.378321 
L 790.05358 278.654445 
L 789.461373 278.590402 
L 788.048308 276.695917 
L 786.764047 276.11166 
L 785.63372 274.342145 
L 784.752446 273.862494 
L 783.82266 273.813643 
L 783.117269 274.186745 
L 781.558984 275.929346 
L 780.520131 277.68131 
L 779.666224 278.557456 
L 775.667788 281.040431 
L 775.55056 282.29184 
L 776.583927 282.829249 
L 778.155174 282.644777 
L 782.633301 281.435306 
L 784.617935 281.576339 
L 785.530963 282.314808 
L 786.388932 284.806855 
L 787.251631 285.415689 
L 788.236865 285.22386 
L 789.474714 283.793389 
L 790.165901 283.790853 
L 790.645004 284.45312 
L 791.113968 287.34048 
L 790.400541 288.143438 
L 788.105613 289.39273 
L 787.015822 291.620149 
L 786.347016 292.136053 
L 785.487437 292.042084 
L 784.432148 290.808585 
L 783.696553 290.570861 
L 783.124084 290.726718 
L 781.94534 291.798139 
L 780.650848 292.211109 
L 776.986207 292.775356 
L 774.601343 292.036844 
L 772.908763 291.873466 
L 771.919303 292.08379 
L 771.161005 292.641466 
L 770.733703 293.637256 
L 770.882308 294.337469 
L 771.804826 295.204588 
L 773.03437 295.769732 
L 775.256003 295.954578 
L 779.704969 294.92989 
L 780.582989 295.189438 
L 781.020268 296.062563 
L 780.932215 296.798872 
L 777.966507 300.98838 
L 777.431242 302.325182 
L 777.408369 303.27543 
L 777.938971 303.80864 
L 778.823651 303.726982 
L 781.690009 301.971137 
L 782.493393 301.731449 
L 783.0465 302.800713 
L 782.82943 304.253367 
L 781.63139 306.283767 
L 780.048832 307.75683 
L 771.865934 312.452299 
L 769.420657 314.248096 
L 767.985077 316.054876 
L 765.864274 320.203677 
L 764.621406 322.025536 
L 756.701367 329.385979 
L 738.682095 316.487127 
L 737.504287 316.395279 
L 720.609175 320.435002 
L 719.851403 320.248719 
L 719.221884 319.698611 
L 716.926603 315.823862 
L 716.249369 315.082987 
L 715.600058 314.806909 
L 715.185971 315.193487 
L 714.694408 317.464412 
L 714.335864 318.020689 
L 713.793255 317.601023 
L 712.916553 315.552012 
L 711.585735 315.142765 
L 694.420416 318.960378 
L 693.445837 319.51811 
L 691.314805 321.544174 
L 688.371581 321.842702 
L 685.582326 324.097539 
L 684.031975 324.765928 
L 666.951374 328.133256 
L 666.968367 326.238141 
L 667.431306 324.484463 
L 668.27164 322.88538 
L 669.548239 321.317957 
L 671.724677 319.535048 
L 676.892921 316.568754 
L 679.944353 314.374519 
L 682.550617 311.720795 
L 686.959509 305.457321 
L 691.735311 302.610502 
L 694.549106 300.148698 
L 697.084067 295.09225 
L 697.428375 292.137965 
L 719.596291 287.030625 
L 741.646613 281.519413 
L 763.570161 275.604957 
L 785.357233 269.288832 
L 787.819205 272.476465 
L 788.893926 274.57894 
z
" clip-path="url(#pd147e5fe1d)" style="fill: #ffffff; stroke: #333333"/>
    <path d="M 793.517306 281.939799 
L 794.727765 281.929836 
L 795.894966 283.035405 
L 796.420464 284.262206 
L 796.724179 286.888843 
L 796.534922 288.059794 
L 795.456798 290.800035 
L 794.92981 291.611861 
L 794.31063 291.935222 
L 793.703531 291.709963 
L 793.559568 291.002562 
L 794.724129 287.705742 
L 794.765419 286.902706 
L 793.265306 282.646454 
z
" clip-path="url(#pd147e5fe1d)" style="fill: #ffffff; stroke: #333333"/>
    <path d="M 788.030164 300.480086 
L 788.545717 301.02773 
L 788.344343 302.246909 
L 786.690239 305.036596 
L 785.86523 307.241207 
L 784.93486 308.045562 
L 784.673788 306.198822 
L 785.334475 303.656518 
L 786.778878 301.130784 
L 787.402285 300.599509 
z
" clip-path="url(#pd147e5fe1d)" style="fill: #ffffff; stroke: #333333"/>
    <path d="M 466.074348 140.541956 
L 442.003548 141.146058 
L 417.92772 141.19434 
L 393.860351 140.695554 
L 369.817039 139.64933 
L 372.914275 81.557681 
L 394.041117 82.497663 
L 415.188953 82.984142 
L 436.344958 83.016909 
L 457.498025 82.595869 
L 458.851539 95.725064 
L 462.328007 109.613757 
L 463.32251 114.871866 
L 466.053988 135.565208 
L 466.236628 138.388263 
z
" clip-path="url(#pd147e5fe1d)" style="fill: #ffffff; stroke: #333333"/>
    <path d="M 694.176449 181.905877 
L 700.047826 206.868749 
L 699.056472 207.595239 
L 698.242523 208.853151 
L 697.078914 212.932745 
L 697.07819 215.73312 
L 698.096753 224.02314 
L 697.858752 226.497046 
L 697.175263 229.434254 
L 694.797949 235.9741 
L 693.930043 236.776533 
L 691.040145 238.338357 
L 689.938748 239.584292 
L 689.241779 241.483173 
L 687.997079 247.360159 
L 687.5391 247.717573 
L 686.562972 247.860721 
L 685.424921 247.684133 
L 683.989522 247.024745 
L 683.212428 247.401843 
L 682.445129 248.834914 
L 681.378082 253.36438 
L 677.616949 258.942476 
L 676.115531 257.410736 
L 674.433665 256.580338 
L 669.052814 255.811618 
L 662.843691 255.982494 
L 661.501887 255.442693 
L 659.018735 253.461083 
L 657.381083 252.676984 
L 652.472526 251.925371 
L 650.108659 250.820664 
L 645.245486 249.943553 
L 644.396363 250.049949 
L 635.701936 201.122856 
L 654.13006 197.34246 
L 654.474246 198.078363 
L 655.441449 198.824248 
L 657.040129 199.774582 
L 658.316401 200.173636 
L 665.612386 199.642662 
L 667.476866 199.738098 
L 669.408949 200.245612 
L 671.613155 199.908324 
L 676.769161 197.096088 
L 679.583847 195.144039 
L 682.113825 192.840579 
L 684.556952 189.942242 
L 690.331068 184.546801 
z
" clip-path="url(#pd147e5fe1d)" style="fill: #ffffff; stroke: #333333"/>
    <path d="M 507.883928 330.560636 
L 510.709622 374.447075 
L 508.019976 372.377252 
L 504.444735 371.498267 
L 497.964769 368.916758 
L 495.163789 368.425364 
L 492.741335 368.495862 
L 490.062317 369.014013 
L 482.637448 372.118125 
L 480.077063 372.7032 
L 478.338789 372.535926 
L 474.999167 371.370501 
L 473.173506 371.016437 
L 467.248944 371.846193 
L 465.982658 371.739476 
L 463.913689 371.088295 
L 456.837617 371.329905 
L 454.933857 370.599209 
L 451.496505 367.175177 
L 449.264076 365.950745 
L 446.189863 365.353819 
L 437.273098 364.839905 
L 435.999489 364.387956 
L 433.555767 362.872255 
L 429.425041 362.798122 
L 428.257508 362.52733 
L 423.634996 359.847198 
L 420.727796 359.055319 
L 420.586734 322.281558 
L 420.412444 321.930659 
L 375.412288 320.403326 
L 375.765861 309.457506 
L 408.277216 310.416252 
L 439.963275 310.545099 
L 470.895869 309.909055 
L 503.086144 308.444493 
L 503.739257 319.225341 
L 505.30946 323.827463 
L 507.453472 328.722472 
z
" clip-path="url(#pd147e5fe1d)" style="fill: #ffffff; stroke: #333333"/>
    <path d="M 206.057686 124.191243 
L 199.023161 136.490727 
L 194.988949 141.774464 
L 193.987387 143.714433 
L 193.833602 145.117735 
L 194.329951 147.204869 
L 185.326803 190.656599 
L 160.231845 184.91893 
L 136.254703 178.858144 
L 111.902878 172.111766 
L 88.638877 165.092127 
L 88.471542 154.936879 
L 88.839299 152.427119 
L 89.621154 149.865723 
L 91.965099 145.203396 
L 97.821241 136.254415 
L 99.684904 132.843449 
L 104.13482 120.885751 
L 109.700641 108.441282 
L 111.135805 103.876067 
L 112.651372 97.399593 
L 113.843081 93.848287 
L 115.286971 91.291601 
L 117.111845 89.787046 
L 118.602811 89.796072 
L 120.204941 90.461746 
L 124.371044 94.381601 
L 125.50231 95.069911 
L 124.218828 100.999003 
L 126.11809 102.824411 
L 128.737791 104.237978 
L 132.610838 105.262559 
L 141.121904 106.429152 
L 144.900387 107.581363 
L 148.973558 107.677606 
L 155.309975 109.700757 
L 157.498712 110.157141 
L 159.578701 110.185298 
L 163.723911 109.485077 
L 170.063546 110.497198 
L 176.199538 110.128331 
L 178.21524 110.235942 
L 194.451193 114.182384 
L 202.049107 115.512579 
L 203.948648 118.717804 
L 206.132107 119.427246 
L 206.627568 119.887349 
L 206.838721 121.656592 
z
" clip-path="url(#pd147e5fe1d)" style="fill: #ffffff; stroke: #333333"/>
    <path d="M 774.563503 192.772109 
L 776.002539 194.927968 
L 776.719832 197.037125 
L 776.756456 199.297626 
L 775.862503 202.075059 
L 773.425238 206.118471 
L 772.116818 206.485847 
L 770.938245 207.206633 
L 769.966099 208.200376 
L 769.278014 209.388344 
L 736.966466 218.595144 
L 704.651302 226.791049 
L 694.176449 181.905877 
L 699.358973 177.398562 
L 702.971187 174.703496 
L 704.153949 179.401386 
L 704.602922 179.665784 
L 731.666749 172.500156 
L 762.663468 163.509923 
L 764.101184 164.024618 
L 765.503166 164.948607 
L 770.976405 170.680086 
L 774.580963 173.215032 
L 773.995679 177.021095 
L 771.463846 185.494331 
L 771.448168 188.434014 
L 771.769424 189.79031 
z
" clip-path="url(#pd147e5fe1d)" style="fill: #ffffff; stroke: #333333"/>
    <path d="M 822.397793 153.497698 
L 821.555275 155.19107 
L 820.711749 155.59717 
L 820.220641 155.543147 
L 818.84247 153.858048 
L 818.286041 153.732313 
L 817.818886 153.956932 
L 817.00075 155.400516 
L 817.700917 158.06108 
L 817.591002 158.827352 
L 815.991295 160.479455 
L 813.517453 161.571893 
L 810.821994 153.763983 
L 809.006749 147.223915 
L 814.062077 145.448627 
L 815.820632 145.630103 
L 817.29752 147.048141 
L 819.688772 150.998399 
z
" clip-path="url(#pd147e5fe1d)" style="fill: #ffffff; stroke: #333333"/>
    <path d="M 756.701367 329.385979 
L 753.233556 334.321394 
L 747.835781 344.783677 
L 745.620757 348.4804 
L 742.160269 352.800108 
L 737.639992 356.73211 
L 736.298857 358.203449 
L 731.228316 366.844863 
L 730.6991 367.08019 
L 730.25195 366.750068 
L 729.68103 364.710478 
L 729.27393 364.117252 
L 728.655696 364.091434 
L 728.084539 364.603468 
L 727.672424 365.9769 
L 728.023171 369.137456 
L 727.882965 370.489165 
L 727.109 371.656978 
L 725.834156 372.023802 
L 722.078049 362.56435 
L 719.077689 357.708753 
L 715.569935 355.373751 
L 710.192786 350.82903 
L 699.623059 344.065417 
L 697.043274 341.85091 
L 694.471014 338.949627 
L 686.538805 335.284221 
L 683.983096 333.648622 
L 682.644484 332.232323 
L 681.692942 330.445366 
L 681.303108 328.937711 
L 680.973221 325.391377 
L 685.070699 324.391606 
L 688.509809 321.78512 
L 691.22319 321.593013 
L 693.445837 319.51811 
L 694.420416 318.960378 
L 711.585735 315.142765 
L 712.916553 315.552012 
L 713.793255 317.601023 
L 714.335864 318.020689 
L 714.694408 317.464412 
L 715.207608 315.138785 
L 715.640518 314.807924 
L 716.926603 315.823862 
L 719.181535 319.652927 
L 719.851403 320.248719 
L 720.580058 320.432881 
L 737.504287 316.395279 
L 738.682095 316.487127 
z
" clip-path="url(#pd147e5fe1d)" style="fill: #ffffff; stroke: #333333"/>
    <path d="M 466.072291 140.551222 
L 465.514348 143.736122 
L 465.600536 146.117632 
L 466.055294 147.537756 
L 467.785766 150.603841 
L 468.744051 153.052134 
L 469.536214 156.387687 
L 470.005072 160.299685 
L 470.43239 176.68283 
L 471.634607 188.13003 
L 471.509106 191.428268 
L 470.547143 199.00863 
L 470.736363 203.215923 
L 469.081255 203.186263 
L 468.137461 202.854567 
L 466.3104 201.663473 
L 462.189125 198.229038 
L 460.817126 197.542011 
L 459.428289 197.258868 
L 457.652226 197.55238 
L 452.999361 199.764952 
L 450.955177 200.110884 
L 448.848858 199.636964 
L 445.469048 197.519628 
L 443.60938 196.982802 
L 405.078779 196.740841 
L 366.956318 195.221758 
L 369.817039 139.64933 
L 393.860351 140.695554 
L 417.92772 141.19434 
L 442.003548 141.146058 
z
" clip-path="url(#pd147e5fe1d)" style="fill: #ffffff; stroke: #333333"/>
    <path d="M 672.591364 297.353573 
L 697.428375 292.137965 
L 697.084067 295.09225 
L 694.549106 300.148698 
L 691.735311 302.610502 
L 686.959509 305.457321 
L 682.550617 311.720795 
L 679.944353 314.374519 
L 676.892921 316.568754 
L 671.724677 319.535048 
L 669.548239 321.317957 
L 668.27164 322.88538 
L 667.431306 324.484463 
L 666.968367 326.238141 
L 666.951374 328.133256 
L 644.310521 332.206241 
L 620.482337 336.051832 
L 597.949733 339.270162 
L 573.587993 342.296665 
L 574.124343 340.17242 
L 574.230331 336.147419 
L 574.614896 333.697346 
L 575.306451 332.188809 
L 577.686098 329.328064 
L 579.214105 322.300723 
L 581.288139 314.687934 
L 582.309377 311.946802 
L 604.996534 308.910832 
L 627.611667 305.466542 
L 650.146248 301.613515 
z
" clip-path="url(#pd147e5fe1d)" style="fill: #ffffff; stroke: #333333"/>
    <path d="M 420.429408 321.944118 
L 420.63511 358.849751 
L 420.957846 359.21985 
L 423.800017 359.925231 
L 427.9659 362.416168 
L 429.365311 362.793349 
L 433.555767 362.872255 
L 436.088107 364.433517 
L 437.89205 364.967301 
L 445.872079 365.326691 
L 448.970445 365.85628 
L 451.408922 367.103613 
L 454.999269 370.644277 
L 457.205678 371.372993 
L 463.913689 371.088295 
L 465.982658 371.739476 
L 467.37277 371.843541 
L 473.173506 371.016437 
L 474.999167 371.370501 
L 478.338789 372.535926 
L 480.077063 372.7032 
L 482.637448 372.118125 
L 487.83848 369.789311 
L 490.429948 368.914509 
L 493.383195 368.439534 
L 496.323183 368.541628 
L 498.853982 369.210363 
L 504.830821 371.629054 
L 508.059824 372.393023 
L 510.629818 374.403906 
L 514.383696 375.693228 
L 514.937655 376.186116 
L 516.633729 401.14883 
L 518.986029 405.031337 
L 520.507038 411.050226 
L 523.796164 415.876478 
L 524.576395 419.119487 
L 525.029528 426.298287 
L 523.583244 433.981485 
L 522.586558 444.623741 
L 520.466031 444.557772 
L 518.370377 445.09637 
L 504.917252 451.479736 
L 504.402981 452.099015 
L 504.187592 453.951671 
L 503.732669 455.062576 
L 500.430091 458.535456 
L 497.613452 463.222476 
L 496.064535 464.68341 
L 491.575704 467.91255 
L 486.688751 472.4805 
L 484.403265 473.670692 
L 483.224311 473.725151 
L 482.417099 473.413815 
L 482.194713 473.027786 
L 482.296051 472.313655 
L 483.887272 468.98424 
L 483.344251 468.11015 
L 482.258138 468.01525 
L 480.334224 469.267439 
L 475.267552 473.737221 
L 473.320053 476.56998 
L 472.057994 477.938084 
L 470.887476 478.717488 
L 467.84479 480.012962 
L 466.539697 481.182675 
L 465.433606 483.490505 
L 465.55625 486.173094 
L 463.569805 492.344172 
L 463.195636 494.64878 
L 463.441719 496.564015 
L 465.001728 502.019726 
L 464.341711 510.214116 
L 464.770222 512.319631 
L 466.471679 517.27154 
L 466.605884 518.630301 
L 466.37578 519.503199 
L 464.816199 519.776438 
L 463.268515 519.50772 
L 457.946601 516.782393 
L 447.403009 513.286175 
L 442.830826 510.872648 
L 439.299117 507.933773 
L 436.930652 504.806323 
L 432.871104 496.182397 
L 427.84076 488.466444 
L 425.88731 486.188875 
L 420.130293 480.522577 
L 416.490828 476.095493 
L 414.9693 473.369795 
L 412.145278 466.098001 
L 409.115061 459.896236 
L 408.141605 458.320364 
L 405.444932 455.358429 
L 403.710829 454.068698 
L 400.555695 452.71776 
L 392.043915 450.082822 
L 385.190142 447.131952 
L 382.151632 446.678486 
L 378.411616 446.809499 
L 375.747333 447.550891 
L 373.781088 449.336591 
L 372.570616 451.745807 
L 370.732079 457.697928 
L 369.713621 459.438916 
L 368.556297 460.704063 
L 366.050895 461.002257 
L 362.308778 460.803598 
L 359.766667 460.19135 
L 357.965046 459.236479 
L 354.301609 455.843177 
L 347.221412 450.502422 
L 344.794919 448.104993 
L 343.465625 446.157759 
L 342.250145 443.589039 
L 340.097083 436.232809 
L 338.796375 432.759096 
L 337.350925 429.881959 
L 335.781411 427.4732 
L 332.720452 423.963174 
L 327.801617 419.727471 
L 323.004608 412.355871 
L 321.391594 410.346082 
L 319.757452 409.138994 
L 316.118128 407.880348 
L 314.823956 406.788962 
L 315.247287 401.293828 
L 315.669225 400.900323 
L 348.644373 403.177546 
L 369.758315 404.223692 
L 370.180888 404.015348 
L 373.611621 320.751538 
L 373.984877 320.341437 
z
" clip-path="url(#pd147e5fe1d)" style="fill: #ffffff; stroke: #333333"/>
    <path d="M 268.858962 205.449049 
L 266.434823 224.245665 
L 266.568803 224.605965 
L 294.171159 228.150235 
L 286.236237 302.486126 
L 249.173419 297.704539 
L 212.308462 291.822555 
L 227.495026 198.932897 
L 247.493503 202.279375 
z
" clip-path="url(#pd147e5fe1d)" style="fill: #ffffff; stroke: #333333"/>
    <path d="M 794.774268 139.052805 
L 787.523087 141.5106 
L 786.633609 139.688816 
L 785.1015 134.930755 
L 784.171471 133.433646 
L 780.805335 129.410427 
L 779.498185 125.442611 
L 776.938224 120.901637 
L 776.173889 117.592472 
L 774.217988 112.611843 
L 773.612356 105.665376 
L 772.908787 103.254598 
L 771.871849 100.994901 
L 793.846428 92.983643 
L 794.533553 95.892609 
L 794.661665 101.781681 
L 794.331221 103.280049 
L 793.073585 105.613863 
L 792.831977 106.631063 
L 793.528656 114.255539 
L 792.82605 121.698518 
L 793.137523 124.821084 
L 794.080702 129.203797 
L 793.852953 132.985703 
z
" clip-path="url(#pd147e5fe1d)" style="fill: #ffffff; stroke: #333333"/>
    <path d="M 781.847883 255.945779 
L 781.156426 255.835752 
L 780.633004 255.096955 
L 780.115651 252.785321 
L 779.38566 251.199529 
L 779.243868 249.037531 
L 780.026423 244.460059 
L 779.961518 242.116789 
L 782.993689 240.490107 
L 783.571799 244.379454 
L 783.611961 247.273609 
L 782.447366 255.108325 
z
" clip-path="url(#pd147e5fe1d)" style="fill: #ffffff; stroke: #333333"/>
    <path d="M 750.298623 226.195541 
L 753.164393 228.249069 
L 753.894741 229.20334 
L 754.328649 230.339689 
L 754.469343 231.860312 
L 754.047509 235.366126 
L 754.038999 238.041394 
L 753.352396 238.923941 
L 753.130944 239.84656 
L 753.284903 240.771159 
L 754.061337 241.966054 
L 755.75409 243.280596 
L 758.363833 244.293055 
L 761.537443 244.979679 
L 766.484971 245.457881 
L 768.350041 245.998721 
L 770.286732 247.506794 
L 772.125825 250.599357 
L 772.287944 252.557664 
L 772.981931 255.456728 
L 772.825315 256.510585 
L 772.240116 256.85421 
L 771.467104 256.77597 
L 769.554259 255.311705 
L 768.784876 255.014419 
L 767.969429 255.291464 
L 767.705823 255.977734 
L 767.984163 256.742445 
L 768.632617 257.444902 
L 772.108141 259.295639 
L 772.498573 259.931942 
L 772.392392 260.464262 
L 771.775821 260.887965 
L 770.836541 260.935192 
L 767.674966 259.592972 
L 766.497196 259.409747 
L 765.335916 260.162562 
L 765.25806 260.729346 
L 765.580765 261.368127 
L 766.417708 261.930905 
L 768.930606 262.652942 
L 771.869657 264.520964 
L 773.290915 264.937388 
L 775.622061 264.443283 
L 779.356827 262.269607 
L 780.848881 262.267688 
L 781.95828 262.997516 
L 782.963558 264.201171 
L 785.357233 269.288832 
L 758.101662 277.121339 
L 729.258526 284.66926 
L 700.205068 291.521383 
L 672.591364 297.353573 
L 673.005752 294.470357 
L 674.443232 291.376446 
L 676.349496 288.965722 
L 679.081297 286.584536 
L 680.920905 282.028835 
L 684.607839 278.704174 
L 687.439973 274.020059 
L 689.16555 274.320959 
L 692.382613 276.14846 
L 694.223946 276.732752 
L 700.406255 276.185628 
L 702.314695 275.564797 
L 704.176496 274.552689 
L 710.039391 269.996723 
L 713.361462 267.95057 
L 714.098113 266.730661 
L 714.881793 264.160944 
L 714.482193 259.936833 
L 714.683185 258.582959 
L 718.154964 252.752829 
L 720.639732 245.369627 
L 721.173189 244.840357 
L 721.886877 244.805735 
L 723.936734 246.041032 
L 724.788697 246.280481 
L 725.795032 246.073119 
L 726.607879 245.501468 
L 727.594057 243.957775 
L 729.554662 239.205702 
L 733.587507 234.536752 
L 735.294655 230.400509 
L 736.395121 228.845958 
L 737.295731 228.483178 
L 739.087845 229.207304 
L 739.746851 229.061166 
L 741.871879 225.676613 
L 742.914536 223.444414 
L 744.544408 223.407327 
L 746.076408 223.776419 
z
" clip-path="url(#pd147e5fe1d)" style="fill: #ffffff; stroke: #333333"/>
    <path d="M 202.244234 112.620647 
L 201.917159 114.490507 
L 202.049107 115.512579 
L 194.451193 114.182384 
L 177.959329 110.200733 
L 170.063546 110.497198 
L 163.723911 109.485077 
L 159.394023 110.203647 
L 157.053248 110.094648 
L 149.188614 107.722485 
L 147.219572 107.467861 
L 144.888079 107.579256 
L 140.788684 106.362883 
L 131.284181 105.002464 
L 127.535829 103.694277 
L 125.580351 102.4096 
L 124.189601 100.889459 
L 125.50231 95.069911 
L 125.837255 94.891381 
L 126.031685 94.281622 
L 125.825006 93.067543 
L 125.046687 91.526306 
L 123.745089 89.90505 
L 122.343421 88.827811 
L 116.158149 86.156601 
L 115.121841 85.034849 
L 114.624189 83.87771 
L 114.720876 83.105334 
L 115.291625 82.784218 
L 117.174463 83.897493 
L 117.721329 83.894864 
L 118.449714 83.077239 
L 118.949863 81.822732 
L 119.090659 79.979636 
L 117.676019 78.244589 
L 117.093204 76.774553 
L 117.012341 74.150001 
L 117.27081 73.235172 
L 117.815448 72.842781 
L 118.514455 72.919825 
L 119.541645 74.55554 
L 120.081038 74.850443 
L 120.869645 74.477546 
L 121.339291 73.56597 
L 120.901819 72.138569 
L 118.24891 70.328825 
L 117.876204 68.667095 
L 118.359052 61.931569 
L 116.974172 51.640522 
L 117.328013 49.855608 
L 119.141747 45.867547 
L 119.538158 45.703753 
L 120.786705 46.312318 
L 125.199663 49.755012 
L 128.834458 51.88326 
L 132.897981 55.448528 
L 134.388328 56.086401 
L 137.7344 56.882152 
L 138.635871 57.474408 
L 138.796112 58.279088 
L 138.32884 59.47521 
L 135.162578 62.630944 
L 133.758613 64.685142 
L 133.239358 65.946496 
L 133.533497 66.579021 
L 134.221468 66.475795 
L 137.693568 62.55544 
L 138.704362 62.012525 
L 139.423689 62.251289 
L 139.529779 64.153982 
L 138.922414 66.794079 
L 135.970562 72.226974 
L 135.940151 73.28015 
L 136.690495 73.729286 
L 138.109394 73.226034 
L 139.663365 71.405067 
L 142.20238 69.140272 
L 143.440137 67.181286 
L 146.061281 61.790057 
L 146.215333 60.226324 
L 145.661348 55.873582 
L 146.733318 52.154924 
L 146.56929 49.085172 
L 145.686704 44.66673 
L 145.864669 41.60676 
L 179.567009 51.176626 
L 213.682988 59.503265 
z
" clip-path="url(#pd147e5fe1d)" style="fill: #ffffff; stroke: #333333"/>
    <path d="M 719.91889 223.043606 
L 721.773508 231.17147 
L 722.024222 231.229419 
L 723.206175 230.76104 
L 725.734489 228.49426 
L 728.747784 226.36071 
L 731.678884 224.527701 
L 733.97024 223.468227 
L 735.97718 222.884312 
L 737.837028 222.688122 
L 742.914536 223.444414 
L 741.871879 225.676613 
L 739.746851 229.061166 
L 739.160221 229.223168 
L 737.073004 228.486773 
L 735.868541 229.453526 
L 733.643197 234.451237 
L 729.554662 239.205702 
L 727.594057 243.957775 
L 726.607879 245.501468 
L 725.795032 246.073119 
L 724.788697 246.280481 
L 723.936734 246.041032 
L 721.937899 244.817065 
L 721.173189 244.840357 
L 720.709416 245.257012 
L 718.154964 252.752829 
L 714.683185 258.582959 
L 714.482193 259.936833 
L 714.869233 264.2476 
L 714.06086 266.821927 
L 713.218069 268.08904 
L 710.039391 269.996723 
L 704.059875 274.626622 
L 702.241594 275.596029 
L 700.406255 276.185628 
L 694.223946 276.732752 
L 692.382613 276.14846 
L 689.16555 274.320959 
L 687.438213 274.021877 
L 686.576441 271.668439 
L 685.048119 269.382361 
L 684.071695 266.637664 
L 679.490574 261.619057 
L 677.616949 258.942476 
L 681.422826 253.271958 
L 682.416204 248.931508 
L 683.029372 247.619696 
L 683.920179 247.021736 
L 686.177007 247.842938 
L 687.288077 247.780765 
L 687.902479 247.473133 
L 688.4441 245.969132 
L 689.272667 241.360787 
L 690.072415 239.33806 
L 691.297341 238.154361 
L 694.342006 236.477135 
L 695.386522 234.789526 
L 697.262223 229.134285 
L 697.989531 225.615978 
L 698.033356 222.683933 
L 697.005732 213.817777 
L 697.577397 210.569209 
L 698.764949 207.966077 
L 700.047826 206.868749 
L 704.651302 226.791049 
z
" clip-path="url(#pd147e5fe1d)" style="fill: #ffffff; stroke: #333333"/>
    <path d="M 589.649456 163.853222 
L 588.665079 168.800369 
L 588.140616 173.497413 
L 587.877112 181.234385 
L 588.137524 185.430246 
L 588.717332 188.409758 
L 591.215002 196.168206 
L 556.072227 201.054752 
L 551.603786 198.304373 
L 550.073872 196.622662 
L 546.71017 193.941314 
L 545.399821 192.218247 
L 544.312178 188.893471 
L 543.924159 182.152516 
L 543.519656 179.67408 
L 542.658331 177.379747 
L 541.233499 175.296763 
L 538.491533 173.007921 
L 534.719266 171.586355 
L 533.328091 170.803635 
L 528.003922 165.724796 
L 521.28879 160.621289 
L 519.405594 158.413442 
L 518.339983 155.915792 
L 517.88353 152.904504 
L 518.337265 137.92142 
L 519.040306 135.710144 
L 521.551614 132.484983 
L 522.517335 130.602336 
L 522.7771 128.907901 
L 522.650687 123.25882 
L 523.154757 121.433963 
L 524.121051 119.676461 
L 527.422308 119.859141 
L 529.955389 119.211567 
L 532.146266 117.945628 
L 537.567041 113.763534 
L 539.204115 112.906122 
L 540.600232 112.524562 
L 541.286309 113.099936 
L 541.536062 114.048215 
L 540.219308 117.984614 
L 540.195864 118.767437 
L 540.579516 119.209813 
L 543.4926 120.174101 
L 546.488072 120.379834 
L 548.998442 119.807391 
L 551.193357 118.415859 
L 555.376593 123.310254 
L 557.524447 124.925817 
L 572.284191 128.97308 
L 575.586636 129.427094 
L 579.892653 131.23614 
L 581.374357 132.286074 
L 582.509472 134.264955 
L 584.468465 140.474325 
L 586.312737 143.35184 
L 587.791103 144.289612 
L 582.889107 153.475192 
L 582.167667 156.877997 
L 582.313451 158.013546 
L 582.740978 158.609094 
L 583.703698 158.741555 
L 584.744308 157.781671 
L 587.870899 153.428768 
L 590.403634 148.307887 
L 592.833889 144.300872 
L 593.6446 143.386834 
L 594.462927 143.012154 
L 595.05029 143.824546 
L 595.163319 145.557197 
z
" clip-path="url(#pd147e5fe1d)" style="fill: #ffffff; stroke: #333333"/>
    <path d="M 368.82449 158.756291 
L 365.024941 234.019869 
L 339.511455 232.405856 
L 312.945552 230.1283 
L 286.036835 227.198156 
L 266.497064 224.521813 
L 271.712522 183.698828 
L 276.360657 149.931913 
L 302.463475 153.167634 
L 324.052184 155.439658 
L 347.138311 157.383537 
z
" clip-path="url(#pd147e5fe1d)" style="fill: #ffffff; stroke: #333333"/>
   </g>
  </g>
 </g>
 <defs>
  <clipPath id="pd147e5fe1d">
   <rect x="7.2" y="7.2" width="881.265774" height="554.4"/>
  </clipPath>
 </defs>
</svg>
